<?xml version="1.0" encoding="UTF-8"?>
<svg version="1.1" xmlns="http://www.w3.org/2000/svg" width="204" height="192">
<path d="M0 0 C67.32 0 134.64 0 204 0 C204 63.36 204 126.72 204 192 C136.68 192 69.36 192 0 192 C0 128.64 0 65.28 0 0 Z " fill="#FDFEFE" transform="translate(0,0)"/>
<path d="M0 0 C0 3.96 0 7.92 0 12 C-1.32 12 -2.64 12 -4 12 C-4.18175781 12.79664063 -4.36351562 13.59328125 -4.55078125 14.4140625 C-4.80214844 15.47367188 -5.05351562 16.53328125 -5.3125 17.625 C-5.55613281 18.66914063 -5.79976562 19.71328125 -6.05078125 20.7890625 C-7 24 -7 24 -8.53230286 26.67044067 C-10.30037885 30.68142751 -10.44035575 34.18272257 -10.43237305 38.48388672 C-10.4425647 39.31381638 -10.45275635 40.14374603 -10.46325684 40.99882507 C-10.49330829 43.72584859 -10.5026407 46.45252038 -10.51171875 49.1796875 C-10.52857126 51.07684489 -10.54672228 52.97399116 -10.56611633 54.87112427 C-10.61356025 59.85230024 -10.64340592 64.83343109 -10.66955566 69.8147583 C-10.69938946 74.90263783 -10.74591013 79.99036199 -10.79101562 85.078125 C-10.87698495 95.05200196 -10.94435861 105.02591096 -11 115 C-13.97952374 116.21222097 -16.81456715 117.28791177 -19.9609375 117.96484375 C-21.03988281 118.20557617 -21.03988281 118.20557617 -22.140625 118.45117188 C-23.62193894 118.77359073 -25.10370769 119.09392753 -26.5859375 119.41210938 C-30.09913051 120.19944102 -33.17068006 121.07361173 -36.49609375 122.5078125 C-40.52411349 124.22320106 -44.41223099 125.08510136 -48.6875 125.9375 C-56.75399101 127.634578 -64.65151303 129.65417238 -72.2265625 132.9765625 C-76.24953931 134.4610976 -80.38337609 135.31111996 -84.5625 136.25 C-90.26504843 137.5500991 -95.90211793 138.9164059 -101.4765625 140.6953125 C-102.3523999 140.9747168 -103.2282373 141.25412109 -104.13061523 141.54199219 C-105.78408354 142.08067584 -107.43256839 142.63501569 -109.07446289 143.20800781 C-118.30696933 146.21434821 -126.87669838 143.98780761 -136.125 141.9375 C-140.518125 140.9784375 -140.518125 140.9784375 -145 140 C-145 129.11 -145 118.22 -145 107 C-132.13 106.01 -132.13 106.01 -119 105 C-119 97.74 -119 90.48 -119 83 C-111.41 83 -103.82 83 -96 83 C-96 73.76 -96 64.52 -96 55 C-90.06 55 -84.12 55 -78 55 C-78 49.39 -78 43.78 -78 38 C-73.05 37.67 -68.1 37.34 -63 37 C-63 35.02 -63 33.04 -63 31 C-59.04 30.34 -55.08 29.68 -51 29 C-50.67 23.72 -50.34 18.44 -50 13 C-46.04 12.67 -42.08 12.34 -38 12 C-38 9.36 -38 6.72 -38 4 C-32.11599345 3.14304033 -26.44090708 2.87460766 -20.5 2.9375 C-19.26636719 2.94426758 -19.26636719 2.94426758 -18.0078125 2.95117188 C-16.00517604 2.96281511 -14.00257773 2.98074444 -12 3 C-11.67 7.29 -11.34 11.58 -11 16 C-10.855625 14.7625 -10.71125 13.525 -10.5625 12.25 C-10.41554687 11.15171875 -10.41554687 11.15171875 -10.265625 10.03125 C-10.07954834 8.60831082 -9.93167476 7.18009713 -9.8125 5.75 C-7.99452266 1.83435649 -4.12522856 0 0 0 Z " fill="#647BC4" transform="translate(166,11)"/>
<path d="M0 0 C0 3.96 0 7.92 0 12 C-1.32 12 -2.64 12 -4 12 C-4.18175781 12.79664063 -4.36351562 13.59328125 -4.55078125 14.4140625 C-4.80214844 15.47367188 -5.05351562 16.53328125 -5.3125 17.625 C-5.55613281 18.66914063 -5.79976563 19.71328125 -6.05078125 20.7890625 C-7 24 -7 24 -8.53230286 26.67044067 C-10.30037885 30.68142751 -10.44035575 34.18272257 -10.43237305 38.48388672 C-10.4425647 39.31381638 -10.45275635 40.14374603 -10.46325684 40.99882507 C-10.49330829 43.72584859 -10.5026407 46.45252038 -10.51171875 49.1796875 C-10.52857126 51.07684489 -10.54672228 52.97399116 -10.56611633 54.87112427 C-10.61356025 59.85230024 -10.64340592 64.83343109 -10.66955566 69.8147583 C-10.69938946 74.90263783 -10.74591013 79.99036199 -10.79101562 85.078125 C-10.87698495 95.05200196 -10.94435861 105.02591096 -11 115 C-13.95899725 116.19747919 -16.84438503 117.32800105 -19.9375 118.125 C-20.56527344 118.29257813 -21.19304687 118.46015625 -21.83984375 118.6328125 C-24 119 -24 119 -30 119 C-30.33 102.83 -30.66 86.66 -31 70 C-31.33 70.33 -31.66 70.66 -32 71 C-34.25 71.3125 -34.25 71.3125 -37 71 C-38.66666667 69.66666667 -40.33333333 68.33333333 -42 67 C-44.7104607 66.66407492 -44.7104607 66.66407492 -47 67 C-47.14695313 67.53367187 -47.29390625 68.06734375 -47.4453125 68.6171875 C-49.0687773 74.01007631 -51.31849862 78.41499156 -54.3125 83.16796875 C-56.99306387 87.66660025 -59.20944207 92.379925 -61.484375 97.09375 C-63 100 -63 100 -65 102 C-66.35007394 102.17981957 -67.70556104 102.32023367 -69.0625 102.4375 C-77.29701977 104.08175194 -81.43977103 112.75086734 -85.9375 119.1875 C-86.618125 120.115625 -87.29875 121.04375 -88 122 C-88.66 122 -89.32 122 -90 122 C-91.20628008 124.33214148 -92.1654738 126.49642139 -93 129 C-95.13526622 131.66908277 -96.19200774 132.88457253 -99.625 133.375 C-102 133 -102 133 -104 131 C-103.625 128.375 -103.625 128.375 -103 126 C-102.34 126 -101.68 126 -101 126 C-100.938125 125.443125 -100.87625 124.88625 -100.8125 124.3125 C-99.6519231 121.00931958 -97.59786554 119.28105267 -95 117 C-94.34 117 -93.68 117 -93 117 C-93 116.01 -93 115.02 -93 114 C-92.34 114 -91.68 114 -91 114 C-90.690625 113.21625 -90.38125 112.4325 -90.0625 111.625 C-89 109 -89 109 -88 107 C-87.34 107 -86.68 107 -86 107 C-85.690625 106.38125 -85.38125 105.7625 -85.0625 105.125 C-84.375 103.75 -83.6875 102.375 -83 101 C-82.34 101 -81.68 101 -81 101 C-80.690625 100.38125 -80.38125 99.7625 -80.0625 99.125 C-79.375 97.75 -78.6875 96.375 -78 95 C-76.58336586 94.90564289 -75.16193927 94.87894371 -73.7421875 94.88671875 C-70.18931 94.56524753 -70.18931 94.56524753 -67.46582031 92.42822266 C-66.18511386 90.27214247 -65.13279439 88.10866791 -64.125 85.8125 C-63.57972656 84.67844727 -63.57972656 84.67844727 -63.0234375 83.52148438 C-62.31673425 82.04534515 -61.62378794 80.56252294 -60.94628906 79.07275391 C-59.70139674 76.34593868 -58.35572484 73.67308012 -57 71 C-56.34 71 -55.68 71 -55 71 C-55.061875 70.236875 -55.12375 69.47375 -55.1875 68.6875 C-54.96099804 65.44097185 -54.35484791 65.09319814 -52 63 C-51.525625 62.154375 -51.05125 61.30875 -50.5625 60.4375 C-48.87625561 57.80695875 -48.00382725 56.81922561 -45 56 C-42.30066074 56.92548775 -41.28813232 57.42373537 -40 60 C-37.47266765 60.65555119 -37.47266765 60.65555119 -35 61 C-32.68336156 57.06171464 -30.56641751 53.30764815 -29 49 C-28.34 49 -27.68 49 -27 49 C-26.62875 47.700625 -26.62875 47.700625 -26.25 46.375 C-25 43 -25 43 -22.9375 39.9375 C-21.07831896 37.11874165 -20.38898461 35.30636921 -20 32 C-19.01 32 -18.02 32 -17 32 C-16.82984375 31.46632813 -16.6596875 30.93265625 -16.484375 30.3828125 C-15.10267432 26.13481785 -13.59714041 22.03391659 -11.8125 17.9375 C-10.40824205 14.58808474 -9.84820214 12.29762922 -10.1875 8.6875 C-10 5 -10 5 -8.5625 3.39453125 C-5.54015705 1.14666368 -3.83776863 0 0 0 Z " fill="#7179BF" transform="translate(166,11)"/>
<path d="M0 0 C2.125 0.75 2.125 0.75 4.0625 2.3125 C6.63011714 4.10205134 8.05574752 4.15384901 11.125 3.75 C11.785 3.09 12.445 2.43 13.125 1.75 C13.125 18.58 13.125 35.41 13.125 52.75 C14.115 53.245 14.115 53.245 15.125 53.75 C9.30055797 55.59814026 3.43811352 57.18720711 -2.5 58.625 C-9.00650327 60.20271207 -15.37694319 62.0782256 -21.73486328 64.17529297 C-24.58228091 65.1021052 -26.85700519 65.75 -29.875 65.75 C-30.37 53.87 -30.37 53.87 -30.875 41.75 C-36.11047247 45.89184127 -36.11047247 45.89184127 -36.0625 49.4375 C-36.000625 50.200625 -35.93875 50.96375 -35.875 51.75 C-37.875 53.75 -37.875 53.75 -40.3125 54.1875 C-43.1390517 54.80796257 -44.06592843 55.56007125 -45.875 57.75 C-46.205 57.09 -46.535 56.43 -46.875 55.75 C-46.215 55.75 -45.555 55.75 -44.875 55.75 C-44.689375 55.09 -44.50375 54.43 -44.3125 53.75 C-42.59124841 50.15782276 -40.34437909 47.66181014 -37.66015625 44.74609375 C-36.11394542 43.01717967 -34.82846806 41.26818271 -33.5 39.375 C-30.63560852 36.51060852 -30.19455245 36.48273792 -26.4375 36.0625 C-23.33502759 35.53518208 -22.22015837 35.18681526 -20.2421875 32.68359375 C-18.67937554 29.75011883 -17.28623988 26.75920871 -15.875 23.75 C-14.54389607 21.34903055 -13.14470799 18.98943837 -11.75 16.625 C-9.05182054 11.98175374 -6.64129705 7.3227416 -4.6640625 2.32421875 C-3.51757745 0.03692432 -2.50267398 -0.33368986 0 0 Z " fill="#6E70B1" transform="translate(122.875,77.25)"/>
<path d="M0 0 C0 3.96 0 7.92 0 12 C-1.32 12 -2.64 12 -4 12 C-4.14695312 12.72703125 -4.29390625 13.4540625 -4.4453125 14.203125 C-6.00873827 21.21158533 -8.31451454 27.17121753 -11.6953125 33.50390625 C-13.09570058 36.02176029 -13.09570058 36.02176029 -14 39 C-14.66 39 -15.32 39 -16 39 C-16.10957031 39.63808594 -16.21914062 40.27617188 -16.33203125 40.93359375 C-16.56986328 42.17302734 -16.56986328 42.17302734 -16.8125 43.4375 C-17.03873047 44.67306641 -17.03873047 44.67306641 -17.26953125 45.93359375 C-17.51058594 46.61550781 -17.75164062 47.29742187 -18 48 C-19.485 48.495 -19.485 48.495 -21 49 C-21.73199258 50.63902687 -22.37913382 52.31573535 -23 54 C-24.47911944 56.9705528 -26.05634256 59.88842449 -27.625 62.8125 C-28.04523438 63.60076172 -28.46546875 64.38902344 -28.8984375 65.20117188 C-29.9300009 67.13535326 -30.96391172 69.06823983 -32 71 C-36.85911178 71.25915263 -38.23934986 70.00852011 -42 67 C-44.7104607 66.66407492 -44.7104607 66.66407492 -47 67 C-47.14695313 67.53367187 -47.29390625 68.06734375 -47.4453125 68.6171875 C-49.0687773 74.01007631 -51.31849862 78.41499156 -54.3125 83.16796875 C-56.99306387 87.66660025 -59.20944207 92.379925 -61.484375 97.09375 C-63 100 -63 100 -65 102 C-66.35007394 102.17981957 -67.70556104 102.32023367 -69.0625 102.4375 C-77.29701977 104.08175194 -81.43977103 112.75086734 -85.9375 119.1875 C-86.618125 120.115625 -87.29875 121.04375 -88 122 C-88.66 122 -89.32 122 -90 122 C-91.20628008 124.33214148 -92.1654738 126.49642139 -93 129 C-95.13526622 131.66908277 -96.19200774 132.88457253 -99.625 133.375 C-102 133 -102 133 -104 131 C-103.625 128.375 -103.625 128.375 -103 126 C-102.34 126 -101.68 126 -101 126 C-100.938125 125.443125 -100.87625 124.88625 -100.8125 124.3125 C-99.6519231 121.00931958 -97.59786554 119.28105267 -95 117 C-94.34 117 -93.68 117 -93 117 C-93 116.01 -93 115.02 -93 114 C-92.34 114 -91.68 114 -91 114 C-90.690625 113.21625 -90.38125 112.4325 -90.0625 111.625 C-89 109 -89 109 -88 107 C-87.34 107 -86.68 107 -86 107 C-85.690625 106.38125 -85.38125 105.7625 -85.0625 105.125 C-84.375 103.75 -83.6875 102.375 -83 101 C-82.34 101 -81.68 101 -81 101 C-80.690625 100.38125 -80.38125 99.7625 -80.0625 99.125 C-79.375 97.75 -78.6875 96.375 -78 95 C-76.58336586 94.90564289 -75.16193927 94.87894371 -73.7421875 94.88671875 C-70.18931 94.56524753 -70.18931 94.56524753 -67.46582031 92.42822266 C-66.18511386 90.27214247 -65.13279439 88.10866791 -64.125 85.8125 C-63.57972656 84.67844727 -63.57972656 84.67844727 -63.0234375 83.52148438 C-62.31673425 82.04534515 -61.62378794 80.56252294 -60.94628906 79.07275391 C-59.70139674 76.34593868 -58.35572484 73.67308012 -57 71 C-56.34 71 -55.68 71 -55 71 C-55.061875 70.236875 -55.12375 69.47375 -55.1875 68.6875 C-54.96099804 65.44097185 -54.35484791 65.09319814 -52 63 C-51.525625 62.154375 -51.05125 61.30875 -50.5625 60.4375 C-48.87625561 57.80695875 -48.00382725 56.81922561 -45 56 C-42.30066074 56.92548775 -41.28813232 57.42373537 -40 60 C-37.47266765 60.65555119 -37.47266765 60.65555119 -35 61 C-32.68336156 57.06171464 -30.56641751 53.30764815 -29 49 C-28.34 49 -27.68 49 -27 49 C-26.62875 47.700625 -26.62875 47.700625 -26.25 46.375 C-25 43 -25 43 -22.9375 39.9375 C-21.07831896 37.11874165 -20.38898461 35.30636921 -20 32 C-19.01 32 -18.02 32 -17 32 C-16.82984375 31.46632813 -16.6596875 30.93265625 -16.484375 30.3828125 C-15.10267432 26.13481785 -13.59714041 22.03391659 -11.8125 17.9375 C-10.40824205 14.58808474 -9.84820214 12.29762922 -10.1875 8.6875 C-10 5 -10 5 -8.5625 3.39453125 C-5.54015705 1.14666368 -3.83776863 0 0 0 Z " fill="#D43648" transform="translate(166,11)"/>
<path d="M0 0 C3.3 0 6.6 0 10 0 C10.495 1.98 10.495 1.98 11 4 C9.68 4 8.36 4 7 4 C7.01160156 5.28777344 7.02320313 6.57554688 7.03515625 7.90234375 C7.0445327 9.58072772 7.05363305 11.25911326 7.0625 12.9375 C7.07087891 13.78763672 7.07925781 14.63777344 7.08789062 15.51367188 C7.09111328 16.32255859 7.09433594 17.13144531 7.09765625 17.96484375 C7.10289307 18.7137085 7.10812988 19.46257324 7.11352539 20.23413086 C7 22 7 22 6 23 C0.60118412 23.34568689 -4.69982429 23.11582647 -10 22 C-9.75552124 23.2367749 -9.75552124 23.2367749 -9.50610352 24.49853516 C-8.94741783 28.36378846 -8.87414664 32.12959534 -8.90234375 36.0234375 C-8.9037587 36.76961334 -8.90517365 37.51578918 -8.90663147 38.28457642 C-8.91219126 40.64809318 -8.92473611 43.01151227 -8.9375 45.375 C-8.9425202 46.98567571 -8.9470822 48.59635291 -8.95117188 50.20703125 C-8.96214749 54.13805799 -8.97938404 58.06901248 -9 62 C-9.66 62 -10.32 62 -11 62 C-11.33 58.04 -11.66 54.08 -12 50 C-18.93 49.67 -25.86 49.34 -33 49 C-33 40.42 -33 31.84 -33 23 C-27.06 23 -21.12 23 -15 23 C-15 17.06 -15 11.12 -15 5 C-8.07 4.01 -8.07 4.01 -1 3 C-0.67 2.01 -0.34 1.02 0 0 Z " fill="#3878C6" transform="translate(104,44)"/>
<path d="M0 0 C0.82242188 0.00451172 1.64484375 0.00902344 2.4921875 0.01367188 C4.49482396 0.02531511 6.49742227 0.04324444 8.5 0.0625 C9.86645587 11.06841089 9.8819078 19.4896383 3.5 29.0625 C2.51 29.0625 1.52 29.0625 0.5 29.0625 C0.60248047 30.10664062 0.60248047 30.10664062 0.70703125 31.171875 C0.43926226 34.9105363 -0.90356962 37.10328371 -2.8125 40.3125 C-3.42738281 41.36953125 -4.04226562 42.4265625 -4.67578125 43.515625 C-6.5 46.0625 -6.5 46.0625 -9.5 47.0625 C-9.5 40.7925 -9.5 34.5225 -9.5 28.0625 C-15.44 27.0725 -15.44 27.0725 -21.5 26.0625 C-21.83 28.7025 -22.16 31.3425 -22.5 34.0625 C-23.49 34.0625 -24.48 34.0625 -25.5 34.0625 C-25.5 31.4225 -25.5 28.7825 -25.5 26.0625 C-26.49 26.0625 -27.48 26.0625 -28.5 26.0625 C-28.5 21.1125 -28.5 16.1625 -28.5 11.0625 C-21.5 9.0625 -21.5 9.0625 -17.5 9.0625 C-17.5 6.4225 -17.5 3.7825 -17.5 1.0625 C-11.61599345 0.20554033 -5.94090708 -0.06289234 0 0 Z " fill="#3976C2" transform="translate(145.5,13.9375)"/>
<path d="M0 0 C16.875 1.125 16.875 1.125 22.9375 2.5625 C24.68353516 2.96662109 24.68353516 2.96662109 26.46484375 3.37890625 C27.71974609 3.68634766 27.71974609 3.68634766 29 4 C28.88202982 8.39675988 28.75780274 12.79328399 28.62768555 17.18969727 C28.58428187 18.68639269 28.54261087 20.18313939 28.50268555 21.67993164 C28.44511384 23.82714312 28.38138284 25.97409521 28.31640625 28.12109375 C28.27974854 29.4145874 28.24309082 30.70808105 28.20532227 32.04077148 C28 35 28 35 27 36 C20.71257794 36.34295029 15.11356469 35.38905677 9 34 C6.03 33.34 3.06 32.68 0 32 C0 21.44 0 10.88 0 0 Z " fill="#367AC6" transform="translate(21,119)"/>
<path d="M0 0 C2.09821215 -0.39938767 2.09821215 -0.39938767 4 -1 C4.66 0.65 5.32 2.3 6 4 C7.98 4 9.96 4 12 4 C12 3.01 12 2.02 12 1 C12.99 1 13.98 1 15 1 C15.495 1.99 15.495 1.99 16 3 C17.32 2.67 18.64 2.34 20 2 C20 4.64 20 7.28 20 10 C20.33 8.35 20.66 6.7 21 5 C21.66 5 22.32 5 23 5 C23 7.31 23 9.62 23 12 C20.36 12 17.72 12 15 12 C15 12.99 15 13.98 15 15 C12.27076612 15.0270817 9.54180363 15.04687847 6.8125 15.0625 C6.04357422 15.07087891 5.27464844 15.07925781 4.48242188 15.08789062 C0.48226603 15.10505868 -3.07208941 14.82108865 -7 14 C-7.99 14.495 -7.99 14.495 -9 15 C-17.34508327 15.79042683 -24.97154861 14.14432406 -33 12 C-33.33 8.7 -33.66 5.4 -34 2 C-32.02 1.67 -30.04 1.34 -28 1 C-28 1.99 -28 2.98 -28 4 C-25.71523122 3.4922736 -23.71584058 2.87613564 -21.5625 1.9375 C-18.8137824 0.93187161 -16.90130547 0.92746736 -14 1 C-12.328451 0.69208308 -10.66194453 0.35613097 -9 0 C-2.27848101 -1.13924051 -2.27848101 -1.13924051 0 0 Z " fill="#F0EEE8" transform="translate(84,161)"/>
<path d="M0 0 C0.33 0 0.66 0 1 0 C1 27.72 1 55.44 1 84 C-2.465 84.99 -2.465 84.99 -6 86 C-6.04633418 76.42069735 -6.08187471 66.84143325 -6.10362434 57.262043 C-6.1140629 52.81397799 -6.12822345 48.36598964 -6.15087891 43.91796875 C-6.17260467 39.62563066 -6.18456808 35.33336631 -6.18975449 31.04097748 C-6.19345072 29.40311268 -6.20066849 27.76525193 -6.21146011 26.12741852 C-6.22597155 23.83388028 -6.2279781 21.54064705 -6.22705078 19.24707031 C-6.231492 17.94135071 -6.23593323 16.6356311 -6.24050903 15.29034424 C-6.01684817 12.2304956 -5.62626858 10.5521487 -4 8 C-3.34 8 -2.68 8 -2 8 C-1.7834375 6.576875 -1.7834375 6.576875 -1.5625 5.125 C-1 2 -1 2 0 0 Z " fill="#7C80BC" transform="translate(154,42)"/>
<path d="M0 0 C0.33 0.66 0.66 1.32 1 2 C1.61875 1.835 2.2375 1.67 2.875 1.5 C5 1 5 1 7 1 C7.61875 0.814375 8.2375 0.62875 8.875 0.4375 C11.32496088 -0.06690371 12.63299534 0.26031104 15 1 C15.7425 1.185625 16.485 1.37125 17.25 1.5625 C17.8275 1.706875 18.405 1.85125 19 2 C19 2.99 19 3.98 19 5 C23.455 4.505 23.455 4.505 28 4 C28 4.66 28 5.32 28 6 C30.93730605 5.5218339 33.8473311 5.03469748 36.75 4.375 C39 4 39 4 41 5 C40.67 6.98 40.34 8.96 40 11 C40.66 11 41.32 11 42 11 C42 12.32 42 13.64 42 15 C36.25 16 36.25 16 34 16 C34 15.34 34 14.68 34 14 C33.21625 13.855625 32.4325 13.71125 31.625 13.5625 C29 13 29 13 27 12 C27 12.99 27 13.98 27 15 C23.91111478 17.05925681 23.29064073 17.2390374 19.8125 17.125 C18.554375 17.08375 17.29625 17.0425 16 17 C16.99 16.67 17.98 16.34 19 16 C19 15.34 19 14.68 19 14 C17.94425781 14.14308594 17.94425781 14.14308594 16.8671875 14.2890625 C8.61220196 15.21586244 1.15583577 14.45984634 -7 13 C-7.02688151 11.35425434 -7.04634123 9.70838587 -7.0625 8.0625 C-7.07410156 7.14597656 -7.08570312 6.22945312 -7.09765625 5.28515625 C-7 3 -7 3 -6 2 C-4.00041636 1.95919217 -1.99954746 1.95745644 0 2 C0 1.34 0 0.68 0 0 Z " fill="#E1B3B7" transform="translate(120,160)"/>
<path d="M0 0 C0.33 0 0.66 0 1 0 C1 16.83 1 33.66 1 51 C1.66 51.33 2.32 51.66 3 52 C-0.96 52.99 -4.92 53.98 -9 55 C-9 37.18 -9 19.36 -9 1 C-6.36 1.33 -3.72 1.66 -1 2 C-0.67 1.34 -0.34 0.68 0 0 Z " fill="#747BC3" transform="translate(135,79)"/>
<path d="M0 0 C0 3.96 0 7.92 0 12 C-1.32 12 -2.64 12 -4 12 C-4.14695313 12.72703125 -4.29390625 13.4540625 -4.4453125 14.203125 C-6.00873827 21.21158533 -8.31451454 27.17121753 -11.6953125 33.50390625 C-13.09570058 36.02176029 -13.09570058 36.02176029 -14 39 C-14.66 39 -15.32 39 -16 39 C-16.10957031 39.63808594 -16.21914062 40.27617188 -16.33203125 40.93359375 C-16.56986328 42.17302734 -16.56986328 42.17302734 -16.8125 43.4375 C-16.96332031 44.26121094 -17.11414063 45.08492187 -17.26953125 45.93359375 C-17.51058594 46.61550781 -17.75164062 47.29742187 -18 48 C-18.99 48.33 -19.98 48.66 -21 49 C-21.73199258 50.63902687 -22.37913382 52.31573535 -23 54 C-24.47911944 56.9705528 -26.05634256 59.88842449 -27.625 62.8125 C-28.04523438 63.60076172 -28.46546875 64.38902344 -28.8984375 65.20117188 C-29.9300009 67.13535326 -30.96391172 69.06823983 -32 71 C-36.85911178 71.25915263 -38.23934986 70.00852011 -42 67 C-44.7104607 66.66407492 -44.7104607 66.66407492 -47 67 C-47 67.66 -47 68.32 -47 69 C-49.475 69.99 -49.475 69.99 -52 71 C-51.58525633 65.71201818 -50.64775386 62.88309282 -47 59 C-44.09540975 59.40341531 -42.30115 59.77185606 -39.9375 61.5625 C-37.86669005 63.39723128 -37.86669005 63.39723128 -34 63 C-23.61105652 45.43057222 -23.61105652 45.43057222 -15 27 C-14.57589844 25.9275 -14.15179688 24.855 -13.71484375 23.75 C-10.67562783 16.31052307 -10.67562783 16.31052307 -10.125 8.4375 C-10 5 -10 5 -8.56640625 3.41015625 C-5.54882966 1.14540542 -3.84264596 0 0 0 Z " fill="#C04556" transform="translate(166,11)"/>
<path d="M0 0 C0 0.66 0 1.32 0 2 C0.99 2 1.98 2 3 2 C3.0269501 4.93756119 3.04681474 7.87487555 3.0625 10.8125 C3.07087891 11.64587891 3.07925781 12.47925781 3.08789062 13.33789062 C3.09272461 14.54155273 3.09272461 14.54155273 3.09765625 15.76953125 C3.10551147 16.87711792 3.10551147 16.87711792 3.11352539 18.00708008 C3 20 3 20 2 23 C-4.36775821 24.37681259 -11.75547107 25.08150964 -18 23 C-18 15.74 -18 8.48 -18 1 C-4.5 0 -4.5 0 0 0 Z " fill="#367AC6" transform="translate(90,68)"/>
<path d="M0 0 C0.33 0 0.66 0 1 0 C1 5.94 1 11.88 1 18 C-4.94 18 -10.88 18 -17 18 C-17 26.58 -17 35.16 -17 44 C-11.21125619 43.96052381 -11.21125619 43.96052381 -5.42260742 43.90991211 C-4.69920166 43.90741455 -3.9757959 43.90491699 -3.23046875 43.90234375 C-2.49207764 43.89710693 -1.75368652 43.89187012 -0.99291992 43.88647461 C1 44 1 44 4 45 C5.26237731 47.52475462 5.09856404 49.31200466 5.0625 52.125 C5.05347656 53.03507812 5.04445312 53.94515625 5.03515625 54.8828125 C5.02355469 55.58148438 5.01195312 56.28015625 5 57 C3.35 57 1.7 57 0 57 C-0.309375 57.61875 -0.61875 58.2375 -0.9375 58.875 C-1.625 60.25 -2.3125 61.625 -3 63 C-3.66 63 -4.32 63 -5 63 C-5.309375 63.61875 -5.61875 64.2375 -5.9375 64.875 C-6.625 66.25 -7.3125 67.625 -8 69 C-8.66 69 -9.32 69 -10 69 C-10.28875 69.804375 -10.5775 70.60875 -10.875 71.4375 C-12 74 -12 74 -14 75 C-15.375886 65.52167423 -14.64021677 56.53211632 -14 47 C-19.94 46.67 -25.88 46.34 -32 46 C-32 45.67 -32 45.34 -32 45 C-27.38 45 -22.76 45 -18 45 C-18 35.76 -18 26.52 -18 17 C-12.06 17 -6.12 17 0 17 C0 11.39 0 5.78 0 0 Z " fill="#737AC2" transform="translate(88,49)"/>
<path d="M0 0 C0.66 0 1.32 0 2 0 C2 17.16 2 34.32 2 52 C-1.33333333 53.33333333 -4.66666667 54.66666667 -8 56 C-8.07427668 50.3949675 -8.12866208 44.79022289 -8.16479492 39.18481445 C-8.17986128 37.27883919 -8.20031824 35.37289848 -8.22631836 33.46704102 C-8.26279642 30.72403424 -8.27974792 27.98148672 -8.29296875 25.23828125 C-8.30845261 24.38913651 -8.32393646 23.53999176 -8.33988953 22.66511536 C-8.34121371 17.98736087 -8.13755809 14.75448563 -5 11 C-4.34 11 -3.68 11 -3 11 C-2.01 7.37 -1.02 3.74 0 0 Z " fill="#727AC2" transform="translate(120,80)"/>
<path d="M0 0 C2.09821215 -0.39938767 2.09821215 -0.39938767 4 -1 C4.66 0.65 5.32 2.3 6 4 C7.98 4 9.96 4 12 4 C12 3.01 12 2.02 12 1 C12.99 1 13.98 1 15 1 C15.33 1.66 15.66 2.32 16 3 C17.32 2.67 18.64 2.34 20 2 C20 4.64 20 7.28 20 10 C20.33 8.35 20.66 6.7 21 5 C21.66 5 22.32 5 23 5 C23 7.31 23 9.62 23 12 C20.36 12 17.72 12 15 12 C15 12.99 15 13.98 15 15 C12.27076612 15.0270817 9.54180363 15.04687847 6.8125 15.0625 C6.04357422 15.07087891 5.27464844 15.07925781 4.48242188 15.08789062 C0.51473211 15.10491934 -3.12571234 14.98604115 -7 14 C-7 11.69 -7 9.38 -7 7 C-6.34 7 -5.68 7 -5 7 C-4.67 8.65 -4.34 10.3 -4 12 C-2.02 12 -0.04 12 2 12 C0.68 11.67 -0.64 11.34 -2 11 C-2 10.34 -2 9.68 -2 9 C-0.68 9 0.64 9 2 9 C1.67 7.68 1.34 6.36 1 5 C-2.63 4.67 -6.26 4.34 -10 4 C-10.33 4.99 -10.66 5.98 -11 7 C-13 4 -13 4 -13 0 C-11.20909747 -0.19466332 -9.41723495 -0.38051213 -7.625 -0.5625 C-6.12839844 -0.71912109 -6.12839844 -0.71912109 -4.6015625 -0.87890625 C-2 -1 -2 -1 0 0 Z " fill="#F1EFEB" transform="translate(84,161)"/>
<path d="M0 0 C0.33 0 0.66 0 1 0 C1 11.55 1 23.1 1 35 C-9 37 -9 37 -13 37 C-13 29.08 -13 21.16 -13 13 C-12.67 13.66 -12.34 14.32 -12 15 C-10.906875 14.773125 -9.81375 14.54625 -8.6875 14.3125 C-5 14 -5 14 -3.0625 15.4375 C-2.711875 15.953125 -2.36125 16.46875 -2 17 C0.05922402 14.94077598 -0.58572421 10.78291876 -0.4375 7.9375 C-0.39431641 7.17888672 -0.35113281 6.42027344 -0.30664062 5.63867188 C-0.20026367 3.75934562 -0.09960066 1.87969756 0 0 Z " fill="#737BC5" transform="translate(109,103)"/>
<path d="M0 0 C5.00147987 0 6.81156072 0.02896975 11 2 C11.1465954 5.66623812 11.23449874 9.331712 11.3125 13 C11.3753418 14.54494141 11.3753418 14.54494141 11.43945312 16.12109375 C11.5513584 23.14874514 10.47368251 27.51255179 6 33 C4.35 32.67 2.7 32.34 1 32 C0.67 21.44 0.34 10.88 0 0 Z " fill="#727BC4" transform="translate(125,40)"/>
<path d="M0 0 C3.95860098 0.1403124 7.91678516 0.28698899 11.875 0.4375 C13.56689453 0.49647461 13.56689453 0.49647461 15.29296875 0.55664062 C16.36933594 0.59853516 17.44570312 0.64042969 18.5546875 0.68359375 C19.54968262 0.72025146 20.54467773 0.75690918 21.56982422 0.79467773 C24 1 24 1 26 2 C25.99476318 2.59425781 25.98952637 3.18851562 25.98413086 3.80078125 C25.96314409 6.5338431 25.95027155 9.2668879 25.9375 12 C25.92912109 12.93457031 25.92074219 13.86914062 25.91210938 14.83203125 C25.89291108 20.32274401 26.1865807 25.56866481 27 31 C26.34 31 25.68 31 25 31 C24.67 31.99 24.34 32.98 24 34 C24 30.37 24 26.74 24 23 C22.9378125 23.01160156 21.875625 23.02320312 20.78125 23.03515625 C19.35416844 23.04454494 17.92708496 23.05364398 16.5 23.0625 C15.80390625 23.07087891 15.1078125 23.07925781 14.390625 23.08789062 C13.69453125 23.09111328 12.9984375 23.09433594 12.28125 23.09765625 C11.65283203 23.10289307 11.02441406 23.10812988 10.37695312 23.11352539 C6.90207183 22.94756198 3.45197827 22.43149728 0 22 C0 14.74 0 7.48 0 0 Z M7 2 C7 7.28 7 12.56 7 18 C6.34 18.33 5.68 18.66 5 19 C6.98567708 19.1953125 8.97135417 19.390625 10.95703125 19.5859375 C13 20 13 20 16 22 C18.64 22 21.28 22 24 22 C24 15.4 24 8.8 24 2 C18.39 2 12.78 2 7 2 Z " fill="#4174B8" transform="translate(48,94)"/>
<path d="M0 0 C1.9375 0.3125 1.9375 0.3125 4 1 C4.33 1.99 4.66 2.98 5 4 C6.32 4 7.64 4 9 4 C10.36578843 26.68409491 10.36578843 26.68409491 3.62890625 35.3671875 C3.09136719 35.90601563 2.55382812 36.44484375 2 37 C1.67 37 1.34 37 1 37 C0.17362576 24.64865646 -0.12350504 12.3779494 0 0 Z " fill="#7279C5" transform="translate(137,22)"/>
<path d="M0 0 C16.875 1.125 16.875 1.125 22.9375 2.5625 C24.68353516 2.96662109 24.68353516 2.96662109 26.46484375 3.37890625 C27.71974609 3.68634766 27.71974609 3.68634766 29 4 C28.88202982 8.39675988 28.75780274 12.79328399 28.62768555 17.18969727 C28.58428187 18.68639269 28.54261087 20.18313939 28.50268555 21.67993164 C28.44511384 23.82714312 28.38138284 25.97409521 28.31640625 28.12109375 C28.27974854 29.4145874 28.24309082 30.70808105 28.20532227 32.04077148 C28 35 28 35 27 36 C20.71257794 36.34295029 15.11356469 35.38905677 9 34 C6.03 33.34 3.06 32.68 0 32 C0 21.44 0 10.88 0 0 Z M3 2 C1.64299353 4.71401294 1.8876139 6.84846316 1.90234375 9.8828125 C1.90556641 11.04941406 1.90878906 12.21601563 1.91210938 13.41796875 C1.92048828 14.64128906 1.92886719 15.86460937 1.9375 17.125 C1.94201172 18.35605469 1.94652344 19.58710938 1.95117188 20.85546875 C1.96298659 23.90366639 1.9809225 26.95183916 2 30 C7.94 30.99 7.94 30.99 14 32 C14 32.66 14 33.32 14 34 C15.97909398 34.02686553 17.95828971 34.04633375 19.9375 34.0625 C21.03964844 34.07410156 22.14179687 34.08570313 23.27734375 34.09765625 C25.91447634 34.31262571 25.91447634 34.31262571 27 33 C27.08726223 31.21928754 27.10699041 29.4351686 27.09765625 27.65234375 C27.09282227 26.03295898 27.09282227 26.03295898 27.08789062 24.38085938 C27.07951172 23.24455078 27.07113281 22.10824219 27.0625 20.9375 C27.05798828 19.79732422 27.05347656 18.65714844 27.04882812 17.48242188 C27.03699747 14.65489649 27.0205141 11.8274736 27 9 C26.34 9 25.68 9 25 9 C25 7.68 25 6.36 25 5 C23.02 5 21.04 5 19 5 C19 5.66 19 6.32 19 7 C18.01 6.67 17.02 6.34 16 6 C16.33 5.34 16.66 4.68 17 4 C12.38 3.34 7.76 2.68 3 2 Z " fill="#4277BF" transform="translate(21,119)"/>
<path d="M0 0 C0.33 0.66 0.66 1.32 1 2 C1.99 2.33 2.98 2.66 4 3 C4 3.99 4 4.98 4 6 C6.31 6 8.62 6 11 6 C12.35439668 8.70879335 12.06501451 11.00933268 12 14 C11.34 14 10.68 14 10 14 C10 11.69 10 9.38 10 7 C9.01 7 8.02 7 7 7 C7 9.31 7 11.62 7 14 C3.25 15.125 3.25 15.125 1 14 C0.34 14.66 -0.32 15.32 -1 16 C-1 15.34 -1 14.68 -1 14 C-1.8971875 14.2784375 -1.8971875 14.2784375 -2.8125 14.5625 C-5 15 -5 15 -8 14 C-8.33 12.35 -8.66 10.7 -9 9 C-9.33 10.32 -9.66 11.64 -10 13 C-10.66 13 -11.32 13 -12 13 C-11.67 9.7 -11.34 6.4 -11 3 C-9.948125 2.814375 -9.948125 2.814375 -8.875 2.625 C-5.82343613 1.96161655 -2.94659062 1.02788045 0 0 Z " fill="#F2ECE5" transform="translate(37,160)"/>
<path d="M0 0 C2.31 0 4.62 0 7 0 C6.67 9.9 6.34 19.8 6 30 C-1.59 30 -9.18 30 -17 30 C-16.505 28.515 -16.505 28.515 -16 27 C-10.39 27.33 -4.78 27.66 1 28 C0.67 27.01 0.34 26.02 0 25 C-0.08266486 23.08093083 -0.10740663 21.15910526 -0.09765625 19.23828125 C-0.09443359 18.12001953 -0.09121094 17.00175781 -0.08789062 15.84960938 C-0.07951172 14.68236328 -0.07113281 13.51511719 -0.0625 12.3125 C-0.05798828 11.13365234 -0.05347656 9.95480469 -0.04882812 8.74023438 C-0.03703273 5.82677211 -0.0205727 2.91341137 0 0 Z " fill="#EDF4F7" transform="translate(64,64)"/>
<path d="M0 0 C0.66 0 1.32 0 2 0 C0.70282079 8.30194697 -3.17597803 15.62402086 -7 23 C-11.85911178 23.25915263 -13.23934986 22.00852011 -17 19 C-19.7104607 18.66407492 -19.7104607 18.66407492 -22 19 C-22 19.66 -22 20.32 -22 21 C-23.65 21.66 -25.3 22.32 -27 23 C-26.58525633 17.71201818 -25.64775386 14.88309282 -22 11 C-19.09540975 11.40341531 -17.30115 11.77185606 -14.9375 13.5625 C-12.86669005 15.39723128 -12.86669005 15.39723128 -9 15 C-8.43410156 14.00097656 -7.86820313 13.00195312 -7.28515625 11.97265625 C-6.5443558 10.66922254 -5.80346575 9.36583975 -5.0625 8.0625 C-4.68931641 7.40314453 -4.31613281 6.74378906 -3.93164062 6.06445312 C-1.11328125 1.11328125 -1.11328125 1.11328125 0 0 Z " fill="#CF3548" transform="translate(141,59)"/>
<path d="M0 0 C0.33 0 0.66 0 1 0 C1 7.26 1 14.52 1 22 C6.04018722 22.28796945 6.04018722 22.28796945 11.08081055 22.56811523 C14.80343045 22.79074758 18.35644339 23.14480624 22 24 C21.67 24.66 21.34 25.32 21 26 C18.78515625 26.37890625 18.78515625 26.37890625 16.0625 26.5625 C12.39324879 26.76801323 12.39324879 26.76801323 9 28 C-2.93861928 28.80104284 -14.28720208 27.13885875 -26 25 C-26 24.67 -26 24.34 -26 24 C-13.13 23.01 -13.13 23.01 0 22 C0 14.74 0 7.48 0 0 Z " fill="#8FA2CE" transform="translate(47,94)"/>
<path d="M0 0 C3.63 0 7.26 0 11 0 C11 4.95 11 9.9 11 15 C9.02 15.66 7.04 16.32 5 17 C4.67 17.66 4.34 18.32 4 19 C3.34 19 2.68 19 2 19 C2 19.99 2 20.98 2 22 C1.34 22 0.68 22 0 22 C0 14.74 0 7.48 0 0 Z " fill="#6F7BC6" transform="translate(112,50)"/>
<path d="M0 0 C-0.33 0.99 -0.66 1.98 -1 3 C-4.73567172 3.76411467 -7.34811918 4.07174763 -11 3 C-10.98839844 4.05960938 -10.97679688 5.11921875 -10.96484375 6.2109375 C-10.95546524 7.59895658 -10.94636511 8.98697755 -10.9375 10.375 C-10.92912109 11.07367188 -10.92074219 11.77234375 -10.91210938 12.4921875 C-10.88671875 17.7734375 -10.88671875 17.7734375 -12 20 C-17.44172868 22.10008461 -24.3388064 21.05241846 -30 21 C-30 28.26 -30 35.52 -30 43 C-18.95520901 43.12426607 -18.95520901 43.12426607 -8 42 C-6.93276039 45.46222615 -6.89826514 48.64039266 -6.9375 52.25 C-6.94652344 53.32765625 -6.95554687 54.4053125 -6.96484375 55.515625 C-6.97644531 56.33546875 -6.98804687 57.1553125 -7 58 C-7.66 58 -8.32 58 -9 58 C-9.33 54.04 -9.66 50.08 -10 46 C-16.93 45.67 -23.86 45.34 -31 45 C-31 36.42 -31 27.84 -31 19 C-25.06 19 -19.12 19 -13 19 C-13 13.06 -13 7.12 -13 1 C-8.3736134 0.33908763 -4.56428209 -0.11132395 0 0 Z " fill="#3E68AA" transform="translate(102,48)"/>
<path d="M0 0 C0.495 0.99 0.495 0.99 1 2 C-0.26984454 4.39924544 -1.5864255 6.68859869 -3 9 C-4.29224958 11.24966526 -5.58391113 13.4996684 -6.875 15.75 C-7.39380737 16.64755005 -7.39380737 16.64755005 -7.9230957 17.56323242 C-10.63446591 22.27917603 -13.11319592 27.08924231 -15.48046875 31.98828125 C-17 34 -17 34 -19.484375 34.91796875 C-23.15400494 35.0376306 -25.02950085 33.02246751 -28 31 C-30.08938423 31.03920149 -30.08938423 31.03920149 -32 32 C-33.27069944 33.58110089 -33.27069944 33.58110089 -34.140625 35.59765625 C-34.48867187 36.31630859 -34.83671875 37.03496094 -35.1953125 37.77539062 C-35.54335937 38.53013672 -35.89140625 39.28488281 -36.25 40.0625 C-36.61351563 40.82111328 -36.97703125 41.57972656 -37.3515625 42.36132812 C-38.24708794 44.23486161 -39.12522601 46.11668803 -40 48 C-40.66 48 -41.32 48 -42 48 C-42.10441406 48.54269531 -42.20882812 49.08539063 -42.31640625 49.64453125 C-43.16560063 52.57061245 -44.47790791 55.01455507 -45.9375 57.6875 C-46.72447266 59.14736328 -46.72447266 59.14736328 -47.52734375 60.63671875 C-49 63 -49 63 -51 64 C-48.8596595 56.74662387 -45.74246091 50.55490907 -42 44 C-41.67 43.34 -41.34 42.68 -41 42 C-40.34 42 -39.68 42 -39 42 C-39.061875 41.236875 -39.12375 40.47375 -39.1875 39.6875 C-38.96099804 36.44097185 -38.35484791 36.09319814 -36 34 C-35.2884375 32.7315625 -35.2884375 32.7315625 -34.5625 31.4375 C-32.87625561 28.80695875 -32.00382725 27.81922561 -29 27 C-26.30066074 27.92548775 -25.28813232 28.42373537 -24 31 C-21.47266765 31.65555119 -21.47266765 31.65555119 -19 32 C-16.68336156 28.06171464 -14.56641751 24.30764815 -13 20 C-12.34 20 -11.68 20 -11 20 C-10.7525 19.13375 -10.505 18.2675 -10.25 17.375 C-9 14 -9 14 -6.9375 10.9375 C-5.07831896 8.11874165 -4.38898461 6.30636921 -4 3 C-3.01 3 -2.02 3 -1 3 C-0.67 2.01 -0.34 1.02 0 0 Z " fill="#74294A" transform="translate(150,40)"/>
<path d="M0 0 C0.33 0.66 0.66 1.32 1 2 C1.61875 1.835 2.2375 1.67 2.875 1.5 C5 1 5 1 7 1 C7.61875 0.814375 8.2375 0.62875 8.875 0.4375 C12.03202245 -0.21247521 14.16871008 0.58435504 17 2 C16.67 3.32 16.34 4.64 16 6 C13.69 6.33 11.38 6.66 9 7 C9 6.34 9 5.68 9 5 C8.01 5 7.02 5 6 5 C6 7.31 6 9.62 6 12 C5.01 11.67 4.02 11.34 3 11 C2.67 11.66 2.34 12.32 2 13 C-0.97 13 -3.94 13 -7 13 C-7.02688151 11.35425434 -7.04634123 9.70838587 -7.0625 8.0625 C-7.07410156 7.14597656 -7.08570312 6.22945312 -7.09765625 5.28515625 C-7 3 -7 3 -6 2 C-4.00041636 1.95919217 -1.99954746 1.95745644 0 2 C0 1.34 0 0.68 0 0 Z " fill="#F0EAE7" transform="translate(120,160)"/>
<path d="M0 0 C-1.98 0.99 -1.98 0.99 -4 2 C-4 2.66 -4 3.32 -4 4 C-3.34 4.33 -2.68 4.66 -2 5 C-2.99 5.495 -2.99 5.495 -4 6 C-1.3333581 7.33332095 0.16680303 6.67102033 3 6 C3.99 7.485 3.99 7.485 5 9 C4.195625 9.12375 3.39125 9.2475 2.5625 9.375 C1.716875 9.58125 0.87125 9.7875 0 10 C-0.33 10.66 -0.66 11.32 -1 12 C-1.99 11.67 -2.98 11.34 -4 11 C-4.33 10.34 -4.66 9.68 -5 9 C-6.65 9 -8.3 9 -10 9 C-9.67 9.66 -9.34 10.32 -9 11 C-8.86584528 13.6723621 -8.95681459 16.32250488 -9 19 C-8.34 19.33 -7.68 19.66 -7 20 C-7.66 20 -8.32 20 -9 20 C-9.33 20.66 -9.66 21.32 -10 22 C-10.78375 21.814375 -11.5675 21.62875 -12.375 21.4375 C-14.97089775 20.74037734 -14.97089775 20.74037734 -17 22 C-16.505 17.545 -16.505 17.545 -16 13 C-15.01 13 -14.02 13 -13 13 C-13 15.31 -13 17.62 -13 20 C-12.34 20 -11.68 20 -11 20 C-11.33 17.36 -11.66 14.72 -12 12 C-13.98 12 -15.96 12 -18 12 C-18 11.67 -18 11.34 -18 11 C-16.824375 10.7834375 -16.824375 10.7834375 -15.625 10.5625 C-13.03578982 10.12201075 -13.03578982 10.12201075 -11 9 C-10.67 7.02 -10.34 5.04 -10 3 C-14.62 3 -19.24 3 -24 3 C-20.15419085 1.07709542 -19.23816386 0.79678146 -15.25 1 C-11.77431685 1.08740623 -8.85347007 0.86154011 -5.5 -0.0625 C-2 -1 -2 -1 0 0 Z " fill="#EDF1F3" transform="translate(60,154)"/>
<path d="M0 0 C1.16154433 9.35548204 1.9298325 17.50084072 -3 26 C-3.99 26.66 -4.98 27.32 -6 28 C-6 22.39 -6 16.78 -6 11 C-6.66 10.67 -7.32 10.34 -8 10 C-8 7.03 -8 4.06 -8 1 C-5.29120665 -0.35439668 -2.99066732 -0.06501451 0 0 Z " fill="#737ABF" transform="translate(154,14)"/>
<path d="M0 0 C0.33 0.99 0.66 1.98 1 3 C-0.265625 5.20703125 -0.265625 5.20703125 -2.25 7.8125 C-2.97960937 8.77671875 -3.70921875 9.7409375 -4.4609375 10.734375 C-5.30602605 11.82389952 -6.15246252 12.91237941 -7 14 C-7.70817871 14.91555664 -7.70817871 14.91555664 -8.43066406 15.84960938 C-17.28082675 27.28082675 -17.28082675 27.28082675 -20 30 C-22.125 29.625 -22.125 29.625 -24 29 C-23.1875 26.5625 -23.1875 26.5625 -22 24 C-21.01 23.67 -20.02 23.34 -19 23 C-17.29144978 19.99992729 -17.29144978 19.99992729 -16 17 C-15.34 17 -14.68 17 -14 17 C-14 16.01 -14 15.02 -14 14 C-13.34 14 -12.68 14 -12 14 C-11.72929688 13.42507812 -11.45859375 12.85015625 -11.1796875 12.2578125 C-9.98284565 9.96716817 -8.65329343 7.95759674 -7.125 5.875 C-6.63257812 5.19179687 -6.14015625 4.50859375 -5.6328125 3.8046875 C-3.88955029 1.877924 -2.37803241 0.99856772 0 0 Z " fill="#D63447" transform="translate(88,112)"/>
<path d="M0 0 C0.99 0 1.98 0 3 0 C3 22.77 3 45.54 3 69 C2.34 69 1.68 69 1 69 C1 47.22 1 25.44 1 3 C0.34 3 -0.32 3 -1 3 C-0.67 2.01 -0.34 1.02 0 0 Z " fill="#3A427F" transform="translate(145,59)"/>
<path d="M0 0 C0.33 0 0.66 0 1 0 C1 5.94 1 11.88 1 18 C-4.94 18 -10.88 18 -17 18 C-17 26.58 -17 35.16 -17 44 C-11.21125619 43.96052381 -11.21125619 43.96052381 -5.42260742 43.90991211 C-4.69920166 43.90741455 -3.9757959 43.90491699 -3.23046875 43.90234375 C-2.49207764 43.89710693 -1.75368652 43.89187012 -0.99291992 43.88647461 C1 44 1 44 4 45 C4 45.66 4 46.32 4 47 C3.34 47 2.68 47 2 47 C2 48.65 2 50.3 2 52 C1.67 52 1.34 52 1 52 C0.67 50.35 0.34 48.7 0 47 C-0.969375 47.01160156 -1.93875 47.02320313 -2.9375 47.03515625 C-12.66831329 47.11347265 -22.2970481 46.72256025 -32 46 C-32 45.67 -32 45.34 -32 45 C-27.38 45 -22.76 45 -18 45 C-18 35.76 -18 26.52 -18 17 C-12.06 17 -6.12 17 0 17 C0 11.39 0 5.78 0 0 Z " fill="#7B9CCC" transform="translate(88,49)"/>
<path d="M0 0 C0.495 0.99 0.495 0.99 1 2 C0.67 2.66 0.34 3.32 0 4 C-2.97 4 -5.94 4 -9 4 C-9.66 5.32 -10.32 6.64 -11 8 C-12.65759645 10.07958023 -14.32994246 12.11062617 -16.0625 14.125 C-19.36410547 17.83107268 -19.36410547 17.83107268 -22 22 C-22.66 22 -23.32 22 -24 22 C-24 22.99 -24 23.98 -24 25 C-24.66 25 -25.32 25 -26 25 C-26.2475 25.969375 -26.495 26.93875 -26.75 27.9375 C-27.1625 28.948125 -27.575 29.95875 -28 31 C-30.125 31.875 -30.125 31.875 -32 32 C-32.495 34.475 -32.495 34.475 -33 37 C-29.40094092 36.44449305 -28.00090201 35.25112752 -25.75 32.4375 C-24.96882813 31.47650391 -24.96882813 31.47650391 -24.171875 30.49609375 C-23.78515625 30.00238281 -23.3984375 29.50867188 -23 29 C-23 33.13436781 -24.24495913 35.06270788 -26.8125 38.25 C-29 40 -29 40 -31.625 40.375 C-34 40 -34 40 -36 38 C-35.625 35.375 -35.625 35.375 -35 33 C-34.34 33 -33.68 33 -33 33 C-32.938125 32.443125 -32.87625 31.88625 -32.8125 31.3125 C-31.6519231 28.00931958 -29.59786554 26.28105267 -27 24 C-26.34 24 -25.68 24 -25 24 C-25 23.01 -25 22.02 -25 21 C-24.34 21 -23.68 21 -23 21 C-22.690625 20.21625 -22.38125 19.4325 -22.0625 18.625 C-21 16 -21 16 -20 14 C-19.34 14 -18.68 14 -18 14 C-17.690625 13.38125 -17.38125 12.7625 -17.0625 12.125 C-16.375 10.75 -15.6875 9.375 -15 8 C-14.34 8 -13.68 8 -13 8 C-12.690625 7.38125 -12.38125 6.7625 -12.0625 6.125 C-11.375 4.75 -10.6875 3.375 -10 2 C-7.96875 1.62109375 -7.96875 1.62109375 -5.5 1.4375 C-2.45018475 1.4207737 -2.45018475 1.4207737 0 0 Z " fill="#762646" transform="translate(98,104)"/>
<path d="M0 0 C0.33 0 0.66 0 1 0 C0.67 2.97 0.34 5.94 0 9 C-0.66 9 -1.32 9 -2 9 C-2.33 37.05 -2.66 65.1 -3 94 C-13.125 97.375 -13.125 97.375 -17 97 C-14.47519307 94.47519307 -12.86176966 94.44261367 -9.375 93.875 C-8.37210938 93.70742187 -7.36921875 93.53984375 -6.3359375 93.3671875 C-5.17964844 93.18542969 -5.17964844 93.18542969 -4 93 C-4.01332367 91.42931763 -4.01332367 91.42931763 -4.0269165 89.8269043 C-4.10813883 79.94020832 -4.16803086 70.05358038 -4.20724869 60.16662598 C-4.22808911 55.08408663 -4.25634194 50.00181747 -4.30175781 44.91943359 C-4.34534205 40.0110917 -4.36916376 35.10300906 -4.37950897 30.19448853 C-4.38687779 28.32544883 -4.40126737 26.4564227 -4.42292023 24.5874939 C-4.45212176 21.96166753 -4.45594907 19.33690111 -4.45410156 16.7109375 C-4.47567322 15.56186165 -4.47567322 15.56186165 -4.49768066 14.38957214 C-4.45427112 8.65653107 -2.83850938 4.97492638 0 0 Z " fill="#E2E6F4" transform="translate(159,33)"/>
<path d="M0 0 C0.99 0 1.98 0 3 0 C3.33 0.66 3.66 1.32 4 2 C5.32 1.67 6.64 1.34 8 1 C8 3.64 8 6.28 8 9 C8.33 7.35 8.66 5.7 9 4 C9.66 4 10.32 4 11 4 C11 6.31 11 8.62 11 11 C8.52076199 11.02685095 6.0418116 11.04676547 3.5625 11.0625 C2.85544922 11.07087891 2.14839844 11.07925781 1.41992188 11.08789062 C-0.38693559 11.09653588 -2.19387603 11.05220011 -4 11 C-5 10 -5 10 -5.1875 7.5625 C-5 5 -5 5 -3 3 C-2.01 3 -1.02 3 0 3 C0 2.01 0 1.02 0 0 Z " fill="#E9C6C6" transform="translate(96,162)"/>
<path d="M0 0 C4 3 4 3 4.4430542 5.41081238 C4.41640686 6.36345474 4.38975952 7.31609711 4.36230469 8.29760742 C4.34198181 9.37850143 4.32165894 10.45939545 4.30072021 11.57304382 C4.25820129 12.73874405 4.21568237 13.90444427 4.171875 15.10546875 C4.14401917 16.29981033 4.11616333 17.49415192 4.08746338 18.72468567 C3.99395512 22.54639088 3.87230275 26.36661825 3.75 30.1875 C3.68174139 32.77534243 3.61531182 35.3632338 3.55078125 37.95117188 C3.38842172 44.30150193 3.20293778 50.65084424 3 57 C2.01 57 1.02 57 0 57 C0 38.19 0 19.38 0 0 Z " fill="#4C5194" transform="translate(123,77)"/>
<path d="M0 0 C0.99 0 1.98 0 3 0 C3.66 1.32 4.32 2.64 5 4 C5.33 3.34 5.66 2.68 6 2 C9.63 2 13.26 2 17 2 C17.33 3.65 17.66 5.3 18 7 C16.68 7 15.36 7 14 7 C14 7.66 14 8.32 14 9 C15.32 8.67 16.64 8.34 18 8 C18 8.66 18 9.32 18 10 C16.02 10 14.04 10 12 10 C11.67 8.35 11.34 6.7 11 5 C10.01 5 9.02 5 8 5 C8 6.65 8 8.3 8 10 C7.34 10 6.68 10 6 10 C6 9.01 6 8.02 6 7 C4.35 7.33 2.7 7.66 1 8 C1.99 8.66 2.98 9.32 4 10 C2.35 10 0.7 10 -1 10 C-2.125 5.25 -2.125 5.25 -1 3 C-0.34 3 0.32 3 1 3 C0.67 2.01 0.34 1.02 0 0 Z " fill="#DA8F96" transform="translate(68,163)"/>
<path d="M0 0 C0.33 0 0.66 0 1 0 C1 18.15 1 36.3 1 55 C0.34 55 -0.32 55 -1 55 C-1.19344107 47.64964128 -1.37088625 40.29902235 -1.53710938 32.94799805 C-1.59557968 30.44628112 -1.65773863 27.94464762 -1.72363281 25.44311523 C-1.81760428 21.85155422 -1.8983925 18.25990405 -1.9765625 14.66796875 C-2.00875885 13.54601608 -2.0409552 12.42406342 -2.0741272 11.26811218 C-2.10438492 9.70683342 -2.10438492 9.70683342 -2.13525391 8.11401367 C-2.15746002 7.19690109 -2.17966614 6.27978851 -2.20254517 5.33488464 C-2 3 -2 3 0 0 Z " fill="#4A5397" transform="translate(137,75)"/>
<path d="M0 0 C1.98567708 0.29296875 3.97135417 0.5859375 5.95703125 0.87890625 C8.2025342 1.13904799 8.2025342 1.13904799 11 0 C11 4.62 11 9.24 11 14 C10.01 14.495 10.01 14.495 9 15 C9 11.04 9 7.08 9 3 C7.700625 3.5775 6.40125 4.155 5.0625 4.75 C4.33160156 5.07484375 3.60070312 5.3996875 2.84765625 5.734375 C0.85762762 6.84160099 0.85762762 6.84160099 0.2734375 8.87890625 C0.00249066 10.98067962 -0.24349317 13.07718081 -0.4375 15.1875 C-0.623125 16.445625 -0.80875 17.70375 -1 19 C-1.66 19.33 -2.32 19.66 -3 20 C-3 15.38 -3 10.76 -3 6 C-8.94 6 -14.88 6 -21 6 C-21 5.67 -21 5.34 -21 5 C-11.1 4.505 -11.1 4.505 -1 4 C-0.67 2.68 -0.34 1.36 0 0 Z " fill="#F5F3F0" transform="translate(157,8)"/>
<path d="M0 0 C1.29323107 3.87969321 0.37968538 4.89368531 -1.375 8.5 C-2.73970943 11.3361559 -4.00401313 14.01203938 -5 17 C-5.66 17 -6.32 17 -7 17 C-7.10957031 17.63808594 -7.21914062 18.27617188 -7.33203125 18.93359375 C-7.49058594 19.75988281 -7.64914063 20.58617188 -7.8125 21.4375 C-7.96332031 22.26121094 -8.11414063 23.08492187 -8.26953125 23.93359375 C-8.51058594 24.61550781 -8.75164062 25.29742187 -9 26 C-9.99 26.33 -10.98 26.66 -12 27 C-12.69658363 28.65438613 -13.36096883 30.32254318 -14 32 C-15.625 33.8125 -15.625 33.8125 -17 35 C-16.30058404 31.85262818 -15.23921302 28.97411124 -14 26 C-14.66 25.67 -15.32 25.34 -16 25 C-13.69 20.71 -11.38 16.42 -9 12 C-8.01 12 -7.02 12 -6 12 C-6 11.34 -6 10.68 -6 10 C-5.34 10 -4.68 10 -4 10 C-3.71125 9.278125 -3.4225 8.55625 -3.125 7.8125 C-2.08333333 5.20833333 -1.04166667 2.60416667 0 0 Z " fill="#B03448" transform="translate(157,33)"/>
<path d="M0 0 C0.99 0.33 1.98 0.66 3 1 C3 7.6 3 14.2 3 21 C2.67 20.34 2.34 19.68 2 19 C-0.88006394 18.07542341 -0.88006394 18.07542341 -4 18 C-7.22094333 20.02800135 -8.43122755 23.63834476 -10 27 C-10.33 27 -10.66 27 -11 27 C-11 25.35 -11 23.7 -11 22 C-10.34 22 -9.68 22 -9 22 C-9 21.01 -9 20.02 -9 19 C-8.34 19 -7.68 19 -7 19 C-6.34 17.68 -5.68 16.36 -5 15 C-3.35 15 -1.7 15 0 15 C0 10.05 0 5.1 0 0 Z " fill="#6465A4" transform="translate(123,50)"/>
<path d="M0 0 C3.96 0 7.92 0 12 0 C11.67 0.66 11.34 1.32 11 2 C10.81295596 4.69013339 10.91418609 7.29686177 11 10 C11.33 10.33 11.66 10.66 12 11 C12.15582303 12.34015221 12.25044142 13.68758903 12.31640625 15.03515625 C12.37924805 16.24848633 12.37924805 16.24848633 12.44335938 17.48632812 C12.48267578 18.33646484 12.52199219 19.18660156 12.5625 20.0625 C12.60568359 20.91650391 12.64886719 21.77050781 12.69335938 22.65039062 C12.79976702 24.76672037 12.90041731 26.88333813 13 29 C12.01 29 11.02 29 10 29 C10 23.39 10 17.78 10 12 C8.68 12 7.36 12 6 12 C5.34 10.68 4.68 9.36 4 8 C5.32 8 6.64 8 8 8 C8 5.69 8 3.38 8 1 C5.36 1.33 2.72 1.66 0 2 C0 1.34 0 0.68 0 0 Z " fill="#405A97" transform="translate(136,14)"/>
<path d="M0 0 C0.99 0.33 1.98 0.66 3 1 C2.67 10.57 2.34 20.14 2 30 C4.97 30.33 7.94 30.66 11 31 C11.99 31.33 12.98 31.66 14 32 C14 32.66 14 33.32 14 34 C12.60386935 33.85704109 11.20810692 33.71048442 9.8125 33.5625 C9.03519531 33.48128906 8.25789063 33.40007812 7.45703125 33.31640625 C4.95359214 32.99402379 2.47509476 32.49501895 0 32 C0 21.44 0 10.88 0 0 Z " fill="#4D7BAB" transform="translate(21,119)"/>
<path d="M0 0 C2.56280208 0.14154136 5.12515485 0.28808562 7.6875 0.4375 C8.40873047 0.47681641 9.12996094 0.51613281 9.87304688 0.55664062 C13.66707282 0.78185678 17.28651492 1.12839305 21 2 C20.67 2.66 20.34 3.32 20 4 C17.78515625 4.37890625 17.78515625 4.37890625 15.0625 4.5625 C11.39324879 4.76801323 11.39324879 4.76801323 8 6 C5.28239892 6.07181821 2.59140612 6.09299506 -0.125 6.0625 C-0.87910156 6.05798828 -1.63320313 6.05347656 -2.41015625 6.04882812 C-4.27347127 6.03703499 -6.13674555 6.01909942 -8 6 C-8 5.67 -8 5.34 -8 5 C-5.36 5 -2.72 5 0 5 C-0.33 4.01 -0.66 3.02 -1 2 C-0.67 1.34 -0.34 0.68 0 0 Z " fill="#8291D0" transform="translate(48,116)"/>
<path d="M0 0 C0.33 0 0.66 0 1 0 C1 3.96 1 7.92 1 12 C-2.24651807 13.03325529 -5.49642621 14.05192026 -8.75 15.0625 C-9.67039062 15.35705078 -10.59078125 15.65160156 -11.5390625 15.95507812 C-12.42851563 16.22900391 -13.31796875 16.50292969 -14.234375 16.78515625 C-15.05131836 17.04176025 -15.86826172 17.29836426 -16.70996094 17.56274414 C-19.17868071 18.03411697 -20.6419054 17.79786936 -23 17 C-21.02 16.67 -19.04 16.34 -17 16 C-17 15.34 -17 14.68 -17 14 C-10.07 12.515 -10.07 12.515 -3 11 C-3 10.34 -3 9.68 -3 9 C-4.98 9 -6.96 9 -9 9 C-9 8.01 -9 7.02 -9 6 C-7.35 6.33 -5.7 6.66 -4 7 C-3.34 5.68 -2.68 4.36 -2 3 C-1.34 3 -0.68 3 0 3 C0 2.01 0 1.02 0 0 Z " fill="#787FAF" transform="translate(73,137)"/>
<path d="M0 0 C2 1.125 2 1.125 4 3 C4.90340027 7.31624575 3.73788564 9.77270545 1.5 13.375 C0.6794958 14.59208124 -0.14971836 15.80353227 -1 17 C-2.65 16.67 -4.3 16.34 -6 16 C-6.125 13.125 -6.125 13.125 -6 10 C-4.66666667 8.66666667 -3.33333333 7.33333333 -2 6 C-1.67 6.33 -1.34 6.66 -1 7 C-1.020625 6.030625 -1.04125 5.06125 -1.0625 4.0625 C-1 1 -1 1 0 0 Z " fill="#7979BB" transform="translate(132,56)"/>
<path d="M0 0 C0.33 0.99 0.66 1.98 1 3 C3.64 2.67 6.28 2.34 9 2 C10.06546953 5.1964086 10.07427838 7.65747276 10 11 C9.01 11 8.02 11 7 11 C6.67 9.02 6.34 7.04 6 5 C5.34 5 4.68 5 4 5 C4.33 6.98 4.66 8.96 5 11 C3.35 11 1.7 11 0 11 C0.33 10.01 0.66 9.02 1 8 C0.67 7.67 0.34 7.34 0 7 C-0.04063832 5.33382885 -0.042721 3.66611905 0 2 C-0.99 2.495 -0.99 2.495 -2 3 C-2 5.64 -2 8.28 -2 11 C-2.66 11 -3.32 11 -4 11 C-4.33 7.7 -4.66 4.4 -5 1 C-3.35 0.67 -1.7 0.34 0 0 Z " fill="#D4929C" transform="translate(55,162)"/>
<path d="M0 0 C0.33 0 0.66 0 1 0 C1 14.85 1 29.7 1 45 C0.34 45 -0.32 45 -1 45 C-1.19248585 39.23455425 -1.37117352 33.4689078 -1.53710938 27.70263672 C-1.59549342 25.7412572 -1.65764082 23.77998594 -1.72363281 21.81884766 C-1.81785821 18.99922393 -1.89852438 16.17948743 -1.9765625 13.359375 C-2.00875885 12.48319519 -2.0409552 11.60701538 -2.0741272 10.70428467 C-2.09429901 9.88373596 -2.11447083 9.06318726 -2.13525391 8.21777344 C-2.15746002 7.49829529 -2.17966614 6.77881714 -2.20254517 6.03753662 C-1.96598351 3.65780548 -1.1779529 2.06282245 0 0 Z " fill="#484A87" transform="translate(111,93)"/>
<path d="M0 0 C0.8971875 0.309375 0.8971875 0.309375 1.8125 0.625 C1.4825 2.605 1.1525 4.585 0.8125 6.625 C1.4725 6.625 2.1325 6.625 2.8125 6.625 C2.8125 7.945 2.8125 9.265 2.8125 10.625 C-2.9375 11.625 -2.9375 11.625 -5.1875 11.625 C-5.1875 10.965 -5.1875 10.305 -5.1875 9.625 C-6.5075 9.295 -7.8275 8.965 -9.1875 8.625 C-9.1875 7.635 -9.1875 6.645 -9.1875 5.625 C-7.5375 5.625 -5.8875 5.625 -4.1875 5.625 C-4.5175 4.305 -4.8475 2.985 -5.1875 1.625 C-2.1875 -0.375 -2.1875 -0.375 0 0 Z " fill="#F1E1DC" transform="translate(159.1875,164.375)"/>
<path d="M0 0 C-0.33 0.99 -0.66 1.98 -1 3 C-4.73567172 3.76411467 -7.34811918 4.07174763 -11 3 C-10.98839844 4.05960938 -10.97679688 5.11921875 -10.96484375 6.2109375 C-10.95546524 7.59895658 -10.94636511 8.98697755 -10.9375 10.375 C-10.92912109 11.07367188 -10.92074219 11.77234375 -10.91210938 12.4921875 C-10.88671875 17.7734375 -10.88671875 17.7734375 -12 20 C-18.27 20 -24.54 20 -31 20 C-31 19.67 -31 19.34 -31 19 C-25.06 19 -19.12 19 -13 19 C-13 13.06 -13 7.12 -13 1 C-8.3736134 0.33908763 -4.56428209 -0.11132395 0 0 Z " fill="#467AA9" transform="translate(102,48)"/>
<path d="M0 0 C0.33 0 0.66 0 1 0 C1.10824843 1.6026782 1.18570645 3.20745748 1.25 4.8125 C1.29640625 5.70582031 1.3428125 6.59914062 1.390625 7.51953125 C1 10 1 10 -0.765625 11.82421875 C-3 13 -3 13 -7 13 C-7 12.34 -7 11.68 -7 11 C-7.99 10.67 -8.98 10.34 -10 10 C-8.35 10 -6.7 10 -5 10 C-5 7.69 -5 5.38 -5 3 C-5.66 3 -6.32 3 -7 3 C-7 4.65 -7 6.3 -7 8 C-7.99 8.495 -7.99 8.495 -9 9 C-9 6.69 -9 4.38 -9 2 C-6.08517222 1.19032562 -4.53886783 0.78154007 -1.6875 1.9375 C-1.130625 2.288125 -0.57375 2.63875 0 3 C0 2.01 0 1.02 0 0 Z " fill="#F8ECEC" transform="translate(112,163)"/>
<path d="M0 0 C2.97 0.33 5.94 0.66 9 1 C9 1.33 9 1.66 9 2 C6.36 2 3.72 2 1 2 C1.09539062 3.22074219 1.19078125 4.44148438 1.2890625 5.69921875 C1.97548597 15.48947041 2.09624195 24.35035731 0 34 C-0.33 34 -0.66 34 -1 34 C-1.33 29.38 -1.66 24.76 -2 20 C-4.47395833 20.06510417 -6.94791667 20.13020833 -9.421875 20.1953125 C-12 20 -12 20 -16 18 C-11.05 18 -6.1 18 -1 18 C-0.505 9.09 -0.505 9.09 0 0 Z " fill="#536EB3" transform="translate(111,48)"/>
<path d="M0 0 C0.99 0 1.98 0 3 0 C3 0.99 3 1.98 3 3 C5.31 3 7.62 3 10 3 C11.35439668 5.70879335 11.06501451 8.00933268 11 11 C10.34 11 9.68 11 9 11 C9 8.69 9 6.38 9 4 C8.01 4 7.02 4 6 4 C6 6.31 6 8.62 6 11 C2.25 12.125 2.25 12.125 0 11 C0 7.37 0 3.74 0 0 Z " fill="#C98E96" transform="translate(38,163)"/>
<path d="M0 0 C0 3.96 0 7.92 0 12 C-1.32 12 -2.64 12 -4 12 C-4.66 13.98 -5.32 15.96 -6 18 C-7 16 -7 16 -6.25 13.4375 C-5 11 -5 11 -2 10 C-2.33 8.35 -2.66 6.7 -3 5 C-4.65 5 -6.3 5 -8 5 C-7.690625 6.918125 -7.690625 6.918125 -7.375 8.875 C-7.0234375 11.0546875 -7.0234375 11.0546875 -7 13 C-7.66 13.66 -8.32 14.32 -9 15 C-9.33 11.7 -9.66 8.4 -10 5 C-3.375 0 -3.375 0 0 0 Z " fill="#8B3A3D" transform="translate(166,11)"/>
<path d="M0 0 C2.09821215 -0.39938767 2.09821215 -0.39938767 4 -1 C4.33 -0.34 4.66 0.32 5 1 C4.34 1 3.68 1 3 1 C2.67 2.32 2.34 3.64 2 5 C-2.16138263 5.08159574 -5.9472484 4.98248524 -10 4 C-10.33 4.99 -10.66 5.98 -11 7 C-13 4 -13 4 -13 0 C-11.20909747 -0.19466332 -9.41723495 -0.38051213 -7.625 -0.5625 C-6.12839844 -0.71912109 -6.12839844 -0.71912109 -4.6015625 -0.87890625 C-2 -1 -2 -1 0 0 Z " fill="#EEF8F6" transform="translate(84,161)"/>
<path d="M0 0 C1 3 1 3 -0.375 6.0625 C-3.20746634 9.23216471 -3.33798677 9.26951432 -7.1875 9.6875 C-13.11443111 10.62487296 -15.52967479 14.56891857 -18.98828125 19.15625 C-20.643598 21.4961929 -22.29575495 23.83802321 -23.9375 26.1875 C-24.618125 27.115625 -25.29875 28.04375 -26 29 C-26.66 29 -27.32 29 -28 29 C-26.65414787 26.13364924 -25.12264204 23.66917693 -23.21484375 21.14453125 C-22.68439453 20.44005859 -22.15394531 19.73558594 -21.60742188 19.00976562 C-21.05634766 18.28466797 -20.50527344 17.55957031 -19.9375 16.8125 C-19.38255859 16.07580078 -18.82761719 15.33910156 -18.25585938 14.58007812 C-14.16870301 9.16870301 -14.16870301 9.16870301 -13 8 C-11.31816052 7.76712992 -9.6287584 7.58735834 -7.9375 7.4375 C-6.55884766 7.31181641 -6.55884766 7.31181641 -5.15234375 7.18359375 C-4.44207031 7.12300781 -3.73179688 7.06242187 -3 7 C-2.690625 6.21625 -2.38125 5.4325 -2.0625 4.625 C-1 2 -1 2 0 0 Z " fill="#772348" transform="translate(104,104)"/>
<path d="M0 0 C7.425 0.99 7.425 0.99 15 2 C14.34 2.66 13.68 3.32 13 4 C10.3984375 3.9765625 10.3984375 3.9765625 7.375 3.625 C6.37210937 3.51414062 5.36921875 3.40328125 4.3359375 3.2890625 C3.17964844 3.14597656 3.17964844 3.14597656 2 3 C2.00523682 3.57967529 2.01047363 4.15935059 2.01586914 4.7565918 C2.03674334 7.4002167 2.04969327 10.04382421 2.0625 12.6875 C2.07087891 13.59951172 2.07925781 14.51152344 2.08789062 15.45117188 C2.09111328 16.33740234 2.09433594 17.22363281 2.09765625 18.13671875 C2.10289307 18.94842529 2.10812988 19.76013184 2.11352539 20.59643555 C1.9929791 23.14864673 1.559949 25.51026137 1 28 C0.67 28 0.34 28 0 28 C0 18.76 0 9.52 0 0 Z " fill="#5C7EC8" transform="translate(94,66)"/>
<path d="M0 0 C3.3 0 6.6 0 10 0 C9.34 2.64 8.68 5.28 8 8 C5.69 8.33 3.38 8.66 1 9 C0.67 8.01 0.34 7.02 0 6 C-0.66 5.34 -1.32 4.68 -2 4 C-0.68 3.67 0.64 3.34 2 3 C2 2.34 2 1.68 2 1 C1.34 0.67 0.68 0.34 0 0 Z " fill="#F6F7F3" transform="translate(40,157)"/>
<path d="M0 0 C1.98 0 3.96 0 6 0 C6.95024979 3.69541586 6.95024979 6.30458414 6 10 C4.02 10 2.04 10 0 10 C0 6.7 0 3.4 0 0 Z " fill="#E29D9E" transform="translate(113,163)"/>
<path d="M0 0 C0.33 0 0.66 0 1 0 C0.67 4.62 0.34 9.24 0 14 C-1.65 14 -3.3 14 -5 14 C-5 14.66 -5 15.32 -5 16 C-7.97 16 -10.94 16 -14 16 C-14 15.67 -14 15.34 -14 15 C-12.948125 14.87625 -11.89625 14.7525 -10.8125 14.625 C-7.98477776 13.8522419 -7.14921641 13.22305148 -5.4921875 10.74609375 C-4.63648697 8.98601512 -3.81836321 7.20706014 -3.04296875 5.41015625 C-2 3 -2 3 0 0 Z " fill="#7B77B7" transform="translate(109,98)"/>
<path d="M0 0 C1 3 1 3 -0.21484375 5.69921875 C-0.78332031 6.68535156 -1.35179687 7.67148438 -1.9375 8.6875 C-2.78634766 10.17830078 -2.78634766 10.17830078 -3.65234375 11.69921875 C-4.09707031 12.45847656 -4.54179687 13.21773437 -5 14 C-9.85911178 14.25915263 -11.23934986 13.00852011 -15 10 C-17.7104607 9.66407492 -17.7104607 9.66407492 -20 10 C-20.33 10.66 -20.66 11.32 -21 12 C-21 10.02 -21 8.04 -21 6 C-17.14974121 6.60355408 -14.13898841 7.76772603 -10.6875 9.5625 C-9.80449219 10.01753906 -8.92148438 10.47257812 -8.01171875 10.94140625 C-7.34785156 11.29074219 -6.68398437 11.64007813 -6 12 C-5.55333984 10.86304687 -5.55333984 10.86304687 -5.09765625 9.703125 C-1.94890511 1.94890511 -1.94890511 1.94890511 0 0 Z " fill="#792F52" transform="translate(139,68)"/>
<path d="M0 0 C0 3.3 0 6.6 0 10 C-0.99 9.34 -1.98 8.68 -3 8 C-3.99 8.99 -4.98 9.98 -6 11 C-6.66 10.67 -7.32 10.34 -8 10 C-8 7.03 -8 4.06 -8 1 C-5.29120665 -0.35439668 -2.99066732 -0.06501451 0 0 Z " fill="#6A7BBE" transform="translate(154,14)"/>
<path d="M0 0 C0.99 0 1.98 0 3 0 C4.60725635 3.21451269 4.05748185 6.43612536 4 10 C4.66 10.33 5.32 10.66 6 11 C5.34 11 4.68 11 4 11 C3.67 11.66 3.34 12.32 3 13 C2.21625 12.814375 1.4325 12.62875 0.625 12.4375 C-1.97089775 11.74037734 -1.97089775 11.74037734 -4 13 C-3.67 10.03 -3.34 7.06 -3 4 C-2.01 4 -1.02 4 0 4 C0 6.31 0 8.62 0 11 C0.66 11 1.32 11 2 11 C1.67 8.36 1.34 5.72 1 3 C-0.98 3 -2.96 3 -5 3 C-5 2.67 -5 2.34 -5 2 C-3.35 1.67 -1.7 1.34 0 1 C0 0.67 0 0.34 0 0 Z " fill="#FAE6E6" transform="translate(47,163)"/>
<path d="M0 0 C5.06562383 -0.25328119 9.15758367 0.66416101 14 2 C14 3.98 14 5.96 14 8 C12.02 8.99 12.02 8.99 10 10 C10.33 8.35 10.66 6.7 11 5 C9.39125 5.309375 9.39125 5.309375 7.75 5.625 C4.12380904 5.9876191 2.91708924 5.98362069 0 4 C0 2.68 0 1.36 0 0 Z " fill="#F4F1F0" transform="translate(150,160)"/>
<path d="M0 0 C0.66 0 1.32 0 2 0 C2 3.63 2 7.26 2 11 C-0.33294775 11.04241723 -2.66702567 11.04092937 -5 11 C-6 10 -6 10 -6.125 7.5 C-6 5 -6 5 -5 4 C-3.33382885 3.95936168 -1.66611905 3.957279 0 4 C0 2.68 0 1.36 0 0 Z " fill="#D28A92" transform="translate(136,162)"/>
<path d="M0 0 C0.66 0 1.32 0 2 0 C2 3.63 2 7.26 2 11 C0.00045254 11.04254356 -2.00041636 11.04080783 -4 11 C-5 10 -5 10 -5.1875 7.5625 C-5 5 -5 5 -3 3 C-2.01 3 -1.02 3 0 3 C0 2.01 0 1.02 0 0 Z " fill="#CF8A8F" transform="translate(96,162)"/>
<path d="M0 0 C3.3 0 6.6 0 10 0 C10 0.33 10 0.66 10 1 C7.36 1 4.72 1 2 1 C2 3.64 2 6.28 2 9 C-0.64 9.33 -3.28 9.66 -6 10 C-5.34 8.02 -4.68 6.04 -4 4 C-4.66 3.34 -5.32 2.68 -6 2 C-4.35 2 -2.7 2 -1 2 C-0.67 1.34 -0.34 0.68 0 0 Z " fill="#D7E7EB" transform="translate(126,14)"/>
<path d="M0 0 C0.99 0 1.98 0 3 0 C3.33 1.65 3.66 3.3 4 5 C4.45375 4.175 4.9075 3.35 5.375 2.5 C5.91125 1.675 6.4475 0.85 7 0 C7.66 0 8.32 0 9 0 C9 2.97 9 5.94 9 9 C8.34 8.01 7.68 7.02 7 6 C6.34 7.32 5.68 8.64 5 10 C4.34 10 3.68 10 3 10 C2.67 8.68 2.34 7.36 2 6 C1.67 7.32 1.34 8.64 1 10 C0.34 10 -0.32 10 -1 10 C-0.67 6.7 -0.34 3.4 0 0 Z " fill="#C35463" transform="translate(26,163)"/>
<path d="M0 0 C0.66 0 1.32 0 2 0 C1.88202982 4.39675988 1.75780274 8.79328399 1.62768555 13.18969727 C1.58428187 14.68639269 1.54261087 16.18313939 1.50268555 17.67993164 C1.44511384 19.82714312 1.38138284 21.97409521 1.31640625 24.12109375 C1.26141968 26.06133423 1.26141968 26.06133423 1.20532227 28.04077148 C1 31 1 31 0 32 C-4.52642225 32.15088074 -8.58300512 32.10424872 -13 31 C-13 30.67 -13 30.34 -13 30 C-9.04 29.67 -5.08 29.34 -1 29 C-0.67 19.43 -0.34 9.86 0 0 Z " fill="#547CBC" transform="translate(48,123)"/>
<path d="M0 0 C0.33 0 0.66 0 1 0 C2.08658205 17.345069 2.08658205 17.345069 -3.58984375 25.41015625 C-4.05519531 25.93480469 -4.52054688 26.45945312 -5 27 C-5.33 27 -5.66 27 -6 27 C-6 25.35 -6 23.7 -6 22 C-5.34 22 -4.68 22 -4 22 C-3.67 18.37 -3.34 14.74 -3 11 C-2.34 12.32 -1.68 13.64 -1 15 C-1.01160156 14.25234375 -1.02320313 13.5046875 -1.03515625 12.734375 C-1.04869141 11.25710937 -1.04869141 11.25710937 -1.0625 9.75 C-1.07410156 8.77546875 -1.08570313 7.8009375 -1.09765625 6.796875 C-1.01195577 4.34241322 -0.70706066 2.33831086 0 0 Z " fill="#7B73B2" transform="translate(145,31)"/>
<path d="M0 0 C-0.33 0.99 -0.66 1.98 -1 3 C-1.66 3 -2.32 3 -3 3 C-2.938125 3.70125 -2.87625 4.4025 -2.8125 5.125 C-3.04256101 8.65260212 -4.29200568 10.93984351 -6 14 C-6.66 14 -7.32 14 -8 14 C-8.66 15.65 -9.32 17.3 -10 19 C-10.70703125 17.44921875 -10.70703125 17.44921875 -11 15 C-9.99253718 12.47412618 -8.95137208 10.20090044 -7.6875 7.8125 C-7.36587891 7.17119141 -7.04425781 6.52988281 -6.71289062 5.86914062 C-3.69465252 0 -3.69465252 0 0 0 Z " fill="#8370A9" transform="translate(123,77)"/>
<path d="M0 0 C2.00125094 0.26118619 3.98581341 0.64325643 5.96484375 1.0390625 C5.96484375 1.3690625 5.96484375 1.6990625 5.96484375 2.0390625 C4.31484375 2.3690625 2.66484375 2.6990625 0.96484375 3.0390625 C0.63484375 4.3590625 0.30484375 5.6790625 -0.03515625 7.0390625 C-5.97515625 7.5340625 -5.97515625 7.5340625 -12.03515625 8.0390625 C-9.03515625 5.0390625 -9.03515625 5.0390625 -6.03515625 4.0390625 C-5.47828125 3.3378125 -4.92140625 2.6365625 -4.34765625 1.9140625 C-2.03515625 0.0390625 -2.03515625 0.0390625 0 0 Z " fill="#F4FCFB" transform="translate(102.03515625,39.9609375)"/>
<path d="M0 0 C-0.99 0.33 -1.98 0.66 -3 1 C-3.33 1.66 -3.66 2.32 -4 3 C-8.76577649 4.26749375 -13.07643012 3.8111141 -17.875 3.0625 C-18.90753906 2.91264648 -18.90753906 2.91264648 -19.9609375 2.75976562 C-21.64182997 2.51463547 -23.32110487 2.25845587 -25 2 C-25 1.67 -25 1.34 -25 1 C-16.64736824 0.04541351 -8.40215965 -0.11039334 0 0 Z " fill="#8E9AC5" transform="translate(46,117)"/>
<path d="M0 0 C0.66 0 1.32 0 2 0 C2.49230769 7.26153846 2.49230769 7.26153846 0 11 C-0.66 11.66 -1.32 12.32 -2 13 C-2.99 12.01 -3.98 11.02 -5 10 C-3.49760034 6.38058265 -2.17854707 3.2678206 0 0 Z " fill="#7F72B2" transform="translate(144,62)"/>
<path d="M0 0 C1.32 0.33 2.64 0.66 4 1 C3.01 1 2.02 1 1 1 C1 5.95 1 10.9 1 16 C1.99 16.33 2.98 16.66 4 17 C0.5233662 19.14336161 -2.21229195 19.21277626 -6.25 19.125 C-7.32765625 19.10695313 -8.4053125 19.08890625 -9.515625 19.0703125 C-10.33546875 19.04710938 -11.1553125 19.02390625 -12 19 C-12.33 20.32 -12.66 21.64 -13 23 C-13 21.35 -13 19.7 -13 18 C-9.04 17.34 -5.08 16.68 -1 16 C-0.67 10.72 -0.34 5.44 0 0 Z " fill="#6891B8" transform="translate(116,24)"/>
<path d="M0 0 C0.99 0.33 1.98 0.66 3 1 C1.73046875 2.46484375 0.4609375 3.9296875 -0.80859375 5.39453125 C-2.20871231 7.10712971 -2.20871231 7.10712971 -3 10 C-5.64 10 -8.28 10 -11 10 C-11 9.01 -11 8.02 -11 7 C-7.49461443 5.03698408 -3.86648272 4.04097612 0 3 C0 2.01 0 1.02 0 0 Z " fill="#F3F4F0" transform="translate(147,172)"/>
<path d="M0 0 C6.27 0 12.54 0 19 0 C21.07845589 6.23536766 21.22892425 7.95778912 20 14 C19.01 14.495 19.01 14.495 18 15 C18 10.38 18 5.76 18 1 C12.06 1 6.12 1 0 1 C0 0.67 0 0.34 0 0 Z " fill="#B8BDD0" transform="translate(136,13)"/>
<path d="M0 0 C0 3.38023517 -0.87455622 5.83468937 -2 9 C1.59905908 8.44449305 2.99909799 7.25112752 5.25 4.4375 C6.03117187 3.47650391 6.03117187 3.47650391 6.828125 2.49609375 C7.21484375 2.00238281 7.6015625 1.50867188 8 1 C8 5.13436781 6.75504087 7.06270788 4.1875 10.25 C2 12 2 12 -0.625 12.375 C-3 12 -3 12 -5 10 C-4.625 7.375 -4.625 7.375 -4 5 C-3.34 5 -2.68 5 -2 5 C-1.7834375 4.0409375 -1.7834375 4.0409375 -1.5625 3.0625 C-1 1 -1 1 0 0 Z " fill="#762142" transform="translate(67,132)"/>
<path d="M0 0 C1.32 0.33 2.64 0.66 4 1 C4.33 1.99 4.66 2.98 5 4 C4.01 4 3.02 4 2 4 C2 9.28 2 14.56 2 20 C1.34 19.67 0.68 19.34 0 19 C0 12.73 0 6.46 0 0 Z " fill="#607FCB" transform="translate(137,22)"/>
<path d="M0 0 C0.33 0.66 0.66 1.32 1 2 C-0.27139214 4.39494799 -1.59568763 6.685721 -3 9 C-3.6954473 10.23398309 -4.38565329 11.4709363 -5.0703125 12.7109375 C-5.75520833 13.93229167 -6.44010417 15.15364583 -7.125 16.375 C-7.47175781 17.00277344 -7.81851563 17.63054688 -8.17578125 18.27734375 C-10.77443609 22.88721805 -10.77443609 22.88721805 -13 24 C-11.65060203 18.8722877 -9.18701265 14.87134231 -6.33984375 10.46484375 C-4.96510305 7.93580183 -4.40914594 5.8337145 -4 3 C-3.01 3 -2.02 3 -1 3 C-0.67 2.01 -0.34 1.02 0 0 Z " fill="#71243F" transform="translate(150,40)"/>
<path d="M0 0 C4.21878192 -0.19622241 7.17010894 0.19769832 11 2 C11 2.33 11 2.66 11 3 C9.906875 3.020625 8.81375 3.04125 7.6875 3.0625 C4.04267663 3.56114043 4.04267663 3.56114043 2.8671875 5.625 C1.93575266 7.78223035 1.93575266 7.78223035 1 11 C0.67 11 0.34 11 0 11 C0 7.37 0 3.74 0 0 Z " fill="#627CC8" transform="translate(125,40)"/>
<path d="M0 0 C0.33 0 0.66 0 1 0 C1 5.28 1 10.56 1 16 C2.65 16 4.3 16 6 16 C5.67 17.32 5.34 18.64 5 20 C3.02 20.33 1.04 20.66 -1 21 C-0.67 14.07 -0.34 7.14 0 0 Z " fill="#6D7ACA" transform="translate(74,96)"/>
<path d="M0 0 C0.99 0 1.98 0 3 0 C4.4606285 2.64738916 5 3.89448334 5 7 C3.68 7.33 2.36 7.66 1 8 C1.99 8.66 2.98 9.32 4 10 C2.35 10 0.7 10 -1 10 C-2.125 5.25 -2.125 5.25 -1 3 C-0.34 3 0.32 3 1 3 C0.67 2.01 0.34 1.02 0 0 Z " fill="#D27C88" transform="translate(68,163)"/>
<path d="M0 0 C0.33 0 0.66 0 1 0 C1 3.33333333 1 6.66666667 1 10 C1.99 9.67 2.98 9.34 4 9 C6.3406065 9.27769908 8.67624308 9.60539977 11 10 C7.17482487 12.39073445 3.40334476 12.55966552 -1 13 C-1.02686553 11.02090602 -1.04633375 9.04171029 -1.0625 7.0625 C-1.07410156 5.96035156 -1.08570312 4.85820312 -1.09765625 3.72265625 C-1 1 -1 1 0 0 Z " fill="#7E7AB3" transform="translate(75,135)"/>
<path d="M0 0 C0.33 0 0.66 0 1 0 C1 3.96 1 7.92 1 12 C0.34 12 -0.32 12 -1 12 C-1 10.68 -1 9.36 -1 8 C-3.64 8.33 -6.28 8.66 -9 9 C-9 8.01 -9 7.02 -9 6 C-7.35 6.33 -5.7 6.66 -4 7 C-3.34 5.68 -2.68 4.36 -2 3 C-1.34 3 -0.68 3 0 3 C0 2.01 0 1.02 0 0 Z " fill="#6A5B96" transform="translate(73,137)"/>
<path d="M0 0 C0.99 0 1.98 0 3 0 C3 2.97 3 5.94 3 9 C1.00045254 9.04254356 -1.00041636 9.04080783 -3 9 C-4 8 -4 8 -4.0625 4.4375 C-4.041875 3.303125 -4.02125 2.16875 -4 1 C-3.67 1 -3.34 1 -3 1 C-2.87625 1.804375 -2.7525 2.60875 -2.625 3.4375 C-2.41875 4.283125 -2.2125 5.12875 -2 6 C-1.34 6.33 -0.68 6.66 0 7 C0 4.69 0 2.38 0 0 Z " fill="#CC818D" transform="translate(126,165)"/>
<path d="M0 0 C0.33 0 0.66 0 1 0 C1 7.26 1 14.52 1 22 C-2.63 22.33 -6.26 22.66 -10 23 C-8.68 22.34 -7.36 21.68 -6 21 C-5.29875 20.46375 -4.5975 19.9275 -3.875 19.375 C-2 18 -2 18 0 18 C0 12.06 0 6.12 0 0 Z " fill="#E4EEF7" transform="translate(46,94)"/>
<path d="M0 0 C0.33 0.66 0.66 1.32 1 2 C0.21484375 3.99609375 0.21484375 3.99609375 -1.0625 6.4375 C-1.52398437 7.32179688 -1.98546875 8.20609375 -2.4609375 9.1171875 C-2.96882813 10.06851563 -3.47671875 11.01984375 -4 12 C-4.52851562 13.01320313 -5.05703125 14.02640625 -5.6015625 15.0703125 C-9.73401421 22.8670071 -9.73401421 22.8670071 -12 24 C-10.44651947 18.67741916 -8.05642112 14.04057184 -5.4375 9.1875 C-4.8197168 8.02444336 -4.8197168 8.02444336 -4.18945312 6.83789062 C-1.14773261 1.14773261 -1.14773261 1.14773261 0 0 Z " fill="#77223D" transform="translate(117,80)"/>
<path d="M0 0 C0.33 0 0.66 0 1 0 C0.67 2.97 0.34 5.94 0 9 C-0.66 9 -1.32 9 -2 9 C-2.33 13.62 -2.66 18.24 -3 23 C-3.33 23 -3.66 23 -4 23 C-4.738041 7.25512528 -4.738041 7.25512528 0 0 Z " fill="#EEE5E4" transform="translate(159,33)"/>
<path d="M0 0 C0.1875 2.375 0.1875 2.375 0 5 C-0.99 5.66 -1.98 6.32 -3 7 C-4.19232613 9.05003955 -4.19232613 9.05003955 -5 11 C-6.28317892 7.15046324 -6.06643637 4.05261865 -6 0 C-3 -1 -3 -1 0 0 Z " fill="#E03642" transform="translate(164,16)"/>
<path d="M0 0 C-0.33 1.32 -0.66 2.64 -1 4 C-2.32 4 -3.64 4 -5 4 C-5 3.34 -5 2.68 -5 2 C-6.79236067 2.47656412 -8.58386897 2.95633498 -10.375 3.4375 C-11.37273437 3.70433594 -12.37046875 3.97117188 -13.3984375 4.24609375 C-15.95417701 4.90184356 -15.95417701 4.90184356 -18 6 C-18.66 5.34 -19.32 4.68 -20 4 C-17.42032203 3.13310822 -14.83723873 2.28126211 -12.25 1.4375 C-11.52039063 1.19064453 -10.79078125 0.94378906 -10.0390625 0.68945312 C-9.33007812 0.46064453 -8.62109375 0.23183594 -7.890625 -0.00390625 C-6.91657715 -0.32597046 -6.91657715 -0.32597046 -5.92285156 -0.65454102 C-3.66555462 -1.06008636 -2.16526518 -0.69296911 0 0 Z " fill="#DBDDEB" transform="translate(81,148)"/>
<path d="M0 0 C0.66 0 1.32 0 2 0 C1.51575893 5.16523811 -1.18510576 8.80835063 -4 13 C-4.66 13.99 -5.32 14.98 -6 16 C-6.90883186 10.24406487 -4.39512861 6.70506569 -1.5078125 1.9765625 C-0.76144531 0.99816406 -0.76144531 0.99816406 0 0 Z " fill="#CB3A4F" transform="translate(141,59)"/>
<path d="M0 0 C2.64 0 5.28 0 8 0 C7.06862408 1.29608947 6.1296434 2.58671632 5.1875 3.875 C4.66542969 4.59429688 4.14335937 5.31359375 3.60546875 6.0546875 C2 8 2 8 -1 10 C-0.67 6.7 -0.34 3.4 0 0 Z " fill="#3C73B3" transform="translate(128,15)"/>
<path d="M0 0 C1.32 0.33 2.64 0.66 4 1 C3.67 2.98 3.34 4.96 3 7 C3.66 7 4.32 7 5 7 C5 8.32 5 9.64 5 11 C2.525 10.01 2.525 10.01 0 9 C0 6.03 0 3.06 0 0 Z " fill="#D1979E" transform="translate(157,164)"/>
<path d="M0 0 C-0.33 1.32 -0.66 2.64 -1 4 C-1.66 4 -2.32 4 -3 4 C-3 6.31 -3 8.62 -3 11 C-3.99 11 -4.98 11 -6 11 C-6 8.03 -6 5.06 -6 2 C-6.66 1.67 -7.32 1.34 -8 1 C-5.07175348 0.02391783 -3.04386724 -0.08226668 0 0 Z " fill="#ECDCD6" transform="translate(70,162)"/>
<path d="M0 0 C0.28875 0.639375 0.5775 1.27875 0.875 1.9375 C1.82823451 4.15206079 1.82823451 4.15206079 4 5 C4.125 7.875 4.125 7.875 4 11 C3.34 11.66 2.68 12.32 2 13 C1.01 12.67 0.02 12.34 -1 12 C-1 9.36 -1 6.72 -1 4 C-2.65 3.67 -4.3 3.34 -6 3 C-6 2.67 -6 2.34 -6 2 C-4.02 2 -2.04 2 0 2 C0 1.34 0 0.68 0 0 Z " fill="#F1D1CF" transform="translate(120,160)"/>
<path d="M0 0 C0.33 0.66 0.66 1.32 1 2 C1.66 2.33 2.32 2.66 3 3 C3 3.99 3 4.98 3 6 C2.01 5.67 1.02 5.34 0 5 C-1.39439664 4.93334624 -2.79169875 4.91461801 -4.1875 4.9375 C-5.445625 4.958125 -6.70375 4.97875 -8 5 C-8 3.68 -8 2.36 -8 1 C-7.34 1 -6.68 1 -6 1 C-6 1.66 -6 2.32 -6 3 C-5.34 3 -4.68 3 -4 3 C-4 2.34 -4 1.68 -4 1 C-2.68 0.67 -1.36 0.34 0 0 Z " fill="#EEF4F0" transform="translate(147,160)"/>
<path d="M0 0 C0.66 0.66 1.32 1.32 2 2 C1.21718695 3.33855056 0.42348123 4.67073644 -0.375 6 C-0.81585938 6.7425 -1.25671875 7.485 -1.7109375 8.25 C-2.13632813 8.8275 -2.56171875 9.405 -3 10 C-3.66 10 -4.32 10 -5 10 C-5 7.36 -5 4.72 -5 2 C-3.35 2 -1.7 2 0 2 C0 1.34 0 0.68 0 0 Z " fill="#7972AE" transform="translate(100,96)"/>
<path d="M0 0 C1 3 1 3 0 6 C-0.66 6 -1.32 6 -2 6 C-2.66 8.97 -3.32 11.94 -4 15 C-5.32 15.33 -6.64 15.66 -8 16 C-7.43555175 11.65136348 -5.84572036 8.82172345 -3.4375 5.1875 C-2.79683594 4.21167969 -2.15617188 3.23585937 -1.49609375 2.23046875 C-0.75552734 1.12638672 -0.75552734 1.12638672 0 0 Z " fill="#7D2443" transform="translate(152,44)"/>
<path d="M0 0 C0.99 0 1.98 0 3 0 C2 2 1 4 0 6 C-0.66 6 -1.32 6 -2 6 C-2.28875 6.804375 -2.5775 7.60875 -2.875 8.4375 C-4 11 -4 11 -6 12 C-6 9.69 -6 7.38 -6 5 C-5.195625 4.731875 -4.39125 4.46375 -3.5625 4.1875 C-2.716875 3.795625 -1.87125 3.40375 -1 3 C-0.67 2.01 -0.34 1.02 0 0 Z " fill="#8174AA" transform="translate(80,112)"/>
<path d="M0 0 C0 0.99 0 1.98 0 3 C-0.66 3 -1.32 3 -2 3 C-2 5.31 -2 7.62 -2 10 C-2.66 10 -3.32 10 -4 10 C-4 7.69 -4 5.38 -4 3 C-4.99 2.67 -5.98 2.34 -7 2 C-7 1.34 -7 0.68 -7 0 C-3.86650268 -1.04449911 -3.01031744 -0.93423645 0 0 Z " fill="#F4F4EA" transform="translate(128,162)"/>
<path d="M0 0 C0.33 0 0.66 0 1 0 C1.125 2.875 1.125 2.875 1 6 C0.34 6.66 -0.32 7.32 -1 8 C-3.31 7.34 -5.62 6.68 -8 6 C-8 4.66666667 -8 3.33333333 -8 2 C-6.02 2 -4.04 2 -2 2 C-2 2.99 -2 3.98 -2 5 C-1.34 5 -0.68 5 0 5 C0 3.35 0 1.7 0 0 Z " fill="#F8D2D7" transform="translate(76,168)"/>
<path d="M0 0 C0.33 0.99 0.66 1.98 1 3 C-0.75 6.1875 -0.75 6.1875 -3 9 C-3.99 9 -4.98 9 -6 9 C-5.8125 6.1875 -5.8125 6.1875 -5 3 C-2.4375 1.125 -2.4375 1.125 0 0 Z " fill="#DD2F40" transform="translate(88,112)"/>
<path d="M0 0 C1.65 0.33 3.3 0.66 5 1 C4.67 2.32 4.34 3.64 4 5 C2.68 5 1.36 5 0 5 C-0.33 6.32 -0.66 7.64 -1 9 C-2.0326802 6.21176345 -2.04509293 5.1322726 -1.0625 2.25 C-0.711875 1.5075 -0.36125 0.765 0 0 Z " fill="#EFE5E2" transform="translate(162,23)"/>
<path d="M0 0 C1.98 0.495 1.98 0.495 4 1 C4 3.64 4 6.28 4 9 C2.35 9 0.7 9 -1 9 C-0.835 8.443125 -0.67 7.88625 -0.5 7.3125 C0.04041351 4.81308751 0.07082065 2.54954338 0 0 Z " fill="#E3A6AE" transform="translate(141,167)"/>
<path d="M0 0 C0.66 0 1.32 0 2 0 C2.84454356 3.37817425 3.10844919 5.67465243 2 9 C2.99 9 3.98 9 5 9 C5.33 7.68 5.66 6.36 6 5 C6.5625 6.9375 6.5625 6.9375 7 9 C6 10 6 10 2.9375 10.0625 C1.968125 10.041875 0.99875 10.02125 0 10 C0 6.7 0 3.4 0 0 Z " fill="#CF677B" transform="translate(113,163)"/>
<path d="M0 0 C1.4783226 2.95664519 1.06032783 5.74229737 1 9 C0.01 9 -0.98 9 -2 9 C-2 9.66 -2 10.32 -2 11 C-4.97 11 -7.94 11 -11 11 C-11 10.67 -11 10.34 -11 10 C-9.9275 9.835 -8.855 9.67 -7.75 9.5 C-5.15625719 8.79500702 -4.21855238 8.30861863 -2.64453125 6.0859375 C-1.6642 4.08280578 -0.78181017 2.08806442 0 0 Z " fill="#7F66A0" transform="translate(106,103)"/>
<path d="M0 0 C1 3 1 3 0.22265625 5.04296875 C-0.16019531 5.75066406 -0.54304687 6.45835938 -0.9375 7.1875 C-1.31777344 7.90292969 -1.69804687 8.61835937 -2.08984375 9.35546875 C-2.39019531 9.89816406 -2.69054687 10.44085938 -3 11 C-3.66 11 -4.32 11 -5 11 C-5.66 12.65 -6.32 14.3 -7 16 C-7.99 16 -8.98 16 -10 16 C-9.67 14.68 -9.34 13.36 -9 12 C-8.01 12 -7.02 12 -6 12 C-6 11.34 -6 10.68 -6 10 C-5.34 10 -4.68 10 -4 10 C-3.71125 9.278125 -3.4225 8.55625 -3.125 7.8125 C-2.08333333 5.20833333 -1.04166667 2.60416667 0 0 Z " fill="#A02D36" transform="translate(157,33)"/>
<path d="M0 0 C0 0.99 0 1.98 0 3 C-1.98 3 -3.96 3 -6 3 C-6 7.29 -6 11.58 -6 16 C-6.33 16 -6.66 16 -7 16 C-7 11.05 -7 6.1 -7 1 C-4 0 -4 0 0 0 Z " fill="#4071A3" transform="translate(124,24)"/>
<path d="M0 0 C0.33 0 0.66 0 1 0 C1 3.63 1 7.26 1 11 C-0.32 11.33 -1.64 11.66 -3 12 C-3.99 11.34 -4.98 10.68 -6 10 C-5.34 9.67 -4.68 9.34 -4 9 C-3.28752268 7.3523962 -2.62599617 5.68236471 -2 4 C-1.34786461 2.65949948 -0.68620031 1.32338632 0 0 Z " fill="#F0B8BD" transform="translate(35,163)"/>
<path d="M0 0 C0.99 0 1.98 0 3 0 C4.60725635 3.21451269 4.05748185 6.43612536 4 10 C4.66 10.33 5.32 10.66 6 11 C5.34 11 4.68 11 4 11 C3.67 11.66 3.34 12.32 3 13 C3 10.36 3 7.72 3 5 C2.34 5 1.68 5 1 5 C1 4.34 1 3.68 1 3 C-0.98 3 -2.96 3 -5 3 C-5 2.67 -5 2.34 -5 2 C-3.35 1.67 -1.7 1.34 0 1 C0 0.67 0 0.34 0 0 Z " fill="#ECD9D8" transform="translate(47,163)"/>
<path d="M0 0 C2.27057377 -0.05398987 4.54151288 -0.09278742 6.8125 -0.125 C8.07707031 -0.14820312 9.34164062 -0.17140625 10.64453125 -0.1953125 C14 0 14 0 17 2 C14.73122896 2.24875561 12.45980265 2.47339246 10.1875 2.6875 C8.92292969 2.81511719 7.65835938 2.94273438 6.35546875 3.07421875 C3 3 3 3 1.05078125 1.51953125 C0.70402344 1.01808594 0.35726562 0.51664062 0 0 Z " fill="#8599D9" transform="translate(50,117)"/>
<path d="M0 0 C4.75481646 0.57634139 7.97048212 2.55068521 12 5 C11.01 5.33 10.02 5.66 9 6 C8.01 5.34 7.02 4.68 6 4 C3.37468476 3.83286431 3.37468476 3.83286431 1 4 C0.67 4.66 0.34 5.32 0 6 C0 4.02 0 2.04 0 0 Z " fill="#8A2441" transform="translate(118,74)"/>
<path d="M0 0 C0.66 0 1.32 0 2 0 C3.24213914 4.27327112 2.69146302 6.71541119 1.0625 10.8125 C0.68222656 11.78832031 0.30195313 12.76414062 -0.08984375 13.76953125 C-0.39019531 14.50558594 -0.69054687 15.24164063 -1 16 C-1.33 16 -1.66 16 -2 16 C-2.2919519 10.45291384 -1.19088986 5.38027025 0 0 Z " fill="#846EA8" transform="translate(152,24)"/>
<path d="M0 0 C2.52259061 1.97420135 2.9929808 2.96745642 3.6875 6.1875 C3.790625 7.115625 3.89375 8.04375 4 9 C1.125 8.75 1.125 8.75 -2 8 C-3.375 5.9375 -3.375 5.9375 -4 4 C-2.68 4 -1.36 4 0 4 C0 2.68 0 1.36 0 0 Z " fill="#4974C2" transform="translate(144,18)"/>
<path d="M0 0 C0.33 0.66 0.66 1.32 1 2 C1.99 2 2.98 2 4 2 C3.32902328 6.19360449 1.1441606 9.40334352 -1 13 C-1.33 13 -1.66 13 -2 13 C-2 11.35 -2 9.7 -2 8 C-1.34 8 -0.68 8 0 8 C0 5.36 0 2.72 0 0 Z " fill="#8171AB" transform="translate(104,82)"/>
<path d="M0 0 C0.66 0.33 1.32 0.66 2 1 C1.25 3.4375 1.25 3.4375 0 6 C-2 6.9375 -2 6.9375 -4 7 C-4.66 6.34 -5.32 5.68 -6 5 C-5.34 5 -4.68 5 -4 5 C-3.896875 4.360625 -3.79375 3.72125 -3.6875 3.0625 C-3.460625 2.381875 -3.23375 1.70125 -3 1 C-2.01 0.67 -1.02 0.34 0 0 Z " fill="#D4333D" transform="translate(102,103)"/>
<path d="M0 0 C0 4.62 0 9.24 0 14 C-0.99 14.495 -0.99 14.495 -2 15 C-2 11.04 -2 7.08 -2 3 C-3.65 3.33 -5.3 3.66 -7 4 C-6.67 3.01 -6.34 2.02 -6 1 C-3.90006779 0.25486277 -2.22568901 0 0 0 Z " fill="#ECE6E5" transform="translate(168,8)"/>
<path d="M0 0 C0.99 0 1.98 0 3 0 C3.66 2.64 4.32 5.28 5 8 C4.01 8.495 4.01 8.495 3 9 C3.99 9.33 4.98 9.66 6 10 C4.35 9.67 2.7 9.34 1 9 C0.67 6.03 0.34 3.06 0 0 Z " fill="#F3DBD9" transform="translate(52,164)"/>
<path d="M0 0 C0.99 0 1.98 0 3 0 C3.33 1.98 3.66 3.96 4 6 C3.34 6 2.68 6 2 6 C1.67 7.32 1.34 8.64 1 10 C0.34 10 -0.32 10 -1 10 C-0.67 6.7 -0.34 3.4 0 0 Z " fill="#CD6875" transform="translate(26,163)"/>
<path d="M0 0 C2 2 2 2 2.1953125 3.9453125 C2.13020833 5.96354167 2.06510417 7.98177083 2 10 C0.68 10 -0.64 10 -2 10 C-2 9.34 -2 8.68 -2 8 C-2.99 7.67 -3.98 7.34 -5 7 C-3.35 7 -1.7 7 0 7 C0 4.69 0 2.38 0 0 Z " fill="#F0DFDC" transform="translate(107,166)"/>
<path d="M0 0 C0.33 0 0.66 0 1 0 C1.33 1.65 1.66 3.3 2 5 C2.33 5 2.66 5 3 5 C3.33 3.35 3.66 1.7 4 0 C4.66 0 5.32 0 6 0 C6 2.31 6 4.62 6 7 C4.02 7 2.04 7 0 7 C0 4.69 0 2.38 0 0 Z " fill="#BC6174" transform="translate(101,166)"/>
<path d="M0 0 C0 0.33 0 0.66 0 1 C-1.58086048 1.36504603 -3.16483907 1.71660506 -4.75 2.0625 C-5.63171875 2.25972656 -6.5134375 2.45695313 -7.421875 2.66015625 C-9.98679028 2.99825872 -11.57091639 2.81158635 -14 2 C-9.32380218 -1.77112727 -5.55498905 -1.00449693 0 0 Z " fill="#7E82B0" transform="translate(126,134)"/>
<path d="M0 0 C0.66 0.33 1.32 0.66 2 1 C2 2.98 2 4.96 2 7 C0.02 7.66 -1.96 8.32 -4 9 C-4 8.01 -4 7.02 -4 6 C-2.68 6 -1.36 6 0 6 C0 5.01 0 4.02 0 3 C-0.66 2.67 -1.32 2.34 -2 2 C-1.34 1.34 -0.68 0.68 0 0 Z " fill="#797DB4" transform="translate(152,119)"/>
<path d="M0 0 C0.99 0.33 1.98 0.66 3 1 C1.25 7.75 1.25 7.75 -1 10 C-2.46726798 6.18510326 -1.43336419 3.70988378 0 0 Z " fill="#CF3043" transform="translate(108,88)"/>
<path d="M0 0 C0.33 0 0.66 0 1 0 C1 4.29 1 8.58 1 13 C0.34 13 -0.32 13 -1 13 C-1.22245393 11.39773045 -1.42746669 9.79303233 -1.625 8.1875 C-1.74101562 7.29417969 -1.85703125 6.40085937 -1.9765625 5.48046875 C-2 3 -2 3 0 0 Z " fill="#4F508B" transform="translate(137,75)"/>
<path d="M0 0 C0.33 0 0.66 0 1 0 C1.02685095 2.47923801 1.04676547 4.9581884 1.0625 7.4375 C1.07087891 8.14455078 1.07925781 8.85160156 1.08789062 9.58007812 C1.09653588 11.38693559 1.05220011 13.19387603 1 15 C0 16 0 16 -2.5625 16.0625 C-3.366875 16.041875 -4.17125 16.02125 -5 16 C-4.01 15.67 -3.02 15.34 -2 15 C-2 14.01 -2 13.02 -2 12 C-1.34 12 -0.68 12 0 12 C0 8.04 0 4.08 0 0 Z " fill="#D9F0FB" transform="translate(115,25)"/>
<path d="M0 0 C0 0.66 0 1.32 0 2 C-0.99 2 -1.98 2 -3 2 C-3.66 4.31 -4.32 6.62 -5 9 C-5.66 8.34 -6.32 7.68 -7 7 C-6.8125 4.5 -6.8125 4.5 -6 2 C-3 0 -3 0 0 0 Z " fill="#F6D9D6" transform="translate(36,161)"/>
<path d="M0 0 C0.66 0 1.32 0 2 0 C1.57476184 1.60746056 1.13429874 3.21089836 0.6875 4.8125 C0.44386719 5.70582031 0.20023438 6.59914063 -0.05078125 7.51953125 C-1.0200819 10.05247738 -1.95009604 11.2716496 -4 13 C-3.71517632 11.58194169 -3.42181856 10.16559621 -3.125 8.75 C-2.96257812 7.96109375 -2.80015625 7.1721875 -2.6328125 6.359375 C-2.00849925 4.03168856 -1.15161458 2.10968048 0 0 Z " fill="#832A4E" transform="translate(155,27)"/>
<path d="M0 0 C0.66 0 1.32 0 2 0 C2 0.66 2 1.32 2 2 C2.99 2 3.98 2 5 2 C5 1.34 5 0.68 5 0 C5.66 0 6.32 0 7 0 C7 0.99 7 1.98 7 3 C5.35 3 3.7 3 2 3 C2 3.66 2 4.32 2 5 C3.32 5.33 4.64 5.66 6 6 C4.33388095 6.042721 2.66617115 6.04063832 1 6 C0 5 0 5 -0.0625 2.4375 C-0.041875 1.633125 -0.02125 0.82875 0 0 Z " fill="#BF6774" transform="translate(148,167)"/>
<path d="M0 0 C0.66 0.33 1.32 0.66 2 1 C0.77472971 5.05281712 -0.69880494 8.44360764 -3 12 C-3.66 11.34 -4.32 10.68 -5 10 C-4.54625 9.278125 -4.0925 8.55625 -3.625 7.8125 C-2.14505642 5.25105919 -1.02782461 2.76722011 0 0 Z " fill="#73314C" transform="translate(137,60)"/>
<path d="M0 0 C0.33 0 0.66 0 1 0 C1 3.3 1 6.6 1 10 C-1.64 9.67 -4.28 9.34 -7 9 C-7 8.67 -7 8.34 -7 8 C-5.02 8 -3.04 8 -1 8 C-0.67 5.36 -0.34 2.72 0 0 Z " fill="#4875BF" transform="translate(124,40)"/>
<path d="M0 0 C2.64 0.33 5.28 0.66 8 1 C8 1.99 8 2.98 8 4 C2.25 4.125 2.25 4.125 0 3 C0 2.01 0 1.02 0 0 Z " fill="#F4E2E0" transform="translate(91,172)"/>
<path d="M0 0 C4.16138263 -0.08159574 7.9472484 0.01751476 12 1 C12 1.66 12 2.32 12 3 C9.69 3.33 7.38 3.66 5 4 C4.67 3.34 4.34 2.68 4 2 C1.98330173 0.86649466 1.98330173 0.86649466 0 0 Z " fill="#CE3C56" transform="translate(89,108)"/>
<path d="M0 0 C9.41002278 0.96355353 9.41002278 0.96355353 14 2 C14 2.33 14 2.66 14 3 C10.37 3 6.74 3 3 3 C3 2.34 3 1.68 3 1 C2.01 0.67 1.02 0.34 0 0 Z " fill="#CCE5EE" transform="translate(21,151)"/>
<path d="M0 0 C0.33 0 0.66 0 1 0 C1.33 3.63 1.66 7.26 2 11 C1.01 11.495 1.01 11.495 0 12 C0 11.34 0 10.68 0 10 C-1.65 9.67 -3.3 9.34 -5 9 C-5 8.67 -5 8.34 -5 8 C-3.35 8 -1.7 8 0 8 C0 5.36 0 2.72 0 0 Z " fill="#4775BB" transform="translate(136,32)"/>
<path d="M0 0 C2.97 0.495 2.97 0.495 6 1 C6 1.66 6 2.32 6 3 C4.68 3 3.36 3 2 3 C2 3.66 2 4.32 2 5 C3.32 4.67 4.64 4.34 6 4 C6 4.66 6 5.32 6 6 C4.02 6 2.04 6 0 6 C0 4.02 0 2.04 0 0 Z " fill="#C76B7B" transform="translate(80,167)"/>
<path d="M0 0 C0.66 0 1.32 0 2 0 C3.06546953 3.1964086 3.07427838 5.65747276 3 9 C2.01 9 1.02 9 0 9 C0 6.03 0 3.06 0 0 Z " fill="#D26076" transform="translate(62,164)"/>
<path d="M0 0 C0.99 0.33 1.98 0.66 3 1 C2.34 1 1.68 1 1 1 C0.7525 1.969375 0.505 2.93875 0.25 3.9375 C-0.1625 4.948125 -0.575 5.95875 -1 7 C-3.125 7.875 -3.125 7.875 -5 8 C-2.25 2.25 -2.25 2.25 0 0 Z " fill="#952945" transform="translate(71,128)"/>
<path d="M0 0 C0 0.66 0 1.32 0 2 C-1.65002828 3.35386936 -3.3174387 4.68678142 -5 6 C-5.33 6.66 -5.66 7.32 -6 8 C-6.66 8 -7.32 8 -8 8 C-5.18918919 0 -5.18918919 0 0 0 Z " fill="#862344" transform="translate(94,112)"/>
<path d="M0 0 C0.66 0.99 1.32 1.98 2 3 C1.67 3.99 1.34 4.98 1 6 C0.34 6 -0.32 6 -1 6 C-1.33 7.32 -1.66 8.64 -2 10 C-2.66 10 -3.32 10 -4 10 C-2.66666667 6.66666667 -1.33333333 3.33333333 0 0 Z " fill="#7C3455" transform="translate(109,82)"/>
<path d="M0 0 C0.55429688 0.15597656 1.10859375 0.31195313 1.6796875 0.47265625 C2.76636719 0.76462891 2.76636719 0.76462891 3.875 1.0625 C4.95394531 1.35833984 4.95394531 1.35833984 6.0546875 1.66015625 C8.07273593 2.21132607 8.07273593 2.21132607 10 1 C9.67 2.32 9.34 3.64 9 5 C4.68607774 4.5206753 2.83430453 3.2542015 0 0 Z " fill="#782138" transform="translate(123,70)"/>
<path d="M0 0 C0.33 0.99 0.66 1.98 1 3 C-1.31 2.67 -3.62 2.34 -6 2 C-6.33 2.99 -6.66 3.98 -7 5 C-7.66 3.68 -8.32 2.36 -9 1 C-6.04335481 -0.4783226 -3.25770263 -0.06032783 0 0 Z " fill="#F8F3EC" transform="translate(80,163)"/>
<path d="M0 0 C0 2.95274099 -0.43891831 4.49058403 -1.5 7.1875 C-1.7784375 7.90292969 -2.056875 8.61835938 -2.34375 9.35546875 C-2.5603125 9.89816406 -2.776875 10.44085938 -3 11 C-3.66 10.67 -4.32 10.34 -5 10 C-4.67 8.35 -4.34 6.7 -4 5 C-3.34 5 -2.68 5 -2 5 C-1.7834375 4.0409375 -1.7834375 4.0409375 -1.5625 3.0625 C-1 1 -1 1 0 0 Z " fill="#6E2F5F" transform="translate(67,132)"/>
<path d="M0 0 C1.32 0.33 2.64 0.66 4 1 C3.67 2.98 3.34 4.96 3 7 C2.34 7 1.68 7 1 7 C0.67 4.69 0.34 2.38 0 0 Z " fill="#7680CC" transform="translate(58,136)"/>
<path d="M0 0 C2.31 0.33 4.62 0.66 7 1 C7 1.33 7 1.66 7 2 C5.35 2.33 3.7 2.66 2 3 C1.67 4.32 1.34 5.64 1 7 C0.34 7 -0.32 7 -1 7 C-0.67 4.69 -0.34 2.38 0 0 Z " fill="#DFF0EE" transform="translate(101,40)"/>
<path d="M0 0 C2.475 0.495 2.475 0.495 5 1 C5 1.99 5 2.98 5 4 C3.68 4.33 2.36 4.66 1 5 C0.67 3.35 0.34 1.7 0 0 Z " fill="#F2F1ED" transform="translate(91,161)"/>
<path d="M0 0 C-1.485 1.485 -1.485 1.485 -3 3 C-3.99 2.67 -4.98 2.34 -6 2 C-7.33106622 1.65772583 -8.66400079 1.32248257 -10 1 C-3.71428571 -1.42857143 -3.71428571 -1.42857143 0 0 Z " fill="#D6D7E8" transform="translate(106,141)"/>
<path d="M0 0 C-0.66 0 -1.32 0 -2 0 C-2 0.99 -2 1.98 -2 3 C-2.66 3 -3.32 3 -4 3 C-4 2.34 -4 1.68 -4 1 C-5.98 1.33 -7.96 1.66 -10 2 C-6.80505194 -1.19494806 -4.22040044 -1.35655728 0 0 Z " fill="#D1D4E0" transform="translate(116,138)"/>
<path d="M0 0 C-1.1858237 3.37503669 -2.27573689 5.64722731 -5 8 C-4.74438677 5.6568787 -4.40729228 3.32156597 -4 1 C-2 0 -2 0 0 0 Z " fill="#77243E" transform="translate(115,76)"/>
<path d="M0 0 C2.475 0.495 2.475 0.495 5 1 C4.67 1.99 4.34 2.98 4 4 C2.68 3.67 1.36 3.34 0 3 C0 2.01 0 1.02 0 0 Z " fill="#D5979F" transform="translate(81,165)"/>
<path d="M0 0 C2.5625 2.1875 2.5625 2.1875 5 5 C4.8125 7.8125 4.8125 7.8125 4 10 C3.67 10 3.34 10 3 10 C3 8.35 3 6.7 3 5 C1.68 4.34 0.36 3.68 -1 3 C-0.67 2.01 -0.34 1.02 0 0 Z " fill="#FAECEF" transform="translate(87,162)"/>
<path d="M0 0 C0.928125 0.20625 1.85625 0.4125 2.8125 0.625 C2.8125 1.285 2.8125 1.945 2.8125 2.625 C-0.1575 2.295 -3.1275 1.965 -6.1875 1.625 C-3.1875 -0.375 -3.1875 -0.375 0 0 Z " fill="#5080AB" transform="translate(32.1875,150.375)"/>
<path d="M0 0 C0.66 0 1.32 0 2 0 C1.67 1.32 1.34 2.64 1 4 C1.66 4.33 2.32 4.66 3 5 C1.68 5.33 0.36 5.66 -1 6 C-1 2 -1 2 0 0 Z " fill="#CA3B46" transform="translate(66,136)"/>
<path d="M0 0 C0 3.52032428 -0.70351351 4.4385343 -3 7 C-3.66 7 -4.32 7 -5 7 C-5.33 7.66 -5.66 8.32 -6 9 C-6 8.01 -6 7.02 -6 6 C-5.34 6 -4.68 6 -4 6 C-3.71125 5.195625 -3.4225 4.39125 -3.125 3.5625 C-2 1 -2 1 0 0 Z " fill="#7B1E3E" transform="translate(79,119)"/>
<path d="M0 0 C0.99 0 1.98 0 3 0 C2.625 2.9375 2.625 2.9375 2 6 C1.01 6.495 1.01 6.495 0 7 C0 4.69 0 2.38 0 0 Z " fill="#7E7CB2" transform="translate(74,117)"/>
<path d="M0 0 C2.64 0 5.28 0 8 0 C8 0.66 8 1.32 8 2 C7.34 2 6.68 2 6 2 C6 3.65 6 5.3 6 7 C5.67 7 5.34 7 5 7 C4.9175 6.21625 4.835 5.4325 4.75 4.625 C4.27193661 1.85250896 4.27193661 1.85250896 1.9375 0.6875 C1.298125 0.460625 0.65875 0.23375 0 0 Z " fill="#6881CF" transform="translate(84,94)"/>
<path d="M0 0 C0.66 0 1.32 0 2 0 C2.33 1.32 2.66 2.64 3 4 C1.68 4 0.36 4 -1 4 C-1.33 4.66 -1.66 5.32 -2 6 C-1.125 1.125 -1.125 1.125 0 0 Z " fill="#DC384E" transform="translate(119,70)"/>
</svg>
