<svg version="1.1" id="Layer_1" xmlns="http://www.w3.org/2000/svg" xmlns:xlink="http://www.w3.org/1999/xlink" x="0px" y="0px"
	 width="100%" viewBox="0 0 192 192" enable-background="new 0 0 192 192" xml:space="preserve">
<path fill="#000000" opacity="1.000000" stroke="none" 
	d="
M1.000000,74.000000 
	C1.000000,49.333340 1.000000,25.166677 1.000000,1.000013 
	C64.999977,1.000009 128.999954,1.000009 192.999954,1.000004 
	C192.999969,64.999962 192.999969,128.999924 192.999985,192.999908 
	C129.000046,192.999939 65.000107,192.999939 1.000077,192.999969 
	C1.000000,153.500000 1.000000,114.000000 1.000000,74.000000 
M150.055664,47.189857 
	C150.084534,46.515762 150.113403,45.841667 150.723602,44.776638 
	C151.239105,42.004845 151.476456,39.143200 152.336014,36.482559 
	C153.590591,32.599163 155.292206,28.860188 157.026398,24.508038 
	C157.386185,24.044397 157.745956,23.580759 158.838440,23.020975 
	C163.039185,19.199402 163.101959,17.005280 158.973816,12.301591 
	C156.455887,13.494768 153.865372,14.722340 150.691269,15.319720 
	C147.789764,15.279861 144.888275,15.240002 141.148499,15.061601 
	C138.083099,15.095599 135.017685,15.129598 131.313004,15.034134 
	C130.881851,15.073810 130.450699,15.113485 129.279572,15.267934 
	C125.757851,16.174715 122.310966,17.011795 122.759285,21.996637 
	C122.811356,22.575556 120.342499,23.381197 118.405083,24.139965 
	C110.989922,25.252453 110.972290,25.252554 111.015060,32.673267 
	C111.031174,35.468040 111.149963,38.262215 110.878128,41.622120 
	C110.249992,41.807529 109.621857,41.992943 108.212990,42.080963 
	C105.864128,42.722034 103.430603,43.161758 101.205528,44.097248 
	C100.232582,44.506306 99.685959,45.929390 98.290802,47.207462 
	C93.550346,48.222672 88.809883,49.237877 83.196335,50.129669 
	C82.810028,51.383194 82.137657,52.626091 82.090637,53.892212 
	C81.945038,57.812878 82.037422,61.742378 82.037422,65.984833 
	C77.898956,66.339348 74.199570,66.618713 70.509193,66.988228 
	C68.664139,67.172974 66.835556,67.522331 64.237312,68.275108 
	C64.146950,76.814323 64.056580,85.353531 63.131409,94.008293 
	C59.102364,94.394501 55.073315,94.780701 50.142330,95.004692 
	C47.567867,95.004692 44.993404,95.004692 42.001030,95.004692 
	C42.001030,102.376556 42.001030,109.105766 41.268303,116.153069 
	C37.899139,117.003799 34.529980,117.854523 31.170227,118.702881 
	C31.170227,119.737602 31.170227,120.882027 31.032829,122.951492 
	C31.031609,132.593979 30.933216,142.238541 31.139187,151.876602 
	C31.168396,153.243454 32.437275,155.449432 33.549809,155.756973 
	C36.324276,156.523926 39.339211,156.420990 43.020916,156.870865 
	C44.601830,156.611969 46.241791,156.539917 47.753513,156.062119 
	C54.620567,153.891754 61.408485,151.462891 68.307762,149.404938 
	C74.909943,147.435593 81.614357,145.808990 88.790993,144.057480 
	C89.131500,144.004303 89.472015,143.951141 90.641289,144.048141 
	C95.420219,142.636887 100.199150,141.225632 105.578987,139.807846 
	C106.070503,139.462402 106.562027,139.116943 107.803589,138.863907 
	C110.561432,137.931610 113.319267,136.999313 116.738541,136.016663 
	C117.178680,135.963165 117.618813,135.909668 118.715088,135.935791 
	C119.484741,135.548431 120.254395,135.161072 121.792458,134.903702 
	C128.215073,133.188950 134.637680,131.474197 141.591614,129.711319 
	C142.038254,129.410004 142.484879,129.108688 143.725052,128.958313 
	C145.477203,128.600311 147.229355,128.242310 149.533905,127.953354 
	C149.740768,127.658813 149.947617,127.364281 150.089600,127.043892 
	C150.089600,127.043892 150.066757,127.109909 150.844696,126.685715 
	C150.844482,109.808403 150.844269,92.931084 150.977631,75.147125 
	C150.651505,68.253128 150.309296,61.359829 150.008591,54.464722 
	C149.912399,52.258938 149.926102,50.048359 150.055664,47.189857 
z"/>
<path fill="#7679BD" opacity="1.000000" stroke="none" 
	d="
M116.077103,136.067017 
	C113.319267,136.999313 110.561432,137.931610 107.444221,138.510925 
	C107.044540,137.750885 107.004219,137.343826 106.961929,136.474274 
	C106.911957,125.371681 106.863953,114.731621 106.864029,103.689774 
	C106.326431,101.182930 105.740746,99.077873 105.271973,96.639732 
	C108.014931,91.217896 110.526672,86.064339 113.348763,81.086746 
	C114.039551,79.868340 115.746040,79.225784 116.994698,78.765854 
	C117.003120,94.910728 116.960571,110.608467 117.048500,126.305466 
	C117.061127,128.559174 117.703140,130.809372 118.056076,133.306549 
	C118.058281,133.551895 118.021240,134.041245 117.763611,134.061157 
	C117.029686,134.743057 116.553391,135.405029 116.077103,136.067017 
z"/>
<path fill="#7579BC" opacity="1.000000" stroke="none" 
	d="
M141.060303,129.759445 
	C134.637680,131.474197 128.215073,133.188950 121.426102,134.494598 
	C121.028137,133.396317 120.996536,132.707138 121.239456,131.785217 
	C124.644096,130.697968 127.774223,129.843460 131.000427,129.260742 
	C134.807388,131.050690 133.032593,127.822151 133.037445,126.947777 
	C133.131317,110.005234 133.081146,93.061890 133.279938,75.858025 
	C135.939728,72.429512 138.380157,69.261681 140.862610,66.555054 
	C140.956497,87.930656 141.008392,108.845055 141.060303,129.759445 
z"/>
<path fill="#377AC5" opacity="1.000000" stroke="none" 
	d="
M108.993721,42.178352 
	C109.621857,41.992943 110.249992,41.807529 111.337845,41.148094 
	C112.427322,38.688316 113.115334,36.718658 113.669998,34.712143 
	C114.193199,32.819420 114.576050,30.887905 115.285431,28.866507 
	C116.042221,28.207785 116.534225,27.656012 117.307121,27.018471 
	C118.098076,26.647707 118.608147,26.362709 119.480232,26.048988 
	C125.492409,24.512308 127.451576,19.547657 130.019547,15.153160 
	C130.450699,15.113485 130.881851,15.073810 131.823456,15.379564 
	C134.118500,16.791176 135.903091,17.857355 137.185242,18.623352 
	C135.164627,21.101130 133.580063,23.044212 131.991196,25.364063 
	C131.965378,26.493641 131.943848,27.246445 131.638962,28.174988 
	C130.922516,30.985790 130.308594,33.606995 130.105347,36.259666 
	C129.885956,39.123096 128.732025,40.867283 125.368073,41.177822 
	C123.340446,41.142963 121.718201,41.102810 119.782280,41.223236 
	C117.849724,44.808575 116.320839,48.321060 111.637680,49.054947 
	C110.869003,48.998371 110.429726,48.966991 109.868454,48.693359 
	C108.832870,48.615517 107.919273,48.779926 106.994171,48.964046 
	C106.982674,48.983757 106.941467,49.003387 106.636185,49.139744 
	C101.567657,51.981804 104.352013,56.333755 103.678894,59.851204 
	C101.880257,56.771091 100.394615,53.839626 98.919769,50.546059 
	C98.969704,49.460506 99.008820,48.737061 99.427307,47.994183 
	C103.371284,46.838676 107.632599,46.806850 108.993721,42.178352 
z"/>
<path fill="#3C79C3" opacity="1.000000" stroke="none" 
	d="
M42.257618,156.667221 
	C39.339211,156.420990 36.324276,156.523926 33.549809,155.756973 
	C32.437275,155.449432 31.168396,153.243454 31.139187,151.876602 
	C30.933216,142.238541 31.031609,132.593979 31.508141,122.503632 
	C35.581284,122.460693 39.179111,122.865608 42.840240,123.677765 
	C43.259964,131.464661 43.639820,138.843292 43.961151,146.224472 
	C44.087574,149.128448 44.083248,152.038116 43.892349,155.048737 
	C43.183365,155.657242 42.720490,156.162231 42.257618,156.667221 
z"/>
<path fill="#8696D1" opacity="1.000000" stroke="none" 
	d="
M42.776943,123.270523 
	C39.179111,122.865608 35.581284,122.460693 31.576839,122.041122 
	C31.170227,120.882027 31.170227,119.737602 31.170227,118.702881 
	C34.529980,117.854523 37.899139,117.003799 41.938034,116.160736 
	C43.724281,116.394783 44.840797,116.621162 46.388046,116.918159 
	C52.511902,117.458694 58.205025,117.928604 63.757576,118.713028 
	C62.698204,119.634171 61.839951,120.629700 60.850685,120.783730 
	C54.842686,121.719162 48.804829,122.462822 42.776943,123.270523 
z"/>
<path fill="#374182" opacity="1.000000" stroke="none" 
	d="
M141.325958,129.735382 
	C141.008392,108.845055 140.956497,87.930656 140.929031,66.199799 
	C141.654999,64.580292 142.356552,63.777256 143.072876,63.420643 
	C143.122879,66.245590 143.158081,68.624115 143.151215,71.469376 
	C143.131836,89.951614 143.154541,107.967117 143.143860,126.335938 
	C143.050812,127.395302 142.991165,128.101334 142.931503,128.807373 
	C142.484879,129.108688 142.038254,129.410004 141.325958,129.735382 
z"/>
<path fill="#4A5093" opacity="1.000000" stroke="none" 
	d="
M120.964935,132.017944 
	C120.996536,132.707138 121.028137,133.396317 121.041893,134.429596 
	C120.254395,135.161072 119.484741,135.548431 118.389847,135.593231 
	C118.050148,134.847534 118.035690,134.444382 118.021240,134.041245 
	C118.021240,134.041245 118.058281,133.551895 118.114258,132.861755 
	C118.358932,119.122627 118.617889,106.074097 118.698448,93.024452 
	C118.726852,88.423409 118.318855,83.819679 118.414040,79.230087 
	C119.438553,79.592354 120.159134,79.941704 120.754425,80.508240 
	C120.653496,81.488174 120.677856,82.250931 120.751434,83.478928 
	C120.855423,99.968758 120.910179,115.993347 120.964935,132.017944 
z"/>
<path fill="#AC4254" opacity="1.000000" stroke="none" 
	d="
M156.803253,25.059647 
	C155.292206,28.860188 153.590591,32.599163 152.336014,36.482559 
	C151.476456,39.143200 151.239105,42.004845 150.212311,44.842476 
	C148.822235,45.144703 147.710327,45.127361 147.116058,45.673412 
	C146.069199,46.635326 145.338409,47.941246 144.063522,49.085152 
	C143.108444,49.050110 142.565140,49.033043 142.061996,48.682220 
	C142.471558,47.293175 142.840942,46.237892 143.476166,44.988831 
	C144.926788,43.200386 146.562805,41.767178 147.203201,39.977673 
	C148.566696,36.167610 149.413132,32.172512 150.433868,27.885464 
	C150.774124,26.099087 151.151993,24.680492 151.795685,23.376759 
	C153.642090,24.014294 155.222656,24.536968 156.803253,25.059647 
z"/>
<path fill="#7F7AAC" opacity="1.000000" stroke="none" 
	d="
M42.639267,156.769043 
	C42.720490,156.162231 43.183365,155.657242 44.258781,155.023285 
	C49.917980,153.264069 54.964638,151.633850 60.390701,149.962372 
	C69.842705,147.599960 78.915306,145.278778 88.074585,143.222107 
	C88.198792,143.668320 88.236313,143.850052 88.273834,144.031769 
	C81.614357,145.808990 74.909943,147.435593 68.307762,149.404938 
	C61.408485,151.462891 54.620567,153.891754 47.753513,156.062119 
	C46.241791,156.539917 44.601830,156.611969 42.639267,156.769043 
z"/>
<path fill="#7E76AB" opacity="1.000000" stroke="none" 
	d="
M151.529861,23.261898 
	C151.151993,24.680492 150.774124,26.099087 150.155991,28.112503 
	C147.606628,33.442657 145.297546,38.177990 142.993256,42.484653 
	C143.063614,40.047871 143.129181,38.039764 143.496429,35.863770 
	C145.115112,31.125803 146.814789,26.616344 147.553238,21.954618 
	C147.833054,20.188099 145.897232,18.070602 144.616638,16.103584 
	C143.557007,16.098776 142.852005,16.103464 142.107147,15.881119 
	C142.067261,15.654082 141.986771,15.200143 141.986771,15.200143 
	C144.888275,15.240002 147.789764,15.279861 151.059113,15.911579 
	C151.534073,16.869566 151.641159,17.235695 151.541199,18.034538 
	C151.399384,20.065470 151.464615,21.663685 151.529861,23.261898 
z"/>
<path fill="#4373A5" opacity="1.000000" stroke="none" 
	d="
M45.957317,116.847534 
	C44.840797,116.621162 43.724281,116.394783 42.304398,116.001694 
	C42.001030,109.105766 42.001030,102.376556 42.001030,95.004692 
	C44.993404,95.004692 47.567867,95.004692 50.962952,95.243683 
	C55.901173,95.979988 60.018780,96.477295 63.653301,96.984634 
	C58.894474,97.002319 54.609623,97.186424 50.345638,96.966263 
	C46.357571,96.760345 44.211121,98.652603 44.350281,102.344795 
	C44.532982,107.192345 45.390190,112.014473 45.957317,116.847534 
z"/>
<path fill="#4477BF" opacity="1.000000" stroke="none" 
	d="
M141.567627,15.130872 
	C141.986771,15.200143 142.067261,15.654082 142.075562,16.309250 
	C142.071869,17.958649 142.074600,18.953316 142.045380,19.947039 
	C141.879303,25.592493 141.406784,25.846846 135.963043,24.372166 
	C134.782684,24.052410 133.325287,24.755384 131.995483,24.987297 
	C133.580063,23.044212 135.164627,21.101130 137.185242,18.623352 
	C135.903091,17.857355 134.118500,16.791176 132.143097,15.444296 
	C135.017685,15.129598 138.083099,15.095599 141.567627,15.130872 
z"/>
<path fill="#4373A5" opacity="1.000000" stroke="none" 
	d="
M99.047943,48.013611 
	C99.008820,48.737061 98.969704,49.460506 98.536957,50.602219 
	C95.108429,51.651134 92.073524,52.281792 88.798668,52.815285 
	C87.693497,53.815884 86.828285,54.913651 85.959755,56.460785 
	C85.963654,59.607807 85.970879,62.305466 85.760620,65.176529 
	C85.041878,65.587875 84.540619,65.825821 83.998093,65.595154 
	C83.994354,60.168720 84.031891,55.210899 84.069427,50.253082 
	C88.809883,49.237877 93.550346,48.222672 98.643616,47.330135 
	C99.013603,47.639740 99.030769,47.826675 99.047943,48.013611 
z"/>
<path fill="#6B8CC8" opacity="1.000000" stroke="none" 
	d="
M64.136383,96.974594 
	C60.018780,96.477295 55.901173,95.979988 51.413918,95.324799 
	C55.073315,94.780701 59.102364,94.394501 63.799946,93.983139 
	C64.637444,93.961624 64.806404,93.965271 65.367661,93.987183 
	C66.801422,93.988701 67.842873,93.971954 69.296738,94.055588 
	C75.131020,94.464592 80.552887,94.773224 85.995369,95.326599 
	C86.015976,95.571335 86.065361,96.061668 86.052933,96.300156 
	C86.040497,96.538635 86.007347,97.015099 85.577461,97.009293 
	C83.426590,97.006737 81.705605,97.009987 79.587463,97.011971 
	C78.131218,97.013069 77.072128,97.015442 75.568817,97.012009 
	C72.765060,96.995316 70.405533,96.984428 67.653023,96.963455 
	C66.218819,96.960442 65.177605,96.967522 64.136383,96.974594 
z"/>
<path fill="#7878AB" opacity="1.000000" stroke="none" 
	d="
M143.328278,128.882843 
	C142.991165,128.101334 143.050812,127.395302 143.515686,126.304977 
	C144.968262,124.535400 146.657852,123.271835 146.947647,121.742950 
	C147.993332,116.225800 148.567780,110.619339 149.425385,105.453331 
	C149.709305,112.943344 149.888031,120.026627 150.066757,127.109909 
	C150.066757,127.109909 150.089600,127.043892 149.872528,127.102112 
	C149.430786,127.401665 149.206146,127.642990 148.981506,127.884315 
	C147.229355,128.242310 145.477203,128.600311 143.328278,128.882843 
z"/>
<path fill="#99B7D2" opacity="1.000000" stroke="none" 
	d="
M83.632881,50.191376 
	C84.031891,55.210899 83.994354,60.168720 83.833435,65.902618 
	C82.747421,67.244637 81.784782,67.810562 80.374809,68.338348 
	C75.064438,68.621864 70.201401,68.943542 65.229233,68.903854 
	C65.079910,68.294075 65.039719,68.045647 64.999527,67.797226 
	C66.835556,67.522331 68.664139,67.172974 70.509193,66.988228 
	C74.199570,66.618713 77.898956,66.339348 82.037422,65.984833 
	C82.037422,61.742378 81.945038,57.812878 82.090637,53.892212 
	C82.137657,52.626091 82.810028,51.383194 83.632881,50.191376 
z"/>
<path fill="#4A5093" opacity="1.000000" stroke="none" 
	d="
M88.532410,144.044617 
	C88.236313,143.850052 88.198792,143.668320 88.082596,142.758270 
	C88.141159,133.326035 88.278412,124.622139 88.521973,115.715912 
	C89.077576,115.132156 89.526863,114.750732 89.978622,114.680344 
	C90.020805,115.403900 90.060532,115.816406 90.105850,116.575211 
	C90.175064,117.616592 90.238693,118.311691 90.263466,119.473190 
	C90.287292,126.958122 90.349983,133.976654 90.341415,141.358856 
	C90.117615,142.447678 89.965065,143.172821 89.812523,143.897980 
	C89.472015,143.951141 89.131500,144.004303 88.532410,144.044617 
z"/>
<path fill="#CC3B42" opacity="1.000000" stroke="none" 
	d="
M151.795685,23.376759 
	C151.464615,21.663685 151.399384,20.065470 151.846756,18.086866 
	C154.348450,17.469278 156.337540,17.232080 158.326614,16.994883 
	C158.252991,19.035629 158.179367,21.076374 158.105743,23.117119 
	C157.745956,23.580759 157.386185,24.044397 156.914825,24.783840 
	C155.222656,24.536968 153.642090,24.014294 151.795685,23.376759 
z"/>
<path fill="#3C6B9D" opacity="1.000000" stroke="none" 
	d="
M115.020653,28.973457 
	C114.576050,30.887905 114.193199,32.819420 113.669998,34.712143 
	C113.115334,36.718658 112.427322,38.688316 111.509750,40.865368 
	C111.149963,38.262215 111.031174,35.468040 111.015060,32.673267 
	C110.972290,25.252554 110.989922,25.252453 118.712921,24.443596 
	C119.053246,25.190720 119.085724,25.634212 119.118210,26.077709 
	C118.608147,26.362709 118.098076,26.647707 117.034302,27.109570 
	C115.993958,27.848776 115.507309,28.411118 115.020653,28.973457 
z"/>
<path fill="#E3E7FD" opacity="1.000000" stroke="none" 
	d="
M150.455719,126.897812 
	C149.888031,120.026627 149.709305,112.943344 149.539749,105.018509 
	C149.477432,101.794052 149.405975,99.411156 149.438690,96.589943 
	C149.476318,93.761795 149.409744,91.371971 149.429169,88.652435 
	C149.457275,87.875885 149.399384,87.429039 149.436462,86.618423 
	C149.467300,85.512215 149.403152,84.769760 149.447906,83.629684 
	C149.481628,82.145630 149.406433,81.059189 149.439178,79.581924 
	C149.604523,78.111931 149.661926,77.032753 149.999329,75.991974 
	C150.467575,76.038170 150.655807,76.045967 150.844055,76.053772 
	C150.844269,92.931084 150.844482,109.808403 150.455719,126.897812 
z"/>
<path fill="#863C40" opacity="1.000000" stroke="none" 
	d="
M158.472092,23.069048 
	C158.179367,21.076374 158.252991,19.035629 158.326614,16.994883 
	C156.337540,17.232080 154.348450,17.469278 152.053802,17.654152 
	C151.641159,17.235695 151.534073,16.869566 151.350922,16.226675 
	C153.865372,14.722340 156.455887,13.494768 158.973816,12.301591 
	C163.101959,17.005280 163.039185,19.199402 158.472092,23.069048 
z"/>
<path fill="#4179B7" opacity="1.000000" stroke="none" 
	d="
M119.480232,26.048988 
	C119.085724,25.634212 119.053246,25.190720 119.031570,24.414476 
	C120.342499,23.381197 122.811356,22.575556 122.759285,21.996637 
	C122.310966,17.011795 125.757851,16.174715 129.649567,15.210546 
	C127.451576,19.547657 125.492409,24.512308 119.480232,26.048988 
z"/>
<path fill="#7F7AAC" opacity="1.000000" stroke="none" 
	d="
M90.226906,143.973053 
	C89.965065,143.172821 90.117615,142.447678 90.703674,141.353241 
	C94.428169,139.969299 97.719154,138.954636 101.330475,137.918243 
	C102.436234,137.586868 103.221642,137.277237 104.216469,136.974686 
	C104.425880,136.981781 104.844673,136.996948 104.936493,136.952606 
	C105.028313,136.908264 105.230919,136.885071 105.152695,137.245438 
	C105.042336,138.341995 105.010208,139.078186 104.978081,139.814377 
	C100.199150,141.225632 95.420219,142.636887 90.226906,143.973053 
z"/>
<path fill="#A6A9CA" opacity="1.000000" stroke="none" 
	d="
M150.910843,75.600449 
	C150.655807,76.045967 150.467575,76.038170 149.827576,75.876724 
	C149.192200,75.515945 149.024078,75.296913 148.895233,74.716225 
	C148.913681,73.899078 148.908325,73.431694 148.934113,72.498802 
	C148.820023,64.240540 148.674774,56.447784 148.693954,48.429035 
	C149.202103,48.082020 149.545807,47.960999 149.889511,47.839973 
	C149.926102,50.048359 149.912399,52.258938 150.008591,54.464722 
	C150.309296,61.359829 150.651505,68.253128 150.910843,75.600449 
z"/>
<path fill="#7F284C" opacity="1.000000" stroke="none" 
	d="
M149.972595,47.514915 
	C149.545807,47.960999 149.202103,48.082020 148.375946,48.529922 
	C145.640198,52.270519 143.386887,55.684235 141.100906,58.707275 
	C142.203934,55.245445 143.339615,52.174294 144.475296,49.103134 
	C145.338409,47.941246 146.069199,46.635326 147.116058,45.673412 
	C147.710327,45.127361 148.822235,45.144703 149.921646,45.037941 
	C150.113403,45.841667 150.084534,46.515762 149.972595,47.514915 
z"/>
<path fill="#4477BF" opacity="1.000000" stroke="none" 
	d="
M99.427307,47.994183 
	C99.030769,47.826675 99.013603,47.639740 98.971085,47.172401 
	C99.685959,45.929390 100.232582,44.506306 101.205528,44.097248 
	C103.430603,43.161758 105.864128,42.722034 108.603355,42.129654 
	C107.632599,46.806850 103.371284,46.838676 99.427307,47.994183 
z"/>
<path fill="#E3E7FD" opacity="1.000000" stroke="none" 
	d="
M64.618423,68.036163 
	C65.039719,68.045647 65.079910,68.294075 65.232864,69.357483 
	C65.222214,78.104614 65.098785,86.036766 64.975357,93.968910 
	C64.806404,93.965271 64.637444,93.961624 64.217346,93.925369 
	C64.056580,85.353531 64.146950,76.814323 64.618423,68.036163 
z"/>
<path fill="#53528E" opacity="1.000000" stroke="none" 
	d="
M105.278534,139.811111 
	C105.010208,139.078186 105.042336,138.341995 105.440483,137.263611 
	C106.192299,136.926529 106.578102,136.931656 106.963898,136.936783 
	C107.004219,137.343826 107.044540,137.750885 107.069199,138.464722 
	C106.562027,139.116943 106.070503,139.462402 105.278534,139.811111 
z"/>
<path fill="#656CAE" opacity="1.000000" stroke="none" 
	d="
M117.763611,134.061157 
	C118.035690,134.444382 118.050148,134.847534 118.061775,135.553436 
	C117.618813,135.909668 117.178680,135.963165 116.407822,136.041840 
	C116.553391,135.405029 117.029686,134.743057 117.763611,134.061157 
z"/>
<path fill="#A6A9CA" opacity="1.000000" stroke="none" 
	d="
M149.257706,127.918839 
	C149.206146,127.642990 149.430786,127.401665 149.904968,127.115036 
	C149.947617,127.364281 149.740768,127.658813 149.257706,127.918839 
z"/>
<path fill="#C03A51" opacity="1.000000" stroke="none" 
	d="
M120.879715,80.291061 
	C120.159134,79.941704 119.438553,79.592354 118.295334,78.993988 
	C117.576973,78.602806 117.281265,78.460640 116.985550,78.318481 
	C115.746040,79.225784 114.039551,79.868340 113.348763,81.086746 
	C110.526672,86.064339 108.014931,91.217896 105.040726,96.814049 
	C104.512779,97.858452 104.332993,98.395454 103.872269,99.147820 
	C101.071297,102.686417 98.551270,106.009651 95.826874,109.002388 
	C95.349854,107.000931 95.077194,105.329964 94.978355,103.322357 
	C95.316200,102.793625 95.480217,102.601547 95.636963,102.407578 
	C95.629700,102.405685 95.682426,102.435097 95.788101,102.058800 
	C96.058701,100.690834 96.223633,99.699158 96.684265,98.559280 
	C97.965530,96.964767 98.951096,95.518471 100.241440,93.903885 
	C102.663040,89.188942 104.779854,84.642281 106.945526,79.765488 
	C107.606262,78.290184 108.218147,77.145004 108.996475,75.680824 
	C110.738403,71.939774 112.896523,69.321365 117.316711,69.847359 
	C118.281113,70.325294 119.068413,70.534706 119.983994,71.152367 
	C120.186966,71.835930 120.261673,72.111259 120.449654,72.496330 
	C120.733215,72.735344 120.912659,72.850311 121.064949,72.940987 
	C121.028633,72.930984 121.049011,72.858452 121.212311,73.157425 
	C125.162399,78.419434 127.223465,73.782440 130.031891,72.153351 
	C130.916397,72.935944 131.556656,73.509392 132.148682,74.313828 
	C132.100433,74.544823 131.944260,74.990181 131.674210,75.135559 
	C130.975082,75.947632 130.546021,76.614311 130.194031,77.616562 
	C130.334610,78.172729 130.398071,78.393326 130.196014,78.791161 
	C127.438667,83.002396 124.038399,80.820168 120.879715,80.291061 
z"/>
<path fill="#7C82C7" opacity="1.000000" stroke="none" 
	d="
M116.994698,78.765854 
	C117.281265,78.460640 117.576973,78.602806 117.991394,78.981064 
	C118.318855,83.819679 118.726852,88.423409 118.698448,93.024452 
	C118.617889,106.074097 118.358932,119.122627 118.112053,132.616394 
	C117.703140,130.809372 117.061127,128.559174 117.048500,126.305466 
	C116.960571,110.608467 117.003120,94.910728 116.994698,78.765854 
z"/>
<path fill="#374182" opacity="1.000000" stroke="none" 
	d="
M106.961929,136.474274 
	C106.578102,136.931656 106.192299,136.926529 105.518707,136.903229 
	C105.230919,136.885071 105.028313,136.908264 105.013977,136.625153 
	C104.998260,135.893082 104.996880,135.444138 105.049477,134.625244 
	C105.076599,133.509918 105.049744,132.764526 105.071243,131.550842 
	C105.080780,124.387047 105.041962,117.691551 105.043259,110.664528 
	C105.057693,109.889290 105.032005,109.445580 105.052368,108.627907 
	C105.069191,107.502686 105.039948,106.751411 105.042297,105.748749 
	C105.062706,105.328819 105.051521,105.160271 105.072342,104.742294 
	C105.092758,104.325592 105.081177,104.158340 105.129646,104.036293 
	C105.189705,104.081505 105.339470,104.094688 105.585777,104.097626 
	C106.160011,104.094246 106.487968,104.091240 106.815948,104.091553 
	C106.863953,114.731621 106.911957,125.371681 106.961929,136.474274 
z"/>
<path fill="#53528E" opacity="1.000000" stroke="none" 
	d="
M106.864029,103.689774 
	C106.487968,104.091240 106.160011,104.094246 105.509750,103.715408 
	C104.842682,101.864326 104.497940,100.398392 104.153198,98.932457 
	C104.332993,98.395454 104.512779,97.858452 104.923813,97.147133 
	C105.740746,99.077873 106.326431,101.182930 106.864029,103.689774 
z"/>
<path fill="#737BC5" opacity="1.000000" stroke="none" 
	d="
M121.239456,131.785217 
	C120.910179,115.993347 120.855423,99.968758 121.179169,83.552277 
	C124.663696,83.436119 127.769730,83.711853 130.904083,84.456284 
	C130.923050,99.612984 130.913696,114.300964 130.904327,128.988953 
	C127.774223,129.843460 124.644096,130.697968 121.239456,131.785217 
z"/>
<path fill="#4E5495" opacity="1.000000" stroke="none" 
	d="
M131.000412,129.260742 
	C130.913696,114.300964 130.923050,99.612984 130.951889,84.095749 
	C130.801422,81.715645 130.631470,80.164780 130.461517,78.613922 
	C130.398071,78.393326 130.334610,78.172729 130.519333,77.522995 
	C131.305801,76.706276 131.844070,76.318687 132.551590,75.979134 
	C132.720840,76.027161 133.060577,76.118706 133.060577,76.118706 
	C133.081146,93.061890 133.131317,110.005234 133.037445,126.947777 
	C133.032593,127.822151 134.807388,131.050690 131.000412,129.260742 
z"/>
<path fill="#7878AB" opacity="1.000000" stroke="none" 
	d="
M133.279938,75.858025 
	C133.060577,76.118706 132.720840,76.027161 132.438736,75.745720 
	C132.085846,75.306252 132.015045,75.148216 131.944260,74.990181 
	C131.944260,74.990181 132.100433,74.544823 132.390228,74.070671 
	C135.497879,68.763664 138.315720,63.930809 141.133560,59.097954 
	C143.386887,55.684235 145.640198,52.270519 148.211517,48.755913 
	C148.674774,56.447784 148.820023,64.240540 148.778671,72.274292 
	C148.385025,72.010384 148.177994,71.505463 147.977386,70.562683 
	C147.750732,65.740448 147.517639,61.356083 147.284546,56.971714 
	C146.970337,56.909569 146.656128,56.847420 146.341919,56.785275 
	C145.247314,58.848255 144.152695,60.911240 143.058090,62.974220 
	C142.356552,63.777256 141.654999,64.580292 140.887024,65.738586 
	C138.380157,69.261681 135.939728,72.429512 133.279938,75.858025 
z"/>
<path fill="#747AC1" opacity="1.000000" stroke="none" 
	d="
M120.336372,72.386589 
	C120.261673,72.111259 120.186966,71.835930 120.197906,70.811653 
	C120.194489,63.741714 120.105446,57.420734 120.015533,50.640228 
	C120.041756,47.141357 120.068855,44.102005 120.095947,41.062653 
	C121.718201,41.102810 123.340446,41.142963 125.525146,41.476505 
	C127.763618,42.880501 129.439651,43.991108 131.090012,45.558891 
	C131.165848,51.155426 131.267365,56.294788 131.326691,61.807003 
	C129.437820,70.695381 126.517464,73.742157 121.049011,72.858452 
	C121.049011,72.858452 121.028633,72.930984 120.994431,72.781128 
	C120.791107,72.450485 120.583153,72.368919 120.336372,72.386589 
z"/>
<path fill="#3679C6" opacity="1.000000" stroke="none" 
	d="
M85.978104,65.003120 
	C85.970879,62.305466 85.963654,59.607807 86.257599,56.457676 
	C87.452744,55.931511 88.346725,55.857822 88.618698,55.835403 
	C88.811470,54.493614 88.925049,53.703030 89.038628,52.912445 
	C92.073524,52.281792 95.108429,51.651134 98.526146,50.964317 
	C100.394615,53.839626 101.880257,56.771091 103.681152,60.184753 
	C103.996231,61.111702 103.996063,61.556446 103.708191,62.141178 
	C101.281494,63.515858 99.142487,64.750549 96.612534,66.076736 
	C92.807091,65.779854 89.392601,65.391487 85.978104,65.003120 
z"/>
<path fill="#677DC8" opacity="1.000000" stroke="none" 
	d="
M109.990440,48.935616 
	C110.429726,48.966991 110.869003,48.998371 111.899612,49.269371 
	C114.340675,50.344887 116.190430,51.180786 118.037796,52.394005 
	C118.020882,53.527882 118.006355,54.284435 117.590103,55.037453 
	C114.296623,55.060856 111.046837,54.994637 111.716576,59.229988 
	C112.401054,63.558514 110.418831,66.073959 106.820686,67.681068 
	C106.746727,61.246151 106.844093,55.124767 106.941467,49.003387 
	C106.941467,49.003387 106.982674,48.983757 107.367073,48.978203 
	C108.497795,48.960300 109.244118,48.947960 109.990440,48.935616 
z"/>
<path fill="#677DC8" opacity="1.000000" stroke="none" 
	d="
M131.991196,25.364067 
	C133.325287,24.755384 134.782684,24.052410 135.963043,24.372166 
	C141.406784,25.846846 141.879303,25.592493 142.045380,19.947039 
	C142.074600,18.953316 142.071869,17.958649 142.115448,16.536285 
	C142.852005,16.103464 143.557007,16.098776 144.664658,16.483301 
	C146.556076,21.025934 145.532623,24.699501 142.623993,28.127308 
	C141.829651,28.803535 141.339615,29.423561 140.542419,29.938332 
	C135.216690,27.956484 134.425629,28.754608 134.627106,34.096146 
	C134.714005,36.399281 133.523285,38.750610 132.741547,40.704746 
	C132.354187,36.219379 132.138260,32.109314 131.922333,27.999250 
	C131.943848,27.246445 131.965378,26.493641 131.991196,25.364067 
z"/>
<path fill="#4477BF" opacity="1.000000" stroke="none" 
	d="
M106.636185,49.139744 
	C106.844093,55.124767 106.746727,61.246151 106.821243,68.065079 
	C106.621254,70.457184 106.249390,72.151726 105.706253,73.568497 
	C104.358940,71.849297 103.182907,70.407875 102.090439,68.616463 
	C102.781288,66.178047 103.388588,64.089622 103.995895,62.001194 
	C103.996063,61.556446 103.996231,61.111702 103.994141,60.333401 
	C104.352013,56.333755 101.567657,51.981804 106.636185,49.139744 
z"/>
<path fill="#4477BF" opacity="1.000000" stroke="none" 
	d="
M131.638947,28.174988 
	C132.138260,32.109314 132.354187,36.219379 132.752197,41.082687 
	C132.924332,42.599476 132.914413,43.363018 132.675491,44.239304 
	C132.002899,44.601936 131.559296,44.851833 131.115677,45.101723 
	C129.439651,43.991108 127.763618,42.880501 125.930511,41.471210 
	C128.732025,40.867283 129.885956,39.123096 130.105347,36.259666 
	C130.308594,33.606995 130.922516,30.985790 131.638947,28.174988 
z"/>
<path fill="#4477BF" opacity="1.000000" stroke="none" 
	d="
M118.040176,52.016685 
	C116.190430,51.180786 114.340675,50.344887 112.228996,49.294563 
	C116.320839,48.321060 117.849724,44.808575 119.782280,41.223236 
	C120.068855,44.102005 120.041756,47.141357 119.762016,50.740093 
	C119.019638,51.538548 118.529907,51.777615 118.040176,52.016685 
z"/>
<path fill="#4477BF" opacity="1.000000" stroke="none" 
	d="
M109.868454,48.693359 
	C109.244118,48.947960 108.497795,48.960300 107.378571,48.958488 
	C107.919273,48.779926 108.832870,48.615517 109.868454,48.693359 
z"/>
<path fill="#4179B7" opacity="1.000000" stroke="none" 
	d="
M115.285431,28.866508 
	C115.507309,28.411118 115.993958,27.848776 116.753418,27.195337 
	C116.534225,27.656012 116.042221,28.207785 115.285431,28.866508 
z"/>
<path fill="#737BC2" opacity="1.000000" stroke="none" 
	d="
M60.011299,150.003616 
	C54.964638,151.633850 49.917980,153.264069 44.504894,154.919739 
	C44.083248,152.038116 44.087574,149.128448 43.961151,146.224472 
	C43.639820,138.843292 43.259964,131.464661 42.840240,123.677765 
	C48.804829,122.462822 54.842686,121.719162 60.850685,120.783730 
	C61.839951,120.629700 62.698204,119.634171 64.086807,118.662216 
	C65.373787,118.577881 66.190964,118.858879 67.133804,119.422562 
	C66.842026,121.469620 66.424583,123.234001 65.865784,125.284271 
	C64.819199,126.715393 63.913960,127.860626 62.810364,129.015869 
	C62.265705,129.164551 61.919403,129.303207 61.573101,129.441879 
	C61.721783,129.628067 61.870468,129.814255 61.912109,130.320374 
	C59.856049,133.432983 57.907024,136.225677 55.656075,139.103439 
	C54.206253,140.073883 53.058357,140.959259 51.097363,142.471756 
	C53.764206,143.584503 55.401321,144.267578 57.302185,145.078247 
	C58.065502,145.784271 58.565075,146.362717 59.179337,147.241013 
	C59.533119,148.361786 59.772209,149.182693 60.011299,150.003616 
z"/>
<path fill="#3A79C4" opacity="1.000000" stroke="none" 
	d="
M67.008141,119.139862 
	C66.190964,118.858879 65.373787,118.577881 64.227379,118.347702 
	C58.205025,117.928604 52.511902,117.458694 46.388046,116.918159 
	C45.390190,112.014473 44.532982,107.192345 44.350281,102.344795 
	C44.211121,98.652603 46.357571,96.760345 50.345638,96.966263 
	C54.609623,97.186424 58.894474,97.002319 63.653301,96.984634 
	C65.177605,96.967522 66.218819,96.960442 67.645706,97.434288 
	C68.087532,104.902092 68.143692,111.888954 67.902954,118.946472 
	C67.406754,119.058022 67.207451,119.098938 67.008141,119.139862 
z"/>
<path fill="#747BBC" opacity="1.000000" stroke="none" 
	d="
M147.970963,71.000542 
	C148.177994,71.505463 148.385025,72.010384 148.747528,72.739807 
	C148.908325,73.431694 148.913681,73.899078 148.750397,74.987976 
	C148.831573,77.063904 149.081406,78.518326 149.331238,79.972748 
	C149.406433,81.059189 149.481628,82.145630 149.270050,83.777359 
	C149.102692,85.209152 149.222092,86.095673 149.341492,86.982185 
	C149.399384,87.429039 149.457275,87.875885 149.122742,88.773376 
	C146.204208,92.036583 145.926651,94.675072 149.334503,97.028259 
	C149.405975,99.411156 149.477432,101.794052 149.434540,104.611771 
	C148.567780,110.619339 147.993332,116.225800 146.947647,121.742950 
	C146.657852,123.271835 144.968262,124.535400 143.549072,125.951653 
	C143.154541,107.967117 143.131836,89.951614 143.549011,71.468704 
	C145.316223,71.001045 146.643600,71.000793 147.970963,71.000542 
z"/>
<path fill="#7579BC" opacity="1.000000" stroke="none" 
	d="
M147.977386,70.562683 
	C146.643600,71.000793 145.316223,71.001045 143.591080,71.001968 
	C143.158081,68.624115 143.122879,66.245590 143.072876,63.420639 
	C144.152695,60.911240 145.247314,58.848255 146.341919,56.785275 
	C146.656128,56.847420 146.970337,56.909569 147.284546,56.971714 
	C147.517639,61.356083 147.750732,65.740448 147.977386,70.562683 
z"/>
<path fill="#7E76AB" opacity="1.000000" stroke="none" 
	d="
M130.196014,78.791161 
	C130.631470,80.164780 130.801422,81.715645 130.923569,83.627045 
	C127.769730,83.711853 124.663696,83.436119 121.129936,83.087044 
	C120.677856,82.250931 120.653496,81.488174 120.754425,80.508240 
	C124.038399,80.820168 127.438667,83.002396 130.196014,78.791161 
z"/>
<path fill="#B74057" opacity="1.000000" stroke="none" 
	d="
M141.100906,58.707275 
	C138.315720,63.930809 135.497879,68.763664 132.438477,73.839676 
	C131.556656,73.509392 130.916397,72.935944 130.146515,71.806206 
	C134.018524,63.838608 138.020172,56.427292 142.021820,49.015980 
	C142.565140,49.033043 143.108444,49.050110 144.063538,49.085155 
	C143.339615,52.174294 142.203934,55.245445 141.100906,58.707275 
z"/>
<path fill="#7F284C" opacity="1.000000" stroke="none" 
	d="
M142.061996,48.682220 
	C138.020172,56.427292 134.018524,63.838608 129.902252,71.597069 
	C127.223465,73.782440 125.162399,78.419434 121.212311,73.157425 
	C126.517464,73.742157 129.437820,70.695381 131.600677,61.637276 
	C132.633530,60.074844 133.350250,59.054996 134.368561,57.875664 
	C136.854675,53.466576 139.039215,49.216972 141.498047,44.979393 
	C142.135269,44.953861 142.498215,44.916298 142.946823,44.956570 
	C143.032486,45.034405 143.210327,45.182602 143.210327,45.182602 
	C142.840942,46.237892 142.471558,47.293175 142.061996,48.682220 
z"/>
<path fill="#823155" opacity="1.000000" stroke="none" 
	d="
M142.988449,42.913326 
	C145.297546,38.177990 147.606628,33.442657 150.193604,28.480286 
	C149.413132,32.172512 148.566696,36.167610 147.203201,39.977673 
	C146.562805,41.767178 144.926788,43.200386 143.476151,44.988831 
	C143.210327,45.182602 143.032486,45.034405 142.964478,44.629463 
	C142.927109,43.787460 142.957779,43.350391 142.988449,42.913326 
z"/>
<path fill="#787BBC" opacity="1.000000" stroke="none" 
	d="
M60.390701,149.962372 
	C59.772209,149.182693 59.533119,148.361786 59.586220,147.246368 
	C64.231552,146.705704 68.697571,146.597305 68.311203,140.026688 
	C73.101662,133.585022 77.633919,127.369385 82.446320,120.973114 
	C84.622871,119.167747 86.519272,117.542999 88.415665,115.918251 
	C88.278412,124.622139 88.141159,133.326035 87.995911,142.493759 
	C78.915306,145.278778 69.842705,147.599960 60.390701,149.962372 
z"/>
<path fill="#747AC1" opacity="1.000000" stroke="none" 
	d="
M142.928284,28.071108 
	C145.532623,24.699501 146.556076,21.025934 145.019318,16.492798 
	C145.897232,18.070602 147.833054,20.188099 147.553238,21.954618 
	C146.814789,26.616344 145.115112,31.125803 143.459015,35.418434 
	C143.056030,32.784363 142.992157,30.427734 142.928284,28.071108 
z"/>
<path fill="#43407A" opacity="1.000000" stroke="none" 
	d="
M142.623993,28.127308 
	C142.992157,30.427734 143.056030,32.784363 143.157318,35.586319 
	C143.129181,38.039764 143.063614,40.047871 142.993256,42.484653 
	C142.957779,43.350391 142.927109,43.787460 142.878815,44.551628 
	C142.498215,44.916298 142.135269,44.953861 141.436493,44.522114 
	C141.016983,39.383064 140.933289,34.713329 140.849579,30.043591 
	C141.339615,29.423561 141.829651,28.803535 142.623993,28.127308 
z"/>
<path fill="#4477BF" opacity="1.000000" stroke="none" 
	d="
M85.760620,65.176529 
	C89.392601,65.391487 92.807091,65.779854 96.917236,66.175743 
	C98.403625,67.096214 99.194366,68.009171 99.539688,68.946579 
	C90.004417,69.101814 90.007912,69.101822 89.993050,78.090324 
	C89.984818,83.069496 90.035736,88.050552 89.905731,93.026741 
	C89.862061,94.698181 90.169044,97.171455 86.856125,95.835831 
	C86.493233,95.426109 86.248573,95.235298 85.974762,95.081863 
	C80.552887,94.773224 75.131020,94.464592 69.128365,93.756454 
	C68.093338,91.571861 67.639091,89.786774 67.486771,88.114365 
	C71.562729,93.930458 77.281754,91.946991 82.518272,92.012764 
	C85.808220,92.054077 87.584724,90.428062 87.739761,87.325874 
	C87.946190,83.195366 87.981415,79.039352 87.772224,74.910400 
	C87.604599,71.602036 86.097626,69.989174 82.223213,70.517632 
	C78.893051,70.971840 75.400032,70.231972 72.259995,69.846237 
	C75.301361,69.240402 78.061752,68.808449 80.822144,68.376495 
	C81.784782,67.810562 82.747421,67.244637 83.874710,66.371239 
	C84.540619,65.825821 85.041878,65.587875 85.760620,65.176529 
z"/>
<path fill="#3A79C4" opacity="1.000000" stroke="none" 
	d="
M88.798668,52.815285 
	C88.925049,53.703030 88.811470,54.493614 88.618698,55.835403 
	C88.346725,55.857822 87.452744,55.931511 86.260925,56.008308 
	C86.828285,54.913651 87.693497,53.815884 88.798668,52.815285 
z"/>
<path fill="#757AC0" opacity="1.000000" stroke="none" 
	d="
M87.003487,96.017365 
	C90.169044,97.171455 89.862061,94.698181 89.905731,93.026741 
	C90.035736,88.050552 89.984818,83.069496 89.993050,78.090324 
	C90.007912,69.101822 90.004417,69.101814 99.876480,68.970627 
	C101.108101,68.968964 101.557487,68.967705 102.006882,68.966454 
	C103.182907,70.407875 104.358940,71.849297 105.898041,73.822205 
	C107.117424,74.902397 107.973724,75.451111 108.830032,75.999825 
	C108.218147,77.145004 107.606262,78.290184 106.627342,79.859314 
	C104.152420,84.879578 102.044533,89.475868 99.936661,94.072166 
	C98.951096,95.518471 97.965530,96.964767 96.451080,98.516426 
	C93.384331,100.292183 90.855804,101.976959 88.306496,103.629684 
	C84.244469,106.263084 80.172440,108.881126 76.096390,111.492783 
	C74.758675,112.349899 73.395340,113.167038 71.931580,113.647919 
	C69.027946,108.812256 70.038467,104.873039 73.382347,101.131889 
	C74.453163,99.933853 75.146820,98.398720 76.013039,97.017815 
	C77.072128,97.015442 78.131218,97.013069 79.689865,97.337410 
	C81.389389,98.605461 82.589348,99.546814 83.789314,100.488167 
	C84.528656,99.330475 85.267998,98.172783 86.007347,97.015099 
	C86.007347,97.015099 86.040497,96.538635 86.287033,96.287796 
	C86.533562,96.036957 87.003487,96.017365 87.003487,96.017365 
z"/>
<path fill="#6A7CC6" opacity="1.000000" stroke="none" 
	d="
M75.568817,97.012009 
	C75.146820,98.398720 74.453163,99.933853 73.382347,101.131889 
	C70.038467,104.873039 69.027946,108.812256 71.833786,113.961151 
	C70.632050,116.044548 69.415947,117.460182 68.199852,118.875824 
	C68.143692,111.888954 68.087532,104.902092 68.038689,97.444382 
	C70.405533,96.984428 72.765060,96.995316 75.568817,97.012009 
z"/>
<path fill="#3C6B9D" opacity="1.000000" stroke="none" 
	d="
M67.184845,88.001678 
	C67.639091,89.786774 68.093338,91.571861 68.715958,93.656082 
	C67.842873,93.971954 66.801422,93.988701 65.367661,93.987183 
	C65.098785,86.036766 65.222214,78.104614 65.341995,69.718842 
	C70.201401,68.943542 75.064438,68.621864 80.374809,68.338348 
	C78.061752,68.808449 75.301361,69.240402 71.937141,69.855293 
	C70.902382,70.052902 70.471443,70.067581 69.710754,70.161270 
	C68.664093,71.490494 67.947174,72.740692 67.206337,74.455429 
	C67.183220,79.280540 67.184036,83.641113 67.184845,88.001678 
z"/>
<path fill="#6A7CC6" opacity="1.000000" stroke="none" 
	d="
M85.577461,97.009293 
	C85.267998,98.172783 84.528656,99.330475 83.789314,100.488167 
	C82.589348,99.546814 81.389389,98.605461 80.087021,97.338676 
	C81.705605,97.009987 83.426590,97.006737 85.577461,97.009293 
z"/>
<path fill="#6A7CC6" opacity="1.000000" stroke="none" 
	d="
M86.856125,95.835831 
	C87.003487,96.017365 86.533562,96.036957 86.299461,96.049316 
	C86.065361,96.061668 86.015976,95.571335 85.995369,95.326599 
	C86.248573,95.235298 86.493233,95.426109 86.856125,95.835831 
z"/>
<path fill="#7379C3" opacity="1.000000" stroke="none" 
	d="
M105.006310,109.001862 
	C105.032005,109.445580 105.057693,109.889290 104.853722,111.031479 
	C104.757004,118.493004 104.889946,125.256073 105.022888,132.019135 
	C105.049744,132.764526 105.076599,133.509918 104.871872,134.780975 
	C104.408012,135.520035 104.192261,135.749008 103.677414,136.041992 
	C102.577919,136.706955 101.794029,137.323456 101.010139,137.939972 
	C97.719154,138.954636 94.428169,139.969299 90.774925,140.989563 
	C90.349983,133.976654 90.287292,126.958122 90.586555,119.425957 
	C96.246193,117.615150 101.713348,116.550926 102.733833,109.722984 
	C102.778336,109.425255 103.552544,109.236595 104.241699,108.999496 
	C104.666489,109.001862 104.836403,109.001862 105.006310,109.001862 
z"/>
<path fill="#8A6397" opacity="1.000000" stroke="none" 
	d="
M103.872269,99.147820 
	C104.497940,100.398392 104.842682,101.864326 105.263443,103.712471 
	C105.339470,104.094688 105.189705,104.081505 104.910362,104.171692 
	C104.385384,104.500839 104.139748,104.739784 103.585693,105.115112 
	C102.540703,106.118301 101.423355,106.873337 101.130669,107.870430 
	C99.495392,113.441353 95.524902,115.752434 90.100250,116.228920 
	C90.060532,115.816406 90.020805,115.403900 90.076698,114.313675 
	C90.236664,113.392647 90.301010,113.149330 90.601837,112.836044 
	C91.245728,112.268227 91.653152,111.770393 92.391312,111.210922 
	C93.825119,110.543823 94.928185,109.938354 96.031235,109.332886 
	C98.551270,106.009651 101.071297,102.686417 103.872269,99.147820 
z"/>
<path fill="#787BBC" opacity="1.000000" stroke="none" 
	d="
M90.105850,116.575211 
	C95.524902,115.752434 99.495392,113.441353 101.130669,107.870430 
	C101.423355,106.873337 102.540703,106.118301 103.872849,105.120621 
	C104.659058,104.990410 104.849701,104.991074 105.040344,104.991730 
	C105.051521,105.160271 105.062706,105.328819 104.868698,106.018600 
	C104.437958,107.358940 104.212402,108.178032 103.986847,108.997124 
	C103.552544,109.236595 102.778336,109.425255 102.733833,109.722984 
	C101.713348,116.550926 96.246193,117.615150 90.625412,118.959549 
	C90.238693,118.311691 90.175064,117.616592 90.105850,116.575211 
z"/>
<path fill="#7F284C" opacity="1.000000" stroke="none" 
	d="
M90.365364,112.906021 
	C90.301010,113.149330 90.236664,113.392647 90.074234,114.002632 
	C89.526863,114.750732 89.077576,115.132156 88.521973,115.715912 
	C86.519272,117.542999 84.622871,119.167747 82.293869,120.835556 
	C81.861259,120.878632 81.556168,120.603691 81.657990,120.275391 
	C83.381042,116.075638 85.298347,112.566048 90.365364,112.906021 
z"/>
<path fill="#7878AB" opacity="1.000000" stroke="none" 
	d="
M149.438690,96.589943 
	C145.926651,94.675072 146.204208,92.036583 149.036758,89.103073 
	C149.409744,91.371971 149.476318,93.761795 149.438690,96.589943 
z"/>
<path fill="#7878AB" opacity="1.000000" stroke="none" 
	d="
M149.439178,79.581924 
	C149.081406,78.518326 148.831573,77.063904 148.726593,75.337738 
	C149.024078,75.296913 149.192200,75.515945 149.547577,75.838333 
	C149.661926,77.032753 149.604523,78.111931 149.439178,79.581924 
z"/>
<path fill="#7878AB" opacity="1.000000" stroke="none" 
	d="
M149.436462,86.618423 
	C149.222092,86.095673 149.102692,85.209152 149.161133,84.174973 
	C149.403152,84.769760 149.467300,85.512215 149.436462,86.618423 
z"/>
<path fill="#787BBC" opacity="1.000000" stroke="none" 
	d="
M101.330475,137.918243 
	C101.794029,137.323456 102.577919,136.706955 103.681015,136.285553 
	C104.000229,136.480652 104.007057,136.967590 104.007057,136.967590 
	C103.221642,137.277237 102.436234,137.586868 101.330475,137.918243 
z"/>
<path fill="#7C82C7" opacity="1.000000" stroke="none" 
	d="
M104.216469,136.974686 
	C104.007057,136.967590 104.000229,136.480652 103.996628,136.237091 
	C104.192261,135.749008 104.408012,135.520035 104.817886,135.150909 
	C104.996880,135.444138 104.998260,135.893082 104.922157,136.669495 
	C104.844673,136.996948 104.425880,136.981781 104.216469,136.974686 
z"/>
<path fill="#7879BE" opacity="1.000000" stroke="none" 
	d="
M67.902954,118.946472 
	C69.415947,117.460182 70.632050,116.044548 71.945938,114.315674 
	C73.395340,113.167038 74.758675,112.349899 76.096390,111.492783 
	C80.172440,108.881126 84.244469,106.263084 88.306496,103.629684 
	C90.855804,101.976959 93.384331,100.292183 96.155373,98.664642 
	C96.223633,99.699158 96.058701,100.690834 95.787262,102.058060 
	C95.680748,102.433609 95.644234,102.409470 95.644234,102.409470 
	C95.480217,102.601547 95.316200,102.793625 94.686310,103.376297 
	C91.852051,104.870552 89.443047,105.896507 87.129776,107.105629 
	C85.626091,107.891594 84.261894,108.944405 82.856918,109.912659 
	C82.878632,109.947639 82.950394,109.906525 82.710159,109.774269 
	C82.201744,109.874489 81.933563,110.106964 81.363831,110.511124 
	C76.674042,115.449791 72.285782,120.216789 67.582420,124.986725 
	C66.847252,124.992569 66.427193,124.995468 66.007133,124.998367 
	C66.424583,123.234001 66.842026,121.469620 67.133804,119.422554 
	C67.207451,119.098938 67.406754,119.058022 67.902954,118.946472 
z"/>
<path fill="#7879BE" opacity="1.000000" stroke="none" 
	d="
M108.996475,75.680824 
	C107.973724,75.451111 107.117424,74.902397 106.069321,74.099976 
	C106.249390,72.151726 106.621254,70.457184 106.992569,68.378616 
	C110.418831,66.073959 112.401054,63.558514 111.716576,59.229988 
	C111.046837,54.994637 114.296623,55.060856 117.597260,55.478924 
	C117.613968,59.245552 117.221794,62.567173 116.829620,65.888794 
	C116.463020,65.826828 116.096428,65.764870 115.729828,65.702904 
	C116.199760,66.994881 116.669685,68.286858 117.139610,69.578835 
	C112.896523,69.321365 110.738403,71.939774 108.996475,75.680824 
z"/>
<path fill="#6166A9" opacity="1.000000" stroke="none" 
	d="
M117.316711,69.847359 
	C116.669685,68.286858 116.199760,66.994881 115.729828,65.702904 
	C116.096428,65.764870 116.463020,65.826828 116.829620,65.888794 
	C117.221794,62.567173 117.613968,59.245552 117.998978,55.482460 
	C118.006355,54.284435 118.020882,53.527882 118.037796,52.394005 
	C118.529907,51.777615 119.019638,51.538548 119.762886,51.199615 
	C120.105446,57.420734 120.194489,63.741714 120.069626,70.403412 
	C119.068413,70.534706 118.281113,70.325294 117.316711,69.847359 
z"/>
<path fill="#7E1E38" opacity="1.000000" stroke="none" 
	d="
M82.835205,109.877670 
	C84.261894,108.944405 85.626091,107.891594 87.129776,107.105629 
	C89.443047,105.896507 91.852051,104.870552 94.512489,103.712936 
	C95.077194,105.329964 95.349854,107.000931 95.826874,109.002396 
	C94.928185,109.938354 93.825119,110.543823 92.026810,111.011444 
	C88.499443,110.541618 85.667320,110.209648 82.835205,109.877670 
z"/>
<path fill="#823155" opacity="1.000000" stroke="none" 
	d="
M100.241440,93.903885 
	C102.044533,89.475868 104.152420,84.879578 106.578491,80.189453 
	C104.779854,84.642281 102.663040,89.188942 100.241440,93.903885 
z"/>
<path fill="#B74057" opacity="1.000000" stroke="none" 
	d="
M131.674210,75.135559 
	C132.015045,75.148216 132.085846,75.306252 132.269485,75.697693 
	C131.844070,76.318687 131.305801,76.706276 130.442230,77.187424 
	C130.546021,76.614311 130.975082,75.947632 131.674210,75.135559 
z"/>
<path fill="#7F284C" opacity="1.000000" stroke="none" 
	d="
M120.449654,72.496330 
	C120.583153,72.368919 120.791107,72.450485 121.030746,72.791130 
	C120.912659,72.850311 120.733215,72.735344 120.449654,72.496330 
z"/>
<path fill="#7E1E38" opacity="1.000000" stroke="none" 
	d="
M95.636963,102.407578 
	C95.644234,102.409470 95.680748,102.433609 95.681587,102.434357 
	C95.682426,102.435097 95.629700,102.405685 95.636963,102.407578 
z"/>
<path fill="#7C82C7" opacity="1.000000" stroke="none" 
	d="
M105.071243,131.550842 
	C104.889946,125.256073 104.757004,118.493004 104.813599,111.362991 
	C105.041962,117.691551 105.080780,124.387047 105.071243,131.550842 
z"/>
<path fill="#7C82C7" opacity="1.000000" stroke="none" 
	d="
M104.241707,108.999496 
	C104.212402,108.178032 104.437958,107.358940 104.837112,106.269997 
	C105.039948,106.751411 105.069191,107.502686 105.052368,108.627907 
	C104.836403,109.001862 104.666489,109.001862 104.241707,108.999496 
z"/>
<path fill="#7C82C7" opacity="1.000000" stroke="none" 
	d="
M105.072342,104.742294 
	C104.849701,104.991074 104.659058,104.990410 104.181259,104.984238 
	C104.139748,104.739784 104.385384,104.500839 104.850304,104.126480 
	C105.081177,104.158340 105.092758,104.325592 105.072342,104.742294 
z"/>
<path fill="#4E5495" opacity="1.000000" stroke="none" 
	d="
M134.066971,58.035156 
	C133.350250,59.054996 132.633530,60.074844 131.642853,61.264420 
	C131.267365,56.294788 131.165848,51.155426 131.090012,45.558895 
	C131.559296,44.851833 132.002899,44.601936 132.701080,44.686737 
	C133.326096,49.359341 133.696533,53.697250 134.066971,58.035156 
z"/>
<path fill="#377AC5" opacity="1.000000" stroke="none" 
	d="
M102.090439,68.616463 
	C101.557487,68.967705 101.108101,68.968964 100.321915,68.946167 
	C99.194366,68.009171 98.403625,67.096214 97.308182,66.084259 
	C99.142487,64.750549 101.281494,63.515858 103.708191,62.141178 
	C103.388588,64.089622 102.781288,66.178047 102.090439,68.616463 
z"/>
<path fill="#7777BF" opacity="1.000000" stroke="none" 
	d="
M134.368561,57.875668 
	C133.696533,53.697250 133.326096,49.359341 132.930054,44.573997 
	C132.914413,43.363018 132.924332,42.599476 132.923615,41.457989 
	C133.523285,38.750610 134.714005,36.399281 134.627106,34.096146 
	C134.425629,28.754608 135.216690,27.956484 140.542419,29.938332 
	C140.933289,34.713329 141.016983,39.383064 141.162216,44.510086 
	C139.039215,49.216972 136.854675,53.466576 134.368561,57.875668 
z"/>
<path fill="#7F7AAC" opacity="1.000000" stroke="none" 
	d="
M65.865784,125.284264 
	C66.427193,124.995468 66.847252,124.992569 67.631889,125.319031 
	C68.039146,126.309441 68.081818,126.970490 67.989067,127.933975 
	C67.536667,129.044495 67.219681,129.852570 66.553635,130.736481 
	C64.111961,133.038330 61.891384,135.159241 59.956497,137.514816 
	C57.003010,141.110489 57.513958,142.589172 62.150040,144.556152 
	C63.575989,143.058807 65.027916,141.534195 66.736221,140.081558 
	C67.346069,140.186600 67.699532,140.219666 68.053001,140.252716 
	C68.697571,146.597305 64.231552,146.705704 59.471527,146.946503 
	C58.565075,146.362717 58.065502,145.784271 57.208366,144.715637 
	C56.553204,142.489761 56.255600,140.754059 55.958000,139.018356 
	C57.907024,136.225677 59.856049,133.432983 62.086895,130.164856 
	C62.595985,129.474609 62.809315,129.246750 63.008713,129.005859 
	C63.913960,127.860626 64.819199,126.715393 65.865784,125.284264 
z"/>
<path fill="#787BBC" opacity="1.000000" stroke="none" 
	d="
M55.656075,139.103439 
	C56.255600,140.754059 56.553204,142.489761 56.944622,144.588074 
	C55.401321,144.267578 53.764206,143.584503 51.097363,142.471756 
	C53.058357,140.959259 54.206253,140.073883 55.656075,139.103439 
z"/>
<path fill="#7879BE" opacity="1.000000" stroke="none" 
	d="
M62.810356,129.015869 
	C62.809315,129.246750 62.595985,129.474609 62.193939,129.844940 
	C61.870468,129.814255 61.721783,129.628067 61.573101,129.441879 
	C61.919403,129.303207 62.265705,129.164551 62.810356,129.015869 
z"/>
<path fill="#7F284C" opacity="1.000000" stroke="none" 
	d="
M68.311203,140.026688 
	C67.699532,140.219666 67.346069,140.186600 66.764084,139.777435 
	C67.363159,137.941345 68.190765,136.481369 69.225815,134.761444 
	C73.474236,129.868881 77.515198,125.236290 81.556168,120.603683 
	C81.556168,120.603691 81.861259,120.878632 82.013718,121.016190 
	C77.633919,127.369385 73.101662,133.585022 68.311203,140.026688 
z"/>
<path fill="#377AC7" opacity="1.000000" stroke="none" 
	d="
M70.040512,70.082253 
	C70.471443,70.067581 70.902382,70.052902 71.656174,70.029175 
	C75.400032,70.231972 78.893051,70.971840 82.223213,70.517632 
	C86.097626,69.989174 87.604599,71.602036 87.772224,74.910400 
	C87.981415,79.039352 87.946190,83.195366 87.739761,87.325874 
	C87.584724,90.428062 85.808220,92.054077 82.518272,92.012764 
	C77.281754,91.946991 71.562729,93.930458 67.486771,88.114365 
	C67.184036,83.641113 67.183220,79.280540 67.498337,74.340530 
	C68.556343,72.534813 69.298431,71.308533 70.040512,70.082253 
z"/>
<path fill="#4477BF" opacity="1.000000" stroke="none" 
	d="
M69.710754,70.161270 
	C69.298431,71.308533 68.556343,72.534813 67.522263,73.875992 
	C67.947174,72.740692 68.664093,71.490494 69.710754,70.161270 
z"/>
<path fill="#C8374B" opacity="1.000000" stroke="none" 
	d="
M81.657990,120.275391 
	C77.515198,125.236290 73.474236,129.868881 68.950424,134.620361 
	C67.945961,133.379684 67.424332,132.020172 66.902695,130.660645 
	C67.219681,129.852570 67.536667,129.044495 68.305984,127.910576 
	C73.171547,122.376114 77.584763,117.167503 82.204033,111.749176 
	C82.590179,110.995155 82.770287,110.450844 82.950394,109.906525 
	C82.950394,109.906525 82.878632,109.947639 82.856918,109.912659 
	C85.667320,110.209648 88.499443,110.541618 91.696060,111.073074 
	C91.653152,111.770393 91.245728,112.268227 90.601837,112.836044 
	C85.298347,112.566048 83.381042,116.075638 81.657990,120.275391 
z"/>
<path fill="#7F284C" opacity="1.000000" stroke="none" 
	d="
M81.997986,111.958885 
	C77.584763,117.167503 73.171547,122.376114 68.441406,127.608131 
	C68.081818,126.970490 68.039146,126.309441 67.946999,125.316093 
	C72.285782,120.216789 76.674042,115.449791 81.449860,110.916245 
	C81.890953,111.419418 81.944466,111.689148 81.997986,111.958885 
z"/>
<path fill="#7E1E38" opacity="1.000000" stroke="none" 
	d="
M82.204033,111.749176 
	C81.944466,111.689148 81.890953,111.419418 81.751404,110.744568 
	C81.933563,110.106964 82.201744,109.874489 82.710159,109.774269 
	C82.770287,110.450844 82.590179,110.995155 82.204033,111.749176 
z"/>
<path fill="#B93A4F" opacity="1.000000" stroke="none" 
	d="
M66.553635,130.736481 
	C67.424332,132.020172 67.945961,133.379684 68.742981,134.880310 
	C68.190765,136.481369 67.363159,137.941345 66.507698,139.705444 
	C65.027916,141.534195 63.575989,143.058807 62.150040,144.556152 
	C57.513958,142.589172 57.003010,141.110489 59.956497,137.514816 
	C61.891384,135.159241 64.111961,133.038330 66.553635,130.736481 
z"/>
</svg>