<svg width="54" height="54" viewBox="0 0 54 54" fill="none" xmlns="http://www.w3.org/2000/svg">
<path d="M37.6845 5.625C37.6845 5.17745 37.8623 4.74822 38.1787 4.43176C38.4952 4.11529 38.9244 3.9375 39.372 3.9375H48.372C48.8195 3.9375 49.2487 4.11529 49.5652 4.43176C49.8817 4.74822 50.0595 5.17745 50.0595 5.625V14.625C50.0595 15.0726 49.8817 15.5018 49.5652 15.8182C49.2487 16.1347 48.8195 16.3125 48.372 16.3125C47.9244 16.3125 47.4952 16.1347 47.1787 15.8182C46.8623 15.5018 46.6845 15.0726 46.6845 14.625V9.63L31.2112 23.283C30.5227 23.8905 29.8882 24.4508 29.3077 24.84C28.6687 25.272 27.9082 25.6275 26.97 25.6005C26.034 25.5713 25.296 25.1663 24.684 24.696C24.1305 24.2685 23.532 23.6723 22.884 23.022L19.9837 20.1262C19.2007 19.341 18.7305 18.8753 18.3502 18.585C18.2437 18.499 18.1264 18.4272 18.0015 18.3713H17.988C17.863 18.4272 17.7458 18.499 17.6392 18.585C17.259 18.8775 16.7887 19.341 16.0057 20.1262L6.81447 29.3175C6.49458 29.6156 6.07147 29.7779 5.63429 29.7701C5.19712 29.7624 4.78 29.5853 4.47082 29.2761C4.16164 28.967 3.98454 28.5499 3.97683 28.1127C3.96911 27.6755 4.13139 27.2524 4.42947 26.9325L13.6927 17.667C14.3812 16.9785 15.0135 16.3485 15.5962 15.903C16.2375 15.4125 17.0137 14.994 17.997 14.994C18.9802 14.994 19.7565 15.4125 20.3977 15.903C20.9827 16.3485 21.6127 16.9785 22.3012 17.667L25.2015 20.5695C25.9417 21.3075 26.3827 21.744 26.7405 22.0185C26.843 22.1015 26.9556 22.171 27.0757 22.2255C27.0757 22.2255 27.087 22.2255 27.1072 22.2165C27.2187 22.1704 27.3244 22.1115 27.4222 22.041C27.798 21.789 28.2637 21.3818 29.0512 20.6887L44.2095 7.3125H39.372C38.9244 7.3125 38.4952 7.13471 38.1787 6.81824C37.8623 6.50178 37.6845 6.07255 37.6845 5.625Z" fill="#292D32"/>
<path fill-rule="evenodd" clip-rule="evenodd" d="M44.9505 21.9375C44.469 21.9375 44.028 21.9375 43.6545 21.9622C43.254 21.9892 42.8153 22.0523 42.3675 22.2368C41.4028 22.6364 40.6364 23.4028 40.2367 24.3675C40.0522 24.8152 39.9893 25.254 39.9622 25.6545C39.9375 26.0258 39.9375 26.469 39.9375 26.9505V45.0495C39.9375 45.531 39.9375 45.972 39.9622 46.3455C39.9893 46.746 40.0522 47.1847 40.2367 47.6325C40.6372 48.5955 41.4022 49.365 42.3675 49.7633C42.8153 49.9478 43.254 50.0107 43.6545 50.0378C44.0257 50.0625 44.469 50.0625 44.9505 50.0625H45.0495C45.531 50.0625 45.972 50.0625 46.3455 50.0378C46.746 50.0107 47.1847 49.9478 47.6325 49.7633C48.5972 49.3636 49.3636 48.5972 49.7633 47.6325C49.9478 47.1847 50.0107 46.746 50.0378 46.3455C50.0625 45.9742 50.0625 45.531 50.0625 45.0495V26.9505C50.0625 26.469 50.0625 26.028 50.0378 25.6545C50.0178 25.2133 49.925 24.7785 49.7633 24.3675C49.3636 23.4028 48.5972 22.6364 47.6325 22.2368C47.2216 22.075 46.7867 21.9822 46.3455 21.9622C45.9743 21.9375 45.531 21.9375 45.0495 21.9375H44.9505ZM43.3575 25.6523C43.4148 25.5207 43.5203 25.4161 43.6522 25.3597C43.7286 25.3437 43.8061 25.3339 43.884 25.3305C44.127 25.3125 44.4533 25.3125 45 25.3125C45.5467 25.3125 45.873 25.3125 46.116 25.3305C46.2668 25.3395 46.3298 25.353 46.3478 25.3575C46.4793 25.4148 46.5839 25.5203 46.6403 25.6523C46.6563 25.7286 46.6661 25.8061 46.6695 25.884C46.6875 26.127 46.6875 26.4532 46.6875 27V45C46.6875 45.5467 46.6875 45.873 46.6695 46.116C46.6669 46.1939 46.6578 46.2714 46.6425 46.3478C46.5852 46.4793 46.4797 46.5839 46.3478 46.6403C46.2714 46.6563 46.1939 46.6661 46.116 46.6695C45.7443 46.6867 45.3721 46.6927 45 46.6875C44.4533 46.6875 44.127 46.6875 43.884 46.6695C43.8061 46.6669 43.7286 46.6578 43.6522 46.6425C43.5207 46.5851 43.4161 46.4797 43.3597 46.3478C43.3437 46.2714 43.3339 46.1939 43.3305 46.116C43.3133 45.7443 43.3073 45.3721 43.3125 45V27C43.3125 26.4532 43.3125 26.127 43.3305 25.884C43.3331 25.8061 43.3422 25.7286 43.3575 25.6523ZM8.9505 33.1875C8.469 33.1875 8.028 33.1875 7.6545 33.2122C7.254 33.2392 6.81525 33.3023 6.3675 33.4868C5.40282 33.8864 4.63638 34.6528 4.23675 35.6175C4.05225 36.0652 3.98925 36.504 3.96225 36.9045C3.9375 37.2758 3.9375 37.719 3.9375 38.2005V45.0495C3.9375 45.531 3.9375 45.972 3.96225 46.3455C3.98925 46.746 4.05225 47.1847 4.23675 47.6325C4.63725 48.5955 5.4045 49.365 6.3675 49.7633C6.81525 49.9478 7.254 50.0107 7.6545 50.0378C8.02575 50.0625 8.469 50.0625 8.9505 50.0625H9.0495C9.531 50.0625 9.972 50.0625 10.3455 50.0378C10.746 50.0107 11.1848 49.9478 11.6325 49.7633C12.5972 49.3636 13.3636 48.5972 13.7633 47.6325C13.9251 47.2216 14.0178 46.7867 14.0377 46.3455C14.0625 45.9742 14.0625 45.531 14.0625 45.0495V38.2005C14.0625 37.719 14.0625 37.278 14.0377 36.9045C14.0178 36.4633 13.925 36.0284 13.7633 35.6175C13.3636 34.6528 12.5972 33.8864 11.6325 33.4868C11.2216 33.325 10.7867 33.2322 10.3455 33.2122C9.97425 33.1875 9.531 33.1875 9.0495 33.1875H8.9505ZM7.3575 36.9022C7.41485 36.7707 7.52029 36.6661 7.65225 36.6097C7.72856 36.5936 7.80608 36.5839 7.884 36.5805C8.127 36.5625 8.45325 36.5625 9 36.5625C9.54675 36.5625 9.873 36.5625 10.116 36.5805C10.1939 36.5831 10.2714 36.5921 10.3477 36.6075C10.4793 36.6648 10.5839 36.7703 10.6403 36.9022C10.6562 36.9786 10.666 37.0561 10.6695 37.134C10.6875 37.377 10.6875 37.7032 10.6875 38.25V45C10.6875 45.5467 10.6875 45.873 10.6695 46.116C10.6668 46.1939 10.6577 46.2714 10.6425 46.3478C10.5852 46.4793 10.4797 46.5839 10.3477 46.6403C10.2714 46.6564 10.1939 46.6661 10.116 46.6695C9.74426 46.6867 9.3721 46.6927 9 46.6875C8.45325 46.6875 8.127 46.6875 7.884 46.6695C7.80614 46.6669 7.72863 46.6579 7.65225 46.6425C7.52073 46.5851 7.41609 46.4797 7.35975 46.3478C7.34376 46.2714 7.33398 46.1939 7.3305 46.116C7.31337 45.7443 7.30737 45.3721 7.3125 45V38.25C7.3125 37.7032 7.3125 37.377 7.3305 37.134C7.33324 37.0561 7.34227 36.9786 7.3575 36.9022ZM26.9505 28.6875H27.0495C27.531 28.6875 27.972 28.6875 28.3455 28.7122C28.746 28.7392 29.1847 28.8023 29.6325 28.9868C30.5955 29.3873 31.365 30.1545 31.7632 31.1175C31.9478 31.5652 32.0107 32.004 32.0378 32.4045C32.0625 32.7758 32.0625 33.219 32.0625 33.7005V45.0495C32.0625 45.531 32.0625 45.972 32.0378 46.3455C32.0107 46.746 31.9478 47.1847 31.7632 47.6325C31.3636 48.5972 30.5972 49.3636 29.6325 49.7633C29.1847 49.9478 28.746 50.0107 28.3455 50.0378C27.9742 50.0625 27.531 50.0625 27.0495 50.0625H26.9505C26.469 50.0625 26.028 50.0625 25.6545 50.0378C25.2133 50.0178 24.7785 49.925 24.3675 49.7633C23.4028 49.3636 22.6364 48.5972 22.2368 47.6325C22.075 47.2216 21.9822 46.7867 21.9622 46.3455C21.9375 45.9742 21.9375 45.531 21.9375 45.0495V33.7005C21.9375 33.219 21.9375 32.778 21.9622 32.4045C21.9893 32.004 22.0522 31.5652 22.2368 31.1175C22.6364 30.1528 23.4028 29.3864 24.3675 28.9868C24.8153 28.8023 25.254 28.7392 25.6545 28.7122C26.0258 28.6875 26.469 28.6875 26.9505 28.6875ZM25.6523 32.1075C25.5207 32.1648 25.4161 32.2703 25.3597 32.4023C25.3437 32.4786 25.3339 32.5561 25.3305 32.634C25.3133 33.0057 25.3073 33.3779 25.3125 33.75V45C25.3125 45.5467 25.3125 45.873 25.3305 46.116C25.3395 46.2668 25.353 46.3298 25.3575 46.3478C25.4149 46.4793 25.5203 46.5839 25.6523 46.6403C25.7286 46.6563 25.8061 46.6661 25.884 46.6695C26.127 46.6875 26.4533 46.6875 27 46.6875C27.5467 46.6875 27.873 46.6875 28.116 46.6695C28.1939 46.6669 28.2714 46.6578 28.3477 46.6425C28.4793 46.5851 28.5839 46.4797 28.6403 46.3478C28.6563 46.2714 28.6661 46.1939 28.6695 46.116C28.6875 45.873 28.6875 45.5467 28.6875 45V33.75C28.6875 33.2032 28.6875 32.877 28.6695 32.634C28.6669 32.5561 28.6578 32.4786 28.6425 32.4023C28.5851 32.2707 28.4797 32.1661 28.3477 32.1097C28.2714 32.0937 28.1939 32.0839 28.116 32.0805C27.7443 32.0633 27.3721 32.0573 27 32.0625C26.4533 32.0625 26.127 32.0625 25.884 32.0805C25.8061 32.0831 25.7286 32.0922 25.6523 32.1075Z" fill="#292D32"/>
</svg>
